<svg width="9" height="9" viewBox="0 0 9 9" fill="none" xmlns="http://www.w3.org/2000/svg">
<path d="M7.76239 2.2025L1.54055 8.418C1.44822 8.51022 1.33222 8.55528 1.19255 8.55317C1.05278 8.55106 0.936721 8.50383 0.844388 8.4115C0.752166 8.31917 0.706055 8.20422 0.706055 8.06667C0.706055 7.92911 0.752166 7.81417 0.844388 7.72183L7.05989 1.5H1.59572C1.45405 1.5 1.33528 1.45206 1.23939 1.35617C1.14361 1.26028 1.09572 1.1415 1.09572 0.999833C1.09572 0.858055 1.14361 0.739333 1.23939 0.643667C1.33528 0.547889 1.45405 0.5 1.59572 0.5H8.15972C8.3305 0.5 8.47361 0.557722 8.58906 0.673167C8.70461 0.788722 8.76239 0.931834 8.76239 1.1025V7.66667C8.76239 7.80833 8.71444 7.92706 8.61856 8.02283C8.52267 8.11872 8.40389 8.16667 8.26222 8.16667C8.12044 8.16667 8.00167 8.11872 7.90589 8.02283C7.81022 7.92706 7.76239 7.80833 7.76239 7.66667V2.2025Z" fill="white"/>
</svg>
