<svg width="36" height="24" viewBox="0 0 36 24" fill="none" xmlns="http://www.w3.org/2000/svg">
<path d="M1.74958 23.8333C1.39514 23.8333 1.09833 23.7135 0.859167 23.4738C0.619722 23.2343 0.5 22.9375 0.5 22.5833V1.75C0.5 1.39583 0.619861 1.09903 0.859583 0.859584C1.09931 0.619861 1.39625 0.5 1.75042 0.5C2.10486 0.5 2.40167 0.619861 2.64083 0.859584C2.88028 1.09903 3 1.39583 3 1.75V16.3333H16.75V6.33333C16.75 5.65167 16.9963 5.06458 17.4888 4.57208C17.9813 4.07958 18.5683 3.83333 19.25 3.83333H29.6667C31.2708 3.83333 32.644 4.40458 33.7863 5.54708C34.9287 6.68931 35.5 8.0625 35.5 9.66667V22.5833C35.5 22.9375 35.3801 23.2343 35.1404 23.4738C34.9007 23.7135 34.6037 23.8333 34.2496 23.8333C33.8951 23.8333 33.5983 23.7135 33.3592 23.4738C33.1197 23.2343 33 22.9375 33 22.5833V18.8333H3V22.5833C3 22.9375 2.88014 23.2343 2.64042 23.4738C2.40069 23.7135 2.10375 23.8333 1.74958 23.8333ZM9.66458 13.9296C8.48014 13.9296 7.47389 13.5149 6.64583 12.6854C5.81778 11.8563 5.40375 10.8493 5.40375 9.66458C5.40375 8.48014 5.81847 7.47389 6.64792 6.64583C7.47708 5.81778 8.48403 5.40375 9.66875 5.40375C10.8532 5.40375 11.8594 5.81847 12.6875 6.64792C13.5156 7.47708 13.9296 8.48403 13.9296 9.66875C13.9296 10.8532 13.5149 11.8594 12.6854 12.6875C11.8562 13.5156 10.8493 13.9296 9.66458 13.9296Z" fill="white" fill-opacity="0.5"/>
</svg>
