<svg width="43" height="34" viewBox="0 0 43 34" fill="none" xmlns="http://www.w3.org/2000/svg">
<path d="M19.5412 33.1669C18.4641 33.1669 17.5421 32.7834 16.7751 32.0163C16.0081 31.2493 15.6245 30.3273 15.6245 29.2502V25.3335C15.6245 24.2564 16.0081 23.3344 16.7751 22.5674C17.5421 21.8004 18.4641 21.4169 19.5412 21.4169H23.4579C24.535 21.4169 25.457 21.8004 26.224 22.5674C26.991 23.3344 27.3745 24.2564 27.3745 25.3335V29.2502C27.3745 30.3273 26.991 31.2493 26.224 32.0163C25.457 32.7834 24.535 33.1669 23.4579 33.1669H19.5412ZM19.5412 29.2502H23.4579V25.3335H19.5412V29.2502ZM3.87454 18.2835C3.4176 18.6099 2.92802 18.7405 2.40579 18.6752C1.88357 18.6099 1.45927 18.3488 1.13288 17.8919C0.806489 17.4349 0.684093 16.9453 0.76569 16.4231C0.847287 15.9009 1.10024 15.4766 1.52454 15.1502L19.1006 1.68665C19.4596 1.42554 19.8431 1.22971 20.2511 1.09915C20.6591 0.968598 21.0752 0.90332 21.4995 0.90332C21.9239 0.90332 22.34 0.968598 22.748 1.09915C23.156 1.22971 23.5395 1.42554 23.8985 1.68665L29.3329 5.84811V4.77103C29.3329 3.95506 29.6185 3.26148 30.1896 2.6903C30.7608 2.11912 31.4544 1.83353 32.2704 1.83353C33.0864 1.83353 33.7799 2.11912 34.3511 2.6903C34.9223 3.26148 35.2079 3.95506 35.2079 4.77103V10.3523L41.5235 15.1502C41.9478 15.4766 42.1926 15.9009 42.2579 16.4231C42.3232 16.9453 42.1926 17.4349 41.8662 17.8919C41.5398 18.3488 41.1155 18.6099 40.5933 18.6752C40.0711 18.7405 39.5815 18.6099 39.1245 18.2835L21.4995 4.81999L3.87454 18.2835Z" fill="white"/>
</svg>
