<svg width="26" height="31" viewBox="0 0 26 31" fill="none" xmlns="http://www.w3.org/2000/svg">
<path d="M10.5511 24.1666H2.39105C1.79383 24.1666 1.34591 23.9016 1.0473 23.3716C0.748691 22.8416 0.772441 22.3257 1.11855 21.8237L6.2373 14.1666H5.8398C5.23314 14.1666 4.78439 13.8973 4.49355 13.3587C4.203 12.8204 4.23605 12.3001 4.59272 11.7979L11.7531 1.54163C11.909 1.33024 12.0999 1.16996 12.3261 1.0608C12.5519 0.951907 12.7779 0.897461 13.004 0.897461C13.2298 0.897461 13.4544 0.951907 13.6777 1.0608C13.9011 1.16996 14.0906 1.33024 14.2465 1.54163L21.4069 11.7979C21.7636 12.3001 21.7966 12.8204 21.5061 13.3587C21.2152 13.8973 20.7665 14.1666 20.1598 14.1666H19.7623L24.8811 21.8237C25.2272 22.3257 25.2509 22.8416 24.9523 23.3716C24.6537 23.9016 24.2058 24.1666 23.6086 24.1666H15.4486V29.3908C15.4486 29.7994 15.3104 30.142 15.034 30.4187C14.7573 30.6951 14.4147 30.8333 14.0061 30.8333H12.0577C11.6308 30.8333 11.273 30.6888 10.9844 30.4C10.6955 30.1113 10.5511 29.7536 10.5511 29.3266V24.1666Z" fill="white" fill-opacity="0.5"/>
</svg>
