<svg width="12" height="7" viewBox="0 0 12 7" fill="none" xmlns="http://www.w3.org/2000/svg">
<path d="M6.00007 2.9002L2.42507 6.4752C2.25701 6.64325 2.04312 6.72728 1.7834 6.72728C1.52368 6.72728 1.30979 6.64325 1.14173 6.4752C0.973676 6.30714 0.889648 6.09325 0.889648 5.83353C0.889648 5.57381 0.973676 5.35992 1.14173 5.19186L5.3584 0.975195C5.54173 0.791862 5.75562 0.700195 6.00007 0.700195C6.24451 0.700195 6.4584 0.791862 6.64173 0.975195L10.8584 5.19186C11.0265 5.35992 11.1105 5.57381 11.1105 5.83353C11.1105 6.09325 11.0265 6.30714 10.8584 6.4752C10.6903 6.64325 10.4765 6.72728 10.2167 6.72728C9.95701 6.72728 9.74312 6.64325 9.57507 6.4752L6.00007 2.9002Z" fill="white"/>
</svg>
