<svg width="31" height="29" viewBox="0 0 31 29" fill="none" xmlns="http://www.w3.org/2000/svg">
<path d="M0.0830078 28.375V25.2917C1.0594 25.2917 1.93301 25.1054 2.70384 24.7328C3.47467 24.3602 4.30974 23.8399 5.20905 23.1719C5.97988 23.8142 6.82138 24.3217 7.73353 24.6943C8.64568 25.0668 9.52572 25.2531 10.3736 25.2531C11.2215 25.2531 12.108 25.0733 13.033 24.7135C13.958 24.3538 14.7931 23.8399 15.5382 23.1719C16.3604 23.8913 17.2084 24.4181 18.082 24.7521C18.9556 25.0861 19.8292 25.2531 20.7028 25.2531C21.5507 25.2531 22.3794 25.0861 23.1887 24.7521C23.9981 24.4181 24.891 23.8913 25.8674 23.1719C26.8695 23.9427 27.7559 24.4887 28.5268 24.8099C29.2976 25.1311 30.0941 25.2917 30.9163 25.2917V28.375C30.017 28.375 29.1498 28.253 28.3148 28.0089C27.4797 27.7648 26.6639 27.4115 25.8674 26.949C25.0452 27.4628 24.1908 27.829 23.3044 28.0474C22.4179 28.2658 21.5507 28.375 20.7028 28.375C19.8549 28.375 18.9877 28.2658 18.1012 28.0474C17.2148 27.829 16.3604 27.4628 15.5382 26.949C14.7931 27.4372 13.9709 27.7969 13.0716 28.0281C12.1722 28.2594 11.2729 28.375 10.3736 28.375C9.50002 28.375 8.62641 28.2594 7.7528 28.0281C6.87919 27.7969 6.03127 27.4372 5.20905 26.949C4.41252 27.4115 3.58388 27.7648 2.72311 28.0089C1.86235 28.253 0.982313 28.375 0.0830078 28.375ZM0.0830078 21.4375V18.3542C0.0830078 15.8618 0.564779 13.5365 1.52832 11.3781C2.49186 9.21979 3.8087 7.3441 5.47884 5.75104C7.14898 4.15799 9.10818 2.90538 11.3564 1.99323C13.6047 1.08108 16.0136 0.625 18.583 0.625C19.4309 0.625 20.2724 0.669965 21.1075 0.759896C21.9426 0.849826 22.6941 0.971875 23.3622 1.12604C22.8226 1.94826 22.4051 2.81545 22.1096 3.7276C21.8141 4.63976 21.6663 5.4941 21.6663 6.29062C21.6663 7.70382 22.1674 8.91146 23.1695 9.91354C24.1716 10.9156 25.3792 11.4167 26.7924 11.4167H30.9163V14.5H26.7924C24.5056 14.5 22.5656 13.7035 20.9726 12.1104C19.3795 10.5174 18.583 8.57743 18.583 6.29062C18.583 5.9309 18.6087 5.55191 18.6601 5.15365C18.7115 4.75538 18.7886 4.36354 18.8913 3.97812C16.99 4.44062 15.4354 5.42344 14.2278 6.92656C13.0202 8.42969 12.4163 10.1833 12.4163 12.1875C12.4163 13.1125 12.5641 13.9925 12.8596 14.8276C13.1551 15.6627 13.5726 16.4528 14.1122 17.1979C14.3177 17.0694 14.5361 16.9217 14.7674 16.7547C14.9986 16.5877 15.2427 16.4142 15.4997 16.2344C16.2448 16.9024 17.1056 17.4163 18.082 17.776C19.0584 18.1358 19.932 18.3156 20.7028 18.3156C21.4736 18.3156 22.3344 18.1293 23.2851 17.7568C24.2358 17.3842 25.0966 16.8767 25.8674 16.2344C26.6896 16.851 27.5054 17.3585 28.3148 17.7568C29.1242 18.155 29.9913 18.3542 30.9163 18.3542V21.4375C30.017 21.4375 29.1498 21.3155 28.3148 21.0714C27.4797 20.8273 26.6639 20.474 25.8674 20.0115C25.0452 20.5253 24.2101 20.8915 23.3622 21.1099C22.5143 21.3283 21.6278 21.4375 20.7028 21.4375C19.7778 21.4375 18.8528 21.309 17.9278 21.0521C17.0028 20.7951 16.2063 20.4483 15.5382 20.0115C14.7417 20.4997 13.9066 20.853 13.033 21.0714C12.1594 21.2898 11.2729 21.4118 10.3736 21.4375C9.47433 21.4632 8.58787 21.3476 7.71426 21.0906C6.84065 20.8337 6.00558 20.474 5.20905 20.0115C4.41252 20.474 3.58388 20.8273 2.72311 21.0714C1.86235 21.3155 0.982313 21.4375 0.0830078 21.4375ZM10.2965 18.3156H10.682C10.8104 18.3156 10.9389 18.3028 11.0674 18.2771C10.5021 17.3778 10.0717 16.4142 9.77624 15.3865C9.48075 14.3587 9.33301 13.2924 9.33301 12.1875C9.33301 10.1062 9.80836 8.22413 10.7591 6.54115C11.7097 4.85816 13.033 3.47708 14.7288 2.39792V4.09375C13.1358 4.50486 11.6648 5.12795 10.3158 5.96302C8.96686 6.79809 7.78492 7.8066 6.76999 8.98854C5.75506 10.1705 4.93926 11.4873 4.32259 12.9391C3.70592 14.3908 3.33336 15.9389 3.20488 17.5833C3.5903 17.3521 3.92433 17.1465 4.20697 16.9667C4.48961 16.7868 4.82363 16.5427 5.20905 16.2344C6.15974 16.9281 7.02051 17.4484 7.79134 17.7953C8.56217 18.1422 9.39724 18.3156 10.2965 18.3156Z" fill="white"/>
</svg>
