<svg width="35" height="27" viewBox="0 0 35 27" fill="none" xmlns="http://www.w3.org/2000/svg">
<path d="M9.04837 26.1469C6.62359 26.1469 4.55197 25.3099 2.83353 23.6359C1.11508 21.9619 0.255859 19.9158 0.255859 17.4977C0.255859 15.4322 0.864304 13.5864 2.08119 11.9605C3.29782 10.3348 4.90411 9.29735 6.90006 8.84821C7.57916 6.45991 8.89767 4.53039 10.8556 3.05964C12.8132 1.58889 15.028 0.853516 17.4998 0.853516C20.5369 0.853516 23.1224 1.90365 25.2563 4.00391C27.3902 6.10418 28.491 8.66964 28.5585 11.7003C30.35 11.9734 31.8287 12.7932 32.9947 14.1596C34.1607 15.5258 34.7437 17.1139 34.7437 18.9238C34.7437 20.9303 34.0415 22.6357 32.637 24.0402C31.2326 25.4446 29.5271 26.1469 27.5206 26.1469H9.04837ZM9.04837 22.6396H27.4929C28.5353 22.6396 29.4198 22.2763 30.1465 21.5496C30.8731 20.823 31.2364 19.9384 31.2364 18.896C31.2364 17.8536 30.8731 16.9691 30.1465 16.2424C29.4198 15.5158 28.5353 15.1525 27.4929 15.1525H25.0698V11.9308C25.0698 9.83642 24.3317 8.05117 22.8555 6.57503C21.3794 5.09888 19.5941 4.36081 17.4998 4.36081C15.3918 4.36081 13.6031 5.11545 12.1336 6.62474C10.6644 8.13404 9.92982 9.94884 9.92982 12.0691H9.04837C7.58867 12.0691 6.34287 12.5851 5.31098 13.617C4.2791 14.6489 3.76315 15.8947 3.76315 17.3544C3.76315 18.8138 4.2791 20.0596 5.31098 21.0917C6.34287 22.1236 7.58867 22.6396 9.04837 22.6396Z" fill="white"/>
</svg>
