<svg width="31" height="18" viewBox="0 0 31 18" fill="none" xmlns="http://www.w3.org/2000/svg">
<path d="M0.0830078 17.7503V14.667C1.0594 14.667 1.78526 14.41 2.26061 13.8962C2.73596 13.3823 3.73162 13.1253 5.24759 13.1253C6.76356 13.1253 7.75922 13.3823 8.23457 13.8962C8.70992 14.41 9.41009 14.667 10.3351 14.667C11.3115 14.667 12.0373 14.41 12.5127 13.8962C12.988 13.3823 13.9837 13.1253 15.4997 13.1253C16.9643 13.1253 17.9599 13.3823 18.4867 13.8962C19.0134 14.41 19.7393 14.667 20.6643 14.667C21.6406 14.667 22.3537 14.41 22.8033 13.8962C23.253 13.3823 24.2358 13.1253 25.7518 13.1253C27.2677 13.1253 28.2634 13.3823 28.7387 13.8962C29.2141 14.41 29.94 14.667 30.9163 14.667V17.7503C29.4518 17.7503 28.4561 17.4934 27.9294 16.9795C27.4026 16.4656 26.6768 16.2087 25.7518 16.2087C24.8268 16.2087 24.1266 16.4656 23.6512 16.9795C23.1759 17.4934 22.1802 17.7503 20.6643 17.7503C19.1997 17.7503 18.204 17.4934 17.6773 16.9795C17.1505 16.4656 16.4247 16.2087 15.4997 16.2087C14.5233 16.2087 13.7974 16.4656 13.3221 16.9795C12.8467 17.4934 11.8511 17.7503 10.3351 17.7503C8.81912 17.7503 7.83631 17.4934 7.38665 16.9795C6.937 16.4656 6.22398 16.2087 5.24759 16.2087C4.2712 16.2087 3.54533 16.4656 3.06999 16.9795C2.59464 17.4934 1.59898 17.7503 0.0830078 17.7503ZM0.0830078 11.5837V8.50033C1.0594 8.50033 1.78526 8.24338 2.26061 7.72949C2.73596 7.2156 3.73162 6.95866 5.24759 6.95866C6.71217 6.95866 7.69499 7.2156 8.19603 7.72949C8.69707 8.24338 9.41009 8.50033 10.3351 8.50033C11.3115 8.50033 12.0373 8.24338 12.5127 7.72949C12.988 7.2156 13.9837 6.95866 15.4997 6.95866C16.9643 6.95866 17.9535 7.2156 18.4674 7.72949C18.9813 8.24338 19.6879 8.50033 20.5872 8.50033C21.5636 8.50033 22.2894 8.24338 22.7648 7.72949C23.2401 7.2156 24.2358 6.95866 25.7518 6.95866C27.2163 6.95866 28.212 7.2156 28.7387 7.72949C29.2655 8.24338 29.9913 8.50033 30.9163 8.50033V11.5837C29.4004 11.5837 28.3919 11.3267 27.8908 10.8128C27.3898 10.2989 26.6768 10.042 25.7518 10.042C24.8268 10.042 24.1266 10.2989 23.6512 10.8128C23.1759 11.3267 22.1802 11.5837 20.6643 11.5837C19.1997 11.5837 18.204 11.3267 17.6773 10.8128C17.1505 10.2989 16.4247 10.042 15.4997 10.042C14.5233 10.042 13.8103 10.2989 13.3606 10.8128C12.911 11.3267 11.9281 11.5837 10.4122 11.5837C8.8962 11.5837 7.8877 11.3267 7.38665 10.8128C6.88561 10.2989 6.17259 10.042 5.24759 10.042C4.32259 10.042 3.59672 10.2989 3.06999 10.8128C2.54325 11.3267 1.54759 11.5837 0.0830078 11.5837ZM0.0830078 5.41699V2.33366C1.0594 2.33366 1.78526 2.07671 2.26061 1.56283C2.73596 1.04894 3.73162 0.791992 5.24759 0.791992C6.71217 0.791992 7.69499 1.04894 8.19603 1.56283C8.69707 2.07671 9.41009 2.33366 10.3351 2.33366C11.3115 2.33366 12.0373 2.07671 12.5127 1.56283C12.988 1.04894 13.9837 0.791992 15.4997 0.791992C16.9643 0.791992 17.9535 1.04894 18.4674 1.56283C18.9813 2.07671 19.6879 2.33366 20.5872 2.33366C21.5636 2.33366 22.2894 2.07671 22.7648 1.56283C23.2401 1.04894 24.2358 0.791992 25.7518 0.791992C27.2163 0.791992 28.212 1.04894 28.7387 1.56283C29.2655 2.07671 29.9913 2.33366 30.9163 2.33366V5.41699C29.4004 5.41699 28.3919 5.16005 27.8908 4.64616C27.3898 4.13227 26.6768 3.87533 25.7518 3.87533C24.8268 3.87533 24.1266 4.13227 23.6512 4.64616C23.1759 5.16005 22.1802 5.41699 20.6643 5.41699C19.1997 5.41699 18.204 5.16005 17.6773 4.64616C17.1505 4.13227 16.4247 3.87533 15.4997 3.87533C14.5233 3.87533 13.8103 4.13227 13.3606 4.64616C12.911 5.16005 11.9281 5.41699 10.4122 5.41699C8.8962 5.41699 7.8877 5.16005 7.38665 4.64616C6.88561 4.13227 6.17259 3.87533 5.24759 3.87533C4.32259 3.87533 3.59672 4.13227 3.06999 4.64616C2.54325 5.16005 1.54759 5.41699 0.0830078 5.41699Z" fill="white"/>
</svg>
