<svg xmlns="http://www.w3.org/2000/svg" width="17" height="17" viewBox="0 0 17 17">
  <g id="favicon" transform="translate(-1137.738 -262.471)">
    <path id="패스_24" data-name="패스 24" d="M24.238,20.472a8.5,8.5,0,1,1,8.5-8.5,8.51,8.51,0,0,1-8.5,8.5m0-16a7.5,7.5,0,1,0,7.5,7.5,7.508,7.508,0,0,0-7.5-7.5" transform="translate(1122 259)" fill="#555"/>
    <path id="패스_25" data-name="패스 25" d="M20.3,5.331H25.1a5.921,5.921,0,0,1,2.69.547A3.619,3.619,0,0,1,29.4,7.411a4.761,4.761,0,0,1,.527,2.276,4.663,4.663,0,0,1-.517,2.241,3.582,3.582,0,0,1-1.6,1.509,5.933,5.933,0,0,1-2.686.547H21.257v-1.6h3.789a4.316,4.316,0,0,0,1.8-.322,2.1,2.1,0,0,0,1.016-.918,3.13,3.13,0,0,0,.327-1.455,3.371,3.371,0,0,0-.327-1.5,2.1,2.1,0,0,0-1.026-.962,4.262,4.262,0,0,0-1.811-.332H22.058V19.472H20.3ZM30.476,19.472H28.425l-3.418-6.348H27Z" transform="translate(1122 259)" fill="#555"/>
  </g>
</svg>
