<svg width="183" height="55" viewBox="0 0 183 55" fill="none" xmlns="http://www.w3.org/2000/svg">
<path d="M22.2188 22.9219H4.03125V19.7344H22.2188V22.9219ZM26.8594 33.1406H0.859375V29.9375H26.8594V33.1406ZM23.7812 22.0156C23.7812 23.6615 23.7292 25.1302 23.625 26.4219C23.5312 27.7135 23.2917 29.1823 22.9062 30.8281L18.9062 30.7188C19.1771 29.625 19.375 28.5885 19.5 27.6094C19.6354 26.6198 19.7188 25.7448 19.75 24.9844C19.7812 24.224 19.8021 23.3125 19.8125 22.25V22.0156V19.7344H23.7812V22.0156ZM23.6875 46.5625H3.90625V36.1719H23.6875V46.5625ZM7.84375 43.3594H19.7188V39.2656H7.84375V43.3594ZM52.6413 25.2188H28.9694V22.0312H52.6413V25.2188ZM53.8756 43.9844H27.8756V40.7656H53.8756V43.9844ZM42.7663 42.0156H38.8131V36.9375H42.7663V42.0156ZM40.7975 26.4531C42.7558 26.4531 44.4642 26.6719 45.9225 27.1094C47.3913 27.5469 48.5163 28.1875 49.2975 29.0312C50.0892 29.8646 50.485 30.849 50.485 31.9844C50.485 33.1406 50.0892 34.1406 49.2975 34.9844C48.5163 35.8177 47.3965 36.4635 45.9381 36.9219C44.4798 37.3698 42.7663 37.599 40.7975 37.6094C38.7975 37.599 37.0683 37.3698 35.61 36.9219C34.1517 36.4635 33.0267 35.8177 32.235 34.9844C31.4538 34.1406 31.0683 33.1406 31.0788 31.9844C31.0683 30.8385 31.4538 29.849 32.235 29.0156C33.0267 28.1823 34.1517 27.5469 35.61 27.1094C37.0788 26.6719 38.8079 26.4531 40.7975 26.4531ZM40.7975 29.5625C39.5475 29.5729 38.5058 29.6667 37.6725 29.8438C36.8496 30.0104 36.2246 30.276 35.7975 30.6406C35.3704 30.9948 35.1621 31.4427 35.1725 31.9844C35.1621 32.526 35.3704 32.9792 35.7975 33.3438C36.2246 33.6979 36.8496 33.9688 37.6725 34.1562C38.5058 34.3333 39.5475 34.4219 40.7975 34.4219C42.0163 34.4219 43.0371 34.3333 43.86 34.1562C44.6933 33.9688 45.3235 33.6979 45.7506 33.3438C46.1777 32.9792 46.3913 32.526 46.3913 31.9844C46.3913 31.4427 46.1777 30.9948 45.7506 30.6406C45.3235 30.276 44.6933 30.0104 43.86 29.8438C43.0371 29.6667 42.0163 29.5729 40.7975 29.5625ZM42.7663 24.0156H38.8131V18.7188H42.7663V24.0156ZM80.8606 35.6719H54.8606V32.4844H80.8606V35.6719ZM70.1731 40.5781H66.2356V34.4844H70.1731V40.5781ZM77.5481 30.1562H58.095V19.6875H77.5481V30.1562ZM62.0013 27.0469H73.6263V22.7656H62.0013V27.0469ZM78.0013 46.3906H57.8919V43.1719H78.0013V46.3906ZM61.8919 44.2344H57.8919V38.0938H61.8919V44.2344ZM92.58 39.875H88.5644V35.2344H92.58V39.875ZM104.643 46.875H100.611V18.4062H104.643V46.875ZM108.346 33.2969H103.268V30.0156H108.346V33.2969ZM81.5644 38.8438C85.1894 38.8438 88.3977 38.8021 91.1894 38.7188C93.981 38.625 96.6529 38.3958 99.205 38.0312L99.4706 40.9375C97.606 41.2917 95.6633 41.5521 93.6425 41.7188C91.6321 41.8854 89.7467 41.9948 87.9863 42.0469C86.2363 42.0885 84.2727 42.1094 82.0956 42.1094L81.5644 38.8438ZM98.9706 24.7188H82.0956V21.5938H98.9706V24.7188ZM90.6113 25.8594C91.955 25.8594 93.1529 26.0833 94.205 26.5312C95.2675 26.9688 96.0956 27.5938 96.6894 28.4062C97.2935 29.2188 97.5956 30.151 97.5956 31.2031C97.5956 32.2448 97.2935 33.1719 96.6894 33.9844C96.0956 34.7865 95.2675 35.4115 94.205 35.8594C93.1529 36.3073 91.955 36.5312 90.6113 36.5312C89.2467 36.5312 88.0331 36.3073 86.9706 35.8594C85.9081 35.4115 85.08 34.7865 84.4863 33.9844C83.8925 33.1719 83.6008 32.2448 83.6113 31.2031C83.6008 30.151 83.8925 29.2188 84.4863 28.4062C85.08 27.5938 85.9081 26.9688 86.9706 26.5312C88.0331 26.0833 89.2467 25.8594 90.6113 25.8594ZM90.6113 28.875C89.955 28.875 89.3873 28.9688 88.9081 29.1562C88.429 29.3333 88.054 29.599 87.7831 29.9531C87.5123 30.2969 87.3821 30.7135 87.3925 31.2031C87.3821 31.6927 87.5123 32.1094 87.7831 32.4531C88.054 32.7865 88.429 33.0469 88.9081 33.2344C89.3873 33.4115 89.955 33.5 90.6113 33.5C91.2363 33.5 91.7883 33.4115 92.2675 33.2344C92.7467 33.0469 93.1165 32.7865 93.3769 32.4531C93.6477 32.1094 93.7831 31.6927 93.7831 31.2031C93.7831 30.724 93.6477 30.3073 93.3769 29.9531C93.1165 29.599 92.7467 29.3333 92.2675 29.1562C91.7883 28.9688 91.2363 28.875 90.6113 28.875ZM92.58 23.8906H88.5644V18.5781H92.58V23.8906ZM133.737 46.875H129.909V18.4062H133.737V46.875ZM131.206 32.6406H126.409V29.4062H131.206V32.6406ZM127.487 45.5625H123.721V18.8438H127.487V45.5625ZM117.096 25.4531C117.107 27.9323 116.904 30.1927 116.487 32.2344C116.081 34.276 115.409 36.0938 114.471 37.6875C113.534 39.2812 112.305 40.5312 110.784 41.4375L108.331 38.375C109.706 37.5833 110.82 36.5365 111.674 35.2344C112.539 33.9219 113.154 32.4479 113.518 30.8125C113.893 29.1771 114.081 27.3906 114.081 25.4531V22.8125H117.096V25.4531ZM117.956 25.4531C117.966 27.2344 118.159 28.8802 118.534 30.3906C118.919 31.901 119.539 33.2656 120.393 34.4844C121.258 35.6927 122.378 36.6562 123.753 37.375L121.456 40.4062C119.893 39.5833 118.622 38.4271 117.643 36.9375C116.674 35.4375 115.976 33.7292 115.549 31.8125C115.122 29.8854 114.909 27.7656 114.909 25.4531V22.8125H117.956V25.4531ZM122.315 24.5625H109.299V21.375H122.315V24.5625ZM158.488 39.0156H154.503V18.4531H158.488V39.0156ZM162.363 29.4844H157.3V26.2031H162.363V29.4844ZM139.409 31.0938C142.639 31.1042 145.149 31.0521 146.941 30.9375C148.743 30.8125 150.482 30.5729 152.159 30.2188L152.597 33.4219C150.857 33.776 149.045 34.0156 147.159 34.1406C145.274 34.2552 142.691 34.3125 139.409 34.3125H137.019V31.0938H139.409ZM149.863 23.9062H141.003V32.8438H137.019V20.7188H149.863V23.9062ZM159.503 46.3906H140.034V43.1719H159.503V46.3906ZM144.019 44.8125H140.034V36.8125H144.019V44.8125Z" fill="#454B52"/>
<path d="M154 11.4937C154 11.8936 154.058 12.308 154.218 12.7005C154.924 14.4453 156.721 15.5213 159.006 14.6125C159.552 14.3944 174.665 8.30951 174.665 8.30951C174.665 8.30951 168.713 23.3873 168.487 23.9471C167.622 26.1063 168.662 28.0619 170.43 28.7162C170.823 28.8616 171.231 28.9343 171.631 28.927C173.079 28.9197 174.352 28.0691 174.978 26.368C175.073 26.1135 182.516 5.69234 182.676 5.20526C182.771 4.91446 182.946 4.23109 182.946 3.75855C182.946 2.74803 182.575 1.79567 181.854 1.07595C181.148 0.363496 180.203 0 179.206 0C178.718 0 178.325 0.087239 177.729 0.276257C177.372 0.392575 158.184 7.52436 156.547 8.13503C154.91 8.74571 154 10.0543 154.007 11.4937" fill="#ED1C24"/>
</svg>
