<svg width="41" height="41" viewBox="0 0 41 41" fill="none" xmlns="http://www.w3.org/2000/svg">
<mask id="mask0_224_48" style="mask-type:alpha" maskUnits="userSpaceOnUse" x="0" y="0" width="41" height="41">
<rect width="41" height="41" fill="#D9D9D9"/>
</mask>
<g mask="url(#mask0_224_48)">
<path d="M18.792 22.2087H10.2503C9.7663 22.2087 9.36057 22.0449 9.03314 21.7175C8.70571 21.3901 8.54199 20.9844 8.54199 20.5003C8.54199 20.0163 8.70571 19.6106 9.03314 19.2831C9.36057 18.9557 9.7663 18.792 10.2503 18.792H18.792V10.2503C18.792 9.7663 18.9557 9.36057 19.2831 9.03314C19.6106 8.70571 20.0163 8.54199 20.5003 8.54199C20.9844 8.54199 21.3901 8.70571 21.7175 9.03314C22.0449 9.36057 22.2087 9.7663 22.2087 10.2503V18.792H30.7503C31.2344 18.792 31.6401 18.9557 31.9675 19.2831C32.2949 19.6106 32.4587 20.0163 32.4587 20.5003C32.4587 20.9844 32.2949 21.3901 31.9675 21.7175C31.6401 22.0449 31.2344 22.2087 30.7503 22.2087H22.2087V30.7503C22.2087 31.2344 22.0449 31.6401 21.7175 31.9675C21.3901 32.2949 20.9844 32.4587 20.5003 32.4587C20.0163 32.4587 19.6106 32.2949 19.2831 31.9675C18.9557 31.6401 18.792 31.2344 18.792 30.7503V22.2087Z" fill="#1D1D1D"/>
</g>
</svg>
