<svg width="256" height="256" viewBox="0 0 256 256" fill="none" xmlns="http://www.w3.org/2000/svg">
<path d="M6.2439 98.7161C6.2439 102.15 6.74333 105.709 8.11699 109.081C14.1736 124.066 29.596 133.307 49.2019 125.502C53.8848 123.629 183.571 71.3678 183.571 71.3678C183.571 71.3678 132.496 200.866 130.56 205.674C123.13 224.219 132.058 241.015 147.231 246.634C150.603 247.883 154.099 248.507 157.534 248.445C169.959 248.382 180.886 241.077 186.256 226.466C187.067 224.281 250.942 48.8898 252.316 44.7063C253.128 42.2088 254.626 36.3395 254.626 32.281C254.626 23.602 251.442 15.4224 245.26 9.24098C239.204 3.12195 231.087 0 222.533 0C218.349 0 214.978 0.749268 209.858 2.37268C206.798 3.37171 42.1463 64.6244 28.0976 69.8693C14.0488 75.1141 6.24386 86.3532 6.3063 98.7161" fill="#ED1C24"/>
</svg>
