<svg width="163" height="63" viewBox="0 0 163 63" fill="none" xmlns="http://www.w3.org/2000/svg">
<path d="M33.3723 40.2139C30.4209 40.2178 27.9912 42.5267 27.9912 45.4158C27.9912 48.3049 30.4209 50.5905 33.3723 50.5983C36.3509 50.5866 38.7611 48.2777 38.7611 45.4158C38.7611 42.554 36.3509 40.2178 33.3723 40.2139ZM33.2983 48.2271C31.7564 48.2271 30.5883 46.9655 30.5883 45.4197C30.5883 43.8739 31.8343 42.5851 33.3684 42.5851C34.9025 42.5851 36.1056 43.8428 36.1056 45.4197C36.1056 46.9967 34.8441 48.2271 33.2944 48.2271H33.2983Z" fill="#004289"/>
<path d="M8.67122 36.6317C9.49668 37.4454 10.439 38.1541 11.3618 38.6135L11.4591 38.6642L13.0477 36.7835L12.8959 36.6979C11.3851 35.8802 10.2014 34.8484 9.43049 33.544C8.66343 32.263 8.27017 30.7678 8.27017 28.9884V27.3141H5.42779V28.8093C5.42779 30.7405 4.9878 32.2591 4.17013 33.5907C3.25122 35.0625 1.89233 36.2501 0.151853 37.3481L0 37.4415L1.72879 39.2287L1.82224 39.1742C2.84628 38.6135 3.93651 37.753 4.88657 36.7952C5.70813 35.9581 6.42068 35.0547 6.84898 34.202C7.2656 35.0352 7.90806 35.888 8.67512 36.62L8.67122 36.6317Z" fill="#004289"/>
<path d="M5.59863 49.3717H17.5055V41.2378H5.59863V49.3717ZM8.2697 43.5351H14.8228V47.0783H8.2697V43.5351Z" fill="#004289"/>
<path d="M17.5491 26.8352H14.9053V40.3073H17.5491V34.3461H20.6523V31.9515H17.5491V26.8352Z" fill="#004289"/>
<path d="M85.0731 37.3209C85.9414 38.0763 86.9382 38.7109 87.8727 39.1198L87.97 39.1665L89.399 37.2313L89.2471 37.1574C87.8843 36.4565 86.6656 35.5921 85.7934 34.5408C84.9018 33.4623 84.3722 32.1657 84.3722 30.6004V30.1409H88.3088V27.8203H77.6128V30.1409H81.5493V30.6977C81.5493 32.1189 81.0743 33.4467 80.2956 34.5953C79.3767 35.9737 78.0333 37.0873 76.7328 37.8037L76.5615 37.8972L78.3176 39.7155L78.4149 39.6688C79.365 39.1314 80.4085 38.3177 81.304 37.4065C82.0205 36.6551 82.6629 35.8608 83.0562 35.0703C83.5312 35.8374 84.2593 36.6083 85.0731 37.3248V37.3209Z" fill="#004289"/>
<path d="M104.222 43.5896H113.847V49.3717H116.522V41.2885H104.222V43.5896Z" fill="#004289"/>
<path d="M110.865 34.3266C110.865 33.0533 110.297 31.8813 109.448 30.9858H112.092V28.6924H107.045V26.1654H104.18V28.6924H99.0127V30.9858H101.711C100.889 31.8813 100.313 33.0416 100.313 34.3266C100.313 37.165 102.653 39.474 105.581 39.4818C108.509 39.474 110.865 37.165 110.869 34.3266H110.865ZM102.864 34.2214C102.864 32.6484 104.191 31.3167 105.577 31.3167C106.964 31.3167 108.287 32.6562 108.291 34.2214C108.291 35.7672 106.964 37.1027 105.577 37.1066C104.187 37.1027 102.864 35.7672 102.864 34.2214Z" fill="#004289"/>
<path d="M116.522 26.8352H113.878V40.3541H116.522V35.1949H119.629V32.8042H116.522V26.8352Z" fill="#004289"/>
<path d="M94.095 26.8352H91.4473V40.3541H94.095V34.3461H97.1982V31.9515H94.095V26.8352Z" fill="#004289"/>
<path d="M154.263 37.0288H145.316V30.2149H152.133V27.8164H142.637V39.3573H154.263V37.0288Z" fill="#004289"/>
<path d="M36.6086 30.8457H32.4463V33.2169H36.6086V40.7785H39.2563V26.8352H36.6086V30.8457Z" fill="#004289"/>
<path d="M29.8803 36.9821C30.7057 37.7959 31.6675 38.5045 32.5942 38.9835L32.6954 39.0419L34.2879 37.1612L34.1322 37.0717C32.6214 36.2851 31.4611 35.2533 30.6863 33.9684C29.8958 32.6952 29.5026 31.1455 29.5026 29.3622V27.318H26.6524V29.1947C26.6524 31.126 26.2202 32.6407 25.4181 33.9489C24.4992 35.448 23.1208 36.6395 21.3765 37.7336L21.2285 37.827L22.9612 39.622L23.0469 39.5675C24.0748 39.0068 25.1378 38.193 26.0839 37.2624C26.9366 36.4097 27.6531 35.4869 28.0814 34.5914C28.4902 35.4013 29.1171 36.2345 29.8725 36.9821H29.8803Z" fill="#004289"/>
<path d="M88.4133 40.2139C85.4619 40.2178 83.0322 42.5267 83.0283 45.4158C83.0322 48.2777 85.4619 50.5905 88.4133 50.5983C91.388 50.5866 93.8021 48.2777 93.8021 45.4158C93.8021 42.554 91.388 40.2178 88.4133 40.2139ZM88.3354 48.2271C86.7974 48.2271 85.6254 46.9655 85.6254 45.4197C85.6254 43.8739 86.8675 42.5851 88.4133 42.5851C89.9591 42.5851 91.1466 43.8428 91.1505 45.4197C91.1466 46.9655 89.8851 48.2271 88.3354 48.2271Z" fill="#004289"/>
<path d="M149.206 42.1918H146.527V49.3717H159.049V47.0044H149.206V42.1918Z" fill="#004289"/>
<path d="M158.987 33.0807V26.8352H156.343V43.4573H158.987V35.4675H162.117V33.0807H158.987Z" fill="#004289"/>
<path d="M136.59 32.9249H134.363V27.2168H131.863V48.7917H134.363V35.522H136.59V49.3718H139.187V26.8352H136.59V32.9249Z" fill="#004289"/>
<path d="M128.188 35.9153C127.592 34.6109 127.347 33.1585 127.347 31.3675V30.5147H130.349V28.0851H121.619V30.5147H124.719V31.4103C124.719 33.104 124.497 34.4863 123.96 35.7712C123.34 37.243 122.297 38.5747 120.634 39.992L120.518 40.101L122.161 41.7285L122.262 41.6507C123.087 41.0394 123.952 40.1555 124.676 39.2444C125.283 38.4734 125.797 37.6791 126.124 36.9782C126.455 37.6596 126.973 38.4423 127.577 39.1743C128.282 40.0309 129.072 40.8447 129.831 41.3275L129.936 41.3976L131.319 39.7428L131.21 39.6415C129.722 38.3449 128.799 37.1885 128.192 35.9114L128.188 35.9153Z" fill="#004289"/>
<path d="M7.51864 57.1475C6.2493 56.6958 6.01178 56.3921 6.01178 55.8704C6.01178 55.3486 6.37779 54.9359 7.24608 54.9359C7.88075 54.9359 8.30905 55.1423 8.76851 55.5239L9.22017 54.9671C8.68674 54.5426 8.14162 54.2896 7.2928 54.2896C6.10523 54.2896 5.30313 54.8931 5.30313 55.9132C5.30313 56.8282 5.77037 57.2682 7.13706 57.7627C8.29737 58.1793 8.6517 58.5181 8.6517 59.1021C8.6517 59.7757 8.12605 60.1885 7.28112 60.1885C6.62698 60.1885 6.07408 59.8887 5.59516 59.4292L5.12402 59.9549C5.62241 60.4571 6.39726 60.8309 7.25776 60.8309C8.58161 60.8309 9.36034 60.06 9.36034 59.0671C9.36034 58.0742 8.92815 57.6498 7.52253 57.1397L7.51864 57.1475Z" fill="#004289"/>
<path d="M12.2376 55.8821C11.6185 55.8821 11.0539 56.0339 10.6373 56.2598L10.8943 56.8127C11.2837 56.5868 11.6925 56.4467 12.1909 56.4467C12.884 56.4467 13.2266 56.7893 13.2266 57.5018V58.0664C12.9463 57.9107 12.5179 57.79 12.0351 57.79C11.0929 57.79 10.2129 58.2455 10.2129 59.3163C10.2129 60.4649 10.9955 60.8348 11.7353 60.8348C12.4167 60.8348 12.884 60.5194 13.2227 60.1573V60.7375H13.9002V57.4201C13.9002 56.3143 13.2577 55.8821 12.2376 55.8821ZM13.2227 59.5694C12.9346 59.9665 12.4673 60.2858 11.8521 60.2858C11.272 60.2858 10.8787 59.9743 10.8787 59.2657C10.8787 58.67 11.2992 58.3273 11.9962 58.3273C12.5764 58.3273 12.9112 58.4324 13.2188 58.6038V59.5655L13.2227 59.5694Z" fill="#004289"/>
<path d="M20.7341 57.9535V60.7375H21.4155V57.8367C21.4155 56.4467 20.812 55.8821 19.8385 55.8821C19.0676 55.8821 18.6782 56.2403 18.3979 56.6959C18.172 56.2403 17.7632 55.8821 17.0935 55.8821C16.5289 55.8821 16.1279 56.1507 15.8865 56.5635V55.9833H15.2012V60.7414H15.8865V57.9574C15.8865 56.9022 16.2953 56.47 16.9494 56.47C17.6036 56.47 17.9735 56.8672 17.9735 57.9574V60.7414H18.6549V57.9574C18.6549 56.9022 19.0676 56.47 19.7139 56.47C20.4031 56.47 20.738 56.8672 20.738 57.9574L20.7341 57.9535Z" fill="#004289"/>
<path d="M24.1404 57.9769C23.3344 57.6109 23.093 57.4512 23.093 57.0502C23.093 56.7075 23.3811 56.4583 23.8834 56.4583C24.3857 56.4583 24.6972 56.5946 25.0671 56.8866L25.4487 56.3844C25.0866 56.0845 24.5804 55.8821 23.9224 55.8821C23.0619 55.8821 22.4389 56.3688 22.4389 57.093C22.4389 57.8562 22.836 58.1443 23.79 58.5531C24.631 58.9153 24.9152 59.1333 24.9152 59.5227C24.9152 59.986 24.6076 60.2586 23.9535 60.2586C23.4824 60.2586 23.0385 60.0639 22.6569 59.7329L22.2559 60.2313C22.7114 60.5973 23.2799 60.8387 23.934 60.8387C24.7595 60.8387 25.5655 60.4338 25.5655 59.4993C25.5655 58.6466 25.0398 58.3857 24.1404 57.9808V57.9769Z" fill="#004289"/>
<path d="M29.5411 58.7594C29.5411 59.803 29.0194 60.2429 28.3653 60.2429C27.5982 60.2429 27.2361 59.7835 27.2361 58.7594V55.9794H26.5586V58.8763C26.5586 60.2429 27.2166 60.8309 28.2212 60.8309C28.8247 60.8309 29.2647 60.5505 29.5373 60.1534V60.7335H30.2187V55.9755H29.5373V58.7555L29.5411 58.7594Z" fill="#004289"/>
<path d="M35.0272 60.7375V57.8367C35.0272 56.4661 34.3653 55.8821 33.3568 55.8821C32.7611 55.8821 32.3172 56.1585 32.0486 56.5635V55.9833H31.3633V60.7414H32.0486V57.9574C32.0486 56.9178 32.5586 56.47 33.2245 56.47C33.9837 56.47 34.3497 56.9334 34.3497 57.9574V60.7414H35.0311L35.0272 60.7375Z" fill="#004289"/>
<path d="M37.169 61.9718L37.3871 62.4897C39.1548 62.4312 39.7973 61.746 39.7973 60.3131V55.9794H39.1198V56.5129C38.7849 56.1313 38.38 55.8821 37.7803 55.8821C36.7797 55.8821 35.9814 56.7465 35.9814 58.4363C35.9814 60.1262 36.7368 60.8348 37.6908 60.8348C38.3332 60.8348 38.7888 60.5194 39.1236 60.1573V60.4026C39.1236 61.5084 38.7615 61.9251 37.1729 61.9718H37.169ZM37.8582 60.2469C37.1067 60.2469 36.6512 59.6239 36.6512 58.4285C36.6512 57.1475 37.0405 56.47 37.8309 56.47C38.3955 56.47 38.855 56.7893 39.1159 57.1826V59.5616C38.781 59.9821 38.3644 60.2469 37.8543 60.2469H37.8582Z" fill="#004289"/>
<path d="M47.3007 57.5213C47.3007 55.3447 46.0742 54.3907 44.4077 54.3907H42.7295V60.7374H44.2792C45.9768 60.7374 47.3007 59.8224 47.3007 57.5174V57.5213ZM43.4381 55.0332H44.3532C45.8133 55.0332 46.592 55.9249 46.592 57.5446C46.592 59.3708 45.7393 60.095 44.3687 60.095H43.4342V55.0332H43.4381Z" fill="#004289"/>
<path d="M49.115 56.5713V55.9833H48.4336V60.7414H49.115V57.9497C49.115 57.0385 49.4849 56.5129 50.1507 56.5129C50.4661 56.5129 50.6764 56.583 50.8632 56.692L51.0346 56.0067C50.8749 55.9327 50.6452 55.8899 50.2948 55.8899C49.7847 55.8899 49.3291 56.1936 49.1189 56.5791L49.115 56.5713Z" fill="#004289"/>
<path d="M55.1035 60.2858L54.7881 59.7952C54.352 60.0873 54.0249 60.2469 53.4681 60.2469C52.6933 60.2469 52.2105 59.6044 52.1443 58.5921H55.3176C55.341 58.4792 55.3488 58.3818 55.3488 58.2183C55.3488 56.8594 54.6752 55.8821 53.4331 55.8821C52.3 55.8821 51.4668 56.8205 51.4668 58.3312C51.4668 60.2041 52.5259 60.8348 53.3981 60.8348C54.1145 60.8348 54.535 60.644 55.1074 60.2858H55.1035ZM53.4253 56.4661C54.2586 56.4661 54.6596 57.1086 54.7141 58.0353H52.1443C52.2222 56.9723 52.7167 56.4661 53.4253 56.4661Z" fill="#004289"/>
<path d="M57.6113 60.8348C58.2927 60.8348 58.7638 60.5194 59.0987 60.1573V60.7375H59.7801V57.4201C59.7801 56.3143 59.1376 55.8821 58.1097 55.8821C57.4906 55.8821 56.9299 56.0339 56.5133 56.2598L56.7703 56.8127C57.1596 56.5868 57.5685 56.4467 58.0669 56.4467C58.7638 56.4467 59.0987 56.7893 59.0987 57.5018V58.0664C58.8222 57.9107 58.3939 57.79 57.9189 57.79C56.9727 57.79 56.0889 58.2455 56.0889 59.3163C56.0889 60.4649 56.8715 60.8348 57.6113 60.8348ZM57.8761 58.3312C58.4523 58.3312 58.7911 58.4363 59.0987 58.6077V59.5694C58.8105 59.9665 58.3472 60.2858 57.7359 60.2858C57.1246 60.2858 56.7625 59.9743 56.7625 59.2657C56.7625 58.67 57.183 58.3273 57.88 58.3273L57.8761 58.3312Z" fill="#004289"/>
<path d="M66.6091 57.9535V60.7375H67.2866V57.8367C67.2866 56.4467 66.6831 55.8821 65.7097 55.8821C64.9387 55.8821 64.5493 56.2403 64.269 56.6959C64.0432 56.2403 63.6382 55.8821 62.9646 55.8821C62.4 55.8821 62.0029 56.1507 61.7576 56.5635V55.9833H61.0801V60.7414H61.7576V57.9574C61.7576 56.9022 62.1664 56.47 62.8206 56.47C63.4747 56.47 63.8446 56.8672 63.8446 57.9574V60.7414H64.5221V57.9574C64.5221 56.9022 64.9387 56.47 65.5851 56.47C66.2703 56.47 66.6091 56.8672 66.6091 57.9574V57.9535Z" fill="#004289"/>
<path d="M72.3761 57.1475C71.1067 56.6959 70.8731 56.396 70.8731 55.8704C70.8731 55.3448 71.2352 54.9359 72.1035 54.9359C72.7421 54.9359 73.1665 55.1423 73.6259 55.5239L74.0776 54.971C73.5442 54.5465 72.999 54.2935 72.1502 54.2935C70.9626 54.2935 70.1644 54.8931 70.1644 55.9132C70.1644 56.8282 70.6239 57.2721 71.9984 57.7588C73.1587 58.1793 73.513 58.5142 73.513 59.1021C73.513 59.7719 72.9874 60.1885 72.1424 60.1885C71.4883 60.1885 70.9354 59.8848 70.4526 59.4253L69.9814 59.9471C70.4798 60.4572 71.2547 60.827 72.1113 60.827C73.4312 60.827 74.2139 60.0561 74.2139 59.0632C74.2139 58.0703 73.7817 57.6459 72.3761 57.1358V57.1475Z" fill="#004289"/>
<path d="M77.1029 56.47C77.5818 56.47 77.9011 56.6413 78.2437 56.9528L78.6526 56.4428C78.2788 56.1157 77.7882 55.8821 77.1457 55.8821C76.1489 55.8821 75.0977 56.6219 75.0977 58.3857C75.0977 60.0444 76.0516 60.8387 77.1029 60.8387C77.7687 60.8387 78.2321 60.5856 78.6331 60.1768L78.2243 59.7446C77.9011 60.06 77.5896 60.2508 77.1302 60.2508C76.2852 60.2508 75.7868 59.4993 75.7868 58.3273C75.7868 57.1553 76.3631 56.47 77.1068 56.47H77.1029Z" fill="#004289"/>
<path d="M81.5649 55.8821C80.9691 55.8821 80.5213 56.1585 80.2488 56.5635V54.3246H79.5713V60.7414H80.2488V57.9574C80.2488 56.9139 80.7705 56.47 81.4286 56.47C82.1917 56.47 82.55 56.9295 82.55 57.9574V60.7414H83.2314V57.8367C83.2314 56.47 82.5694 55.8821 81.561 55.8821H81.5649Z" fill="#004289"/>
<path d="M86.2687 55.8821C85.1122 55.8821 84.1855 56.7465 84.1855 58.3662C84.1855 59.986 85.0733 60.8387 86.2336 60.8387C87.3939 60.8387 88.3206 59.9432 88.3206 58.3273C88.3206 56.7114 87.4251 55.8821 86.2687 55.8821ZM86.257 60.2508C85.4315 60.2508 84.8747 59.6005 84.8747 58.3468C84.8747 57.093 85.4315 56.47 86.257 56.47C87.0824 56.47 87.6392 57.0969 87.6392 58.3468C87.6392 59.5966 87.0785 60.2508 86.257 60.2508Z" fill="#004289"/>
<path d="M90.03 54.3246H89.3486V60.7414H90.03V54.3246Z" fill="#004289"/>
<path d="M93.137 55.8821C92.5218 55.8821 91.9572 56.0378 91.5445 56.2637L91.7976 56.8205C92.187 56.5907 92.5958 56.4545 93.0942 56.4545C93.7912 56.4545 94.126 56.801 94.126 57.5018V58.0703C93.8457 57.9107 93.4174 57.7939 92.9423 57.7939C91.9962 57.7939 91.1162 58.2494 91.1162 59.3202C91.1162 60.4727 91.8949 60.8387 92.6386 60.8387C93.32 60.8387 93.7912 60.5272 94.126 60.1612V60.7414H94.8074V57.424C94.8074 56.3143 94.165 55.8821 93.137 55.8821ZM94.126 59.5694C93.8379 59.9665 93.3707 60.2858 92.7593 60.2858C92.1831 60.2858 91.7898 59.9743 91.7898 59.2696C91.7898 58.67 92.2103 58.3351 92.9073 58.3351C93.4875 58.3351 93.8223 58.4363 94.1299 58.6077V59.5694H94.126Z" fill="#004289"/>
<path d="M96.7849 56.5713V55.9794H96.1035V60.7414H96.7849V57.9496C96.7849 57.0424 97.1548 56.509 97.8167 56.509C98.136 56.509 98.3424 56.579 98.5332 56.6881L98.7045 55.9989C98.5448 55.9288 98.3151 55.8821 97.9647 55.8821C97.4546 55.8821 96.9991 56.1858 96.7849 56.5713Z" fill="#004289"/>
<path d="M101.317 57.977C100.507 57.611 100.266 57.4474 100.266 57.0464C100.266 56.7038 100.558 56.4546 101.056 56.4546C101.555 56.4546 101.874 56.5947 102.244 56.8829L102.625 56.3845C102.259 56.0847 101.757 55.8783 101.103 55.8783C100.239 55.8783 99.6156 56.365 99.6156 57.0931C99.6156 57.8563 100.017 58.1444 100.971 58.5494C101.812 58.9115 102.096 59.1295 102.096 59.5189C102.096 59.9861 101.784 60.2548 101.138 60.2548C100.663 60.2548 100.219 60.0601 99.8376 59.7291L99.4404 60.2275C99.8921 60.5935 100.464 60.835 101.119 60.835C101.94 60.835 102.75 60.43 102.75 59.4955C102.75 58.6389 102.224 58.3819 101.325 57.9731L101.317 57.977Z" fill="#004289"/>
<path d="M105.846 55.8821C105.246 55.8821 104.803 56.1585 104.53 56.5635V54.3246H103.853V60.7414H104.53V57.9574C104.53 56.9139 105.048 56.47 105.71 56.47C106.469 56.47 106.831 56.9295 106.831 57.9574V60.7414H107.513V57.8367C107.513 56.47 106.851 55.8821 105.846 55.8821Z" fill="#004289"/>
<path d="M109.533 55.9795H108.855V60.7415H109.533V55.9795Z" fill="#004289"/>
<path d="M109.21 54.1572C108.93 54.1572 108.712 54.3753 108.712 54.6517C108.712 54.9126 108.93 55.1306 109.21 55.1306C109.459 55.1306 109.681 54.9126 109.681 54.6517C109.681 54.3753 109.459 54.1572 109.21 54.1572Z" fill="#004289"/>
<path d="M113.018 55.8821C112.375 55.8821 111.92 56.1975 111.585 56.5635V55.9833H110.907V62.4935H111.585V60.208C111.92 60.5856 112.328 60.8387 112.928 60.8387C113.925 60.8387 114.723 59.9665 114.723 58.2845C114.723 56.6024 113.968 55.8821 113.018 55.8821ZM112.874 60.2508C112.313 60.2508 111.849 59.9315 111.585 59.5343V57.1592C111.92 56.7465 112.34 56.47 112.846 56.47C113.602 56.47 114.057 57.0969 114.057 58.2923C114.057 59.5694 113.668 60.2508 112.874 60.2508Z" fill="#004289"/>
<path d="M118.325 55.0371H121.346V54.3947H117.616V60.7414H118.325V57.7822H120.065V57.1436H118.325V55.0371Z" fill="#004289"/>
<path d="M123.414 55.8821C122.258 55.8821 121.327 56.7465 121.327 58.3662C121.327 59.986 122.219 60.8387 123.375 60.8387C124.532 60.8387 125.462 59.9432 125.462 58.3273C125.462 56.7114 124.574 55.8821 123.414 55.8821ZM123.395 60.2508C122.569 60.2508 122.016 59.6005 122.016 58.3468C122.016 57.093 122.569 56.47 123.395 56.47C124.22 56.47 124.785 57.0969 124.785 58.3468C124.785 59.5966 124.224 60.2508 123.395 60.2508Z" fill="#004289"/>
<path d="M129.22 58.7596C129.22 59.8031 128.706 60.247 128.044 60.247C127.281 60.247 126.919 59.7875 126.919 58.7596V55.9795H126.237V58.8803C126.237 60.2509 126.899 60.8388 127.908 60.8388C128.5 60.8388 128.943 60.5623 129.216 60.1613V60.7415H129.897V55.9795H129.216V58.7596H129.22Z" fill="#004289"/>
<path d="M133.036 55.8821C132.44 55.8821 131.996 56.1585 131.719 56.5635V55.9833H131.038V60.7453H131.719V57.9613C131.719 56.9178 132.237 56.4739 132.899 56.4739C133.662 56.4739 134.025 56.9334 134.025 57.9613V60.7453H134.702V57.8406C134.702 56.4739 134.04 55.886 133.032 55.886L133.036 55.8821Z" fill="#004289"/>
<path d="M138.798 56.5167C138.464 56.1351 138.055 55.8821 137.455 55.8821C136.458 55.8821 135.66 56.7464 135.66 58.4402C135.66 60.1339 136.412 60.8387 137.366 60.8387C138.008 60.8387 138.46 60.5272 138.798 60.1612V60.7414H139.48V54.3246H138.798V56.5206V56.5167ZM138.798 59.5616C138.464 59.9782 138.043 60.2508 137.537 60.2508C136.785 60.2508 136.33 59.6278 136.33 58.4285C136.33 57.1475 136.719 56.47 137.51 56.47C138.074 56.47 138.53 56.7854 138.798 57.1864V59.5616Z" fill="#004289"/>
<path d="M142.365 55.8821C141.745 55.8821 141.185 56.0378 140.768 56.2637L141.021 56.8205C141.414 56.5907 141.823 56.4545 142.318 56.4545C143.015 56.4545 143.35 56.801 143.35 57.5018V58.0703C143.069 57.9107 142.641 57.7939 142.162 57.7939C141.224 57.7939 140.34 58.2494 140.34 59.3202C140.34 60.4727 141.122 60.8387 141.866 60.8387C142.548 60.8387 143.015 60.5272 143.35 60.1612V60.7414H144.031V57.424C144.031 56.3143 143.389 55.8821 142.365 55.8821ZM143.35 59.5694C143.062 59.9665 142.598 60.2858 141.979 60.2858C141.403 60.2858 141.013 59.9743 141.013 59.2696C141.013 58.67 141.43 58.3351 142.127 58.3351C142.707 58.3351 143.042 58.4363 143.35 58.6077V59.5694Z" fill="#004289"/>
<path d="M146.2 54.3246H145.519V55.9833H144.931V56.5557H145.519V59.7679C145.519 60.5545 145.838 60.8426 146.43 60.8426C146.788 60.8426 147.041 60.792 147.306 60.6791L147.353 60.0911C147.134 60.1807 146.955 60.2274 146.679 60.2274C146.317 60.2274 146.2 60.0833 146.2 59.655V56.5557H147.38V55.9833H146.2V54.3246Z" fill="#004289"/>
<path d="M148.921 54.1572C148.641 54.1572 148.419 54.3753 148.419 54.6517C148.419 54.9126 148.641 55.1306 148.921 55.1306C149.178 55.1306 149.396 54.9126 149.396 54.6517C149.396 54.3753 149.178 54.1572 148.921 54.1572Z" fill="#004289"/>
<path d="M149.245 55.9795H148.567V60.7415H149.245V55.9795Z" fill="#004289"/>
<path d="M152.359 55.8821C151.203 55.8821 150.276 56.7465 150.276 58.3662C150.276 59.986 151.164 60.8387 152.324 60.8387C153.485 60.8387 154.408 59.9432 154.408 58.3273C154.408 56.7114 153.52 55.8821 152.359 55.8821ZM152.336 60.2508C151.515 60.2508 150.962 59.6005 150.962 58.3468C150.962 57.093 151.515 56.47 152.336 56.47C153.158 56.47 153.726 57.0969 153.726 58.3468C153.726 59.5966 153.165 60.2508 152.336 60.2508Z" fill="#004289"/>
<path d="M157.382 55.8821C156.783 55.8821 156.339 56.1585 156.066 56.5635V55.9833H155.385V60.7453H156.066V57.9613C156.066 56.9178 156.584 56.4739 157.246 56.4739C158.013 56.4739 158.371 56.9334 158.371 57.9613V60.7453H159.049V57.8406C159.049 56.4739 158.387 55.886 157.382 55.886V55.8821Z" fill="#004289"/>
<path d="M87.1245 10.5635L81.8953 8.39866L87.1245 6.23378L86.1939 3.99102L80.9647 6.15591L83.1335 0.926696L80.8907 0L78.7258 5.22921L76.557 0L74.3182 0.926696L76.4831 6.15591L71.2538 3.99102L70.3271 6.23378L75.5525 8.39866L70.3271 10.5635L71.2538 12.8063L76.4831 10.6375L74.3182 15.8667L76.5609 16.7973L78.7258 11.5681L80.8907 16.7973L83.1335 15.8667L80.9647 10.6375L86.1939 12.8063L87.1245 10.5635Z" fill="#009FE3"/>
<path d="M53.2765 25.1609H56.7575V15.8667H44.8623V18.9972H53.2765V25.1609Z" fill="#009FE3"/>
<path d="M66.8498 25.1609H70.3268V15.8667H58.4316V18.9972H66.8498V25.1609Z" fill="#009FE3"/>
<path d="M44.3018 29.9657H66.85V34.7511H70.3271V26.8352H44.3018V29.9657Z" fill="#009FE3"/>
<path d="M52.7158 49.3718H70.323V36.363H52.7158V49.3718ZM56.1968 39.4936H66.8499V46.2413H56.1968V39.4936Z" fill="#009FE3"/>
</svg>
