<svg width="16" height="16" viewBox="0 0 16 16" fill="none" xmlns="http://www.w3.org/2000/svg">
<mask id="mask0_29_582" style="mask-type:alpha" maskUnits="userSpaceOnUse" x="0" y="0" width="16" height="16">
<rect width="15.4" height="15.4" transform="matrix(-4.37114e-08 1 1 4.37114e-08 0 0)" fill="#D9D9D9"/>
</mask>
<g mask="url(#mask0_29_582)">
<path d="M7.70038 6.12794L12.4166 10.8442C12.577 11.0046 12.7642 11.0821 12.9781 11.0768C13.192 11.0714 13.3791 10.9886 13.5395 10.8281C13.7 10.6677 13.7802 10.4806 13.7802 10.2667C13.7802 10.0528 13.7 9.86564 13.5395 9.70523L8.61475 4.76439C8.48642 4.63606 8.34204 4.53981 8.18163 4.47564C8.02121 4.41148 7.86079 4.37939 7.70038 4.37939C7.53996 4.37939 7.37954 4.41148 7.21913 4.47564C7.05871 4.53981 6.91434 4.63606 6.786 4.76439L1.84517 9.70523C1.68475 9.86564 1.60722 10.0555 1.61256 10.2747C1.61791 10.4939 1.70079 10.6838 1.86121 10.8442C2.02163 11.0046 2.20878 11.0848 2.42267 11.0848C2.63656 11.0848 2.82371 11.0046 2.98413 10.8442L7.70038 6.12794Z" fill="white"/>
</g>
</svg>
