<svg width="77" height="77" viewBox="0 0 77 77" fill="none" xmlns="http://www.w3.org/2000/svg">
<path d="M76.7482 36.9669C76.7482 37.7305 76.1647 37.7305 74.1001 38.3593C73.2474 38.6288 72.7985 39.9764 72.1253 42.1324C70.6442 46.669 65.9316 53.9905 56.1473 53.9905C46.3631 53.9905 41.2016 45.6359 40.8426 45.1868C40.3489 44.513 39.541 43.8842 38.8678 43.8842C38.419 43.8842 38.1048 44.0638 37.8355 44.2435C34.2898 46.669 30.43 49.409 30.43 55.6974C30.43 59.8298 33.8859 64.5461 39.7205 64.5461C44.7024 64.5461 47.9788 59.8298 49.0111 56.5508C49.3702 55.4279 49.2804 54.9787 49.8639 54.9787C50.6269 54.9787 50.8961 56.6856 51.9284 56.6856C52.7812 56.6856 52.5119 56.2364 53.6339 56.2364C54.6662 56.2364 54.9355 57.6288 55.7883 57.6288C57.0001 57.6288 58.6158 56.5957 59.4237 56.5957C59.693 56.5957 60.0969 56.5957 60.0969 56.8652C60.0969 57.3144 59.334 57.7187 58.6158 58.3475C57.1347 59.6501 56.0576 60.4137 54.9355 62.3002C50.9859 68.9929 46.408 70.2057 44.0741 70.9243C43.2213 71.1939 42.3686 71.5981 42.0095 72.4066C40.7079 75.3262 39.9449 75.6856 39.5859 75.6856C39.1371 75.6856 39.0024 75.1915 38.9127 74.0686C38.8229 72.8558 38.1497 71.4634 35.8158 71.0591C29.8914 69.9362 22.5756 63.9173 22.5756 54.4397C22.5756 45.9054 29.0386 42.5816 32.315 39.3026C32.7638 38.8534 33.078 38.3593 33.078 37.5957V37.3262C33.078 36.922 32.9882 36.383 32.4497 35.7092C29.1733 31.5768 26.7048 28.8369 22.2166 28.8369C17.3244 28.8369 13.0158 32.8794 13.0158 38.7187C13.0158 45.0071 16.1126 47.1631 19.2095 47.9267C20.2418 48.1962 20.6008 48.2861 20.6008 48.6005C20.6008 49.2742 19.9276 49.1395 19.9276 50.1726C19.9276 50.9362 20.5111 50.8463 20.5111 52.0591C20.5111 52.9125 19.7481 53.182 19.7481 54.4846C19.7481 55.5177 20.2418 55.8771 20.2418 56.461C20.2418 57.2246 20.6906 57.1347 20.6906 58.7967C20.6906 59.2459 20.8701 59.5603 20.5111 59.5603C20.152 59.5603 19.7481 58.9764 19.2095 58.1679C17.9977 56.3712 16.6961 55.2482 15.7536 54.5296C8.25828 49.0946 7.98899 46.7139 6.10395 42.9858C5.65513 42.1324 5.52048 40.6501 4.62284 40.2459C1.88504 38.8534 0 38.4492 0 36.2033C0 35.1702 1.21181 36.2033 3.09686 36.2033C4.12914 36.2033 5.34095 36.383 5.92442 34.227C7.226 29.6454 12.6118 22.3239 22.0819 22.3239C32.1355 22.3239 37.1174 30.6785 37.4764 31.1277C38.1497 32.0709 38.778 32.4303 39.4512 32.4303C39.9001 32.4303 40.2142 32.4303 40.9772 31.7565C47.3505 26.0969 47.8442 23.5816 47.8442 20.3026C47.8442 16.1702 44.5678 11.3641 38.7331 11.3641C32.8985 11.3641 30.1158 15.9905 29.3528 19.4492C29.0835 20.5721 28.904 21.156 28.4103 21.156C27.6473 21.156 27.6473 20.1229 26.7945 20.1229C25.4032 20.1229 25.2685 20.7069 24.5504 20.7069C23.6079 20.7069 23.6079 19 22.2166 19C21.8575 19 21.0945 19.4492 20.6008 19.4492C19.2992 19.4492 19.2095 19.7187 18.626 19.7187C17.9528 19.7187 17.2347 19.3593 17.2347 18.8652C17.2347 18.3712 17.6835 18.0118 19.03 17.3381C20.8252 16.3948 22.4859 15.721 23.3386 13.7896C25.9867 7.86052 31.8662 5.974 34.1103 5.12057C34.963 4.76123 35.4119 4.44681 35.8158 3.6383C37.6111 0.359338 38.419 0 38.9127 0C39.4064 0 39.3615 0.853428 39.5859 1.88652C39.8552 3.09929 39.8552 4.04255 41.83 4.53664C47.4402 6.01891 55.6536 11.1844 55.6536 20.617C55.6536 30.0496 46.3631 36.0236 45.9142 36.383C44.882 37.1466 44.5229 37.7754 44.5229 38.3593C44.5229 38.8085 44.7922 39.3026 45.0615 39.8416C47.3056 44.3333 51.1654 47.253 55.6536 47.253C60.9946 47.253 65.1237 42.2671 65.1237 37.1017C65.1237 31.9362 61.6678 28.8369 58.6607 27.8936C57.5387 27.5343 57.045 27.5343 57.045 26.9504C57.045 26.2766 57.808 26.5012 57.808 25.4681C57.808 24.7045 57.4489 24.8842 57.4489 23.6714C57.4489 22.818 58.4812 22.5485 58.4812 21.2459C58.4812 20.2128 57.9875 19.8534 57.9875 19.2695C57.9875 18.5059 57.7182 18.5957 57.7182 16.9338C57.7182 16.4846 57.5387 16.1702 57.8977 16.1702C58.3466 16.1702 58.7505 16.7541 59.2891 17.5626C60.5009 19.3593 61.4434 20.7518 62.3859 21.3357C69.1631 25.6478 70.6442 28.3877 72.2151 32.2506C72.5741 33.104 72.8883 34.5863 73.9206 35.1702C74.7733 35.7092 76.6584 36.2931 76.6584 36.9669" fill="#231F20"/>
</svg>
