<svg width="26" height="31" viewBox="0 0 26 31" fill="none" xmlns="http://www.w3.org/2000/svg">
<path d="M6.14083 26.8337V28.4041C6.14083 28.8938 5.96931 29.31 5.62625 29.6528C5.28319 29.9956 4.86653 30.167 4.37625 30.167C3.88625 30.167 3.47028 29.9956 3.12833 29.6528C2.78639 29.31 2.61542 28.8938 2.61542 28.4041V25.6287C2.09403 25.2334 1.61111 24.6741 1.16667 23.9507C0.722222 23.2274 0.5 22.4149 0.5 21.5132V6.00033C0.5 3.9831 1.50264 2.50658 3.50792 1.57074C5.51292 0.634909 8.6768 0.166992 12.9996 0.166992C17.4785 0.166992 20.6815 0.616715 22.6087 1.51616C24.5362 2.41533 25.5 3.91005 25.5 6.00033V21.5132C25.5 22.4149 25.2778 23.2274 24.8333 23.9507C24.3889 24.6741 23.906 25.2334 23.3846 25.6287V28.4041C23.3846 28.8938 23.2131 29.31 22.87 29.6528C22.5267 29.9956 22.11 30.167 21.62 30.167C21.1297 30.167 20.7136 29.9956 20.3717 29.6528C20.03 29.31 19.8592 28.8938 19.8592 28.4041V26.8337H6.14083ZM3 13.5003H23V7.28241H3V13.5003ZM7.17042 22.3466C7.77681 22.3466 8.29097 22.1342 8.71292 21.7095C9.13514 21.285 9.34625 20.7696 9.34625 20.1632C9.34625 19.5569 9.13389 19.0427 8.70917 18.6207C8.28472 18.1985 7.76931 17.9874 7.16292 17.9874C6.55653 17.9874 6.04236 18.1998 5.62042 18.6245C5.19819 19.0489 4.98708 19.5644 4.98708 20.1707C4.98708 20.7771 5.19944 21.2913 5.62417 21.7132C6.04861 22.1355 6.56403 22.3466 7.17042 22.3466ZM18.8371 22.3466C19.4435 22.3466 19.9576 22.1342 20.3796 21.7095C20.8018 21.285 21.0129 20.7696 21.0129 20.1632C21.0129 19.5569 20.8006 19.0427 20.3758 18.6207C19.9514 18.1985 19.436 17.9874 18.8296 17.9874C18.2232 17.9874 17.709 18.1998 17.2871 18.6245C16.8649 19.0489 16.6537 19.5644 16.6537 20.1707C16.6537 20.7771 16.8661 21.2913 17.2908 21.7132C17.7153 22.1355 18.2307 22.3466 18.8371 22.3466Z" fill="white" fill-opacity="0.5"/>
</svg>
