<svg width="30" height="32" viewBox="0 0 30 32" fill="none" xmlns="http://www.w3.org/2000/svg">
<path d="M6.92218 31.8337C6.56801 31.8337 6.2712 31.7138 6.03176 31.4741C5.79259 31.2346 5.67301 30.9378 5.67301 30.5837V17.0924C4.17301 16.7063 2.99134 15.9774 2.12801 14.9057C1.26467 13.8341 0.833008 12.5803 0.833008 11.1445V1.41699C0.833008 1.06283 0.952869 0.76602 1.19259 0.526576C1.43231 0.286853 1.72926 0.166992 2.08342 0.166992C2.43787 0.166992 2.73467 0.286853 2.97384 0.526576C3.21329 0.76602 3.33301 1.06283 3.33301 1.41699V9.89449H5.67301V1.41699C5.67301 1.06283 5.79273 0.76602 6.03217 0.526576C6.2719 0.286853 6.56898 0.166992 6.92343 0.166992C7.27759 0.166992 7.5744 0.286853 7.81384 0.526576C8.05301 0.76602 8.17259 1.06283 8.17259 1.41699V9.89449H10.5126V1.41699C10.5126 1.06283 10.6325 0.76602 10.8722 0.526576C11.1119 0.286853 11.4088 0.166992 11.763 0.166992C12.1175 0.166992 12.4143 0.286853 12.6534 0.526576C12.8929 0.76602 13.0126 1.06283 13.0126 1.41699V11.1445C13.0126 12.5803 12.5809 13.8341 11.7176 14.9057C10.8543 15.9774 9.67259 16.7063 8.17259 17.0924V30.5837C8.17259 30.9378 8.05273 31.2346 7.81301 31.4741C7.57356 31.7138 7.27662 31.8337 6.92218 31.8337ZM23.0601 31.8337C22.7056 31.8337 22.4088 31.7138 22.1697 31.4741C21.9302 31.2346 21.8105 30.9378 21.8105 30.5837V16.5037C20.3105 15.9928 19.129 15.0082 18.2659 13.5499C17.4026 12.0916 16.9709 10.386 16.9709 8.43324C16.9709 6.14241 17.5672 4.19199 18.7597 2.58199C19.9522 0.971993 21.3858 0.166992 23.0605 0.166992C24.7397 0.166992 26.177 0.976298 27.3726 2.59491C28.5684 4.21352 29.1663 6.1681 29.1663 8.45866C29.1663 10.4223 28.732 12.1289 27.8634 13.5787C26.9948 15.0287 25.8105 16.0014 24.3105 16.497V30.5837C24.3105 30.9378 24.1906 31.2346 23.9509 31.4741C23.7112 31.7138 23.4143 31.8337 23.0601 31.8337Z" fill="white" fill-opacity="0.5"/>
</svg>
