<svg width="20" height="20" viewBox="0 0 20 20" fill="none" xmlns="http://www.w3.org/2000/svg">
<mask id="mask0_224_48" style="mask-type:alpha" maskUnits="userSpaceOnUse" x="0" y="0" width="20" height="20">
<rect width="20" height="20" fill="#D9D9D9"/>
</mask>
<g mask="url(#mask0_224_48)">
<path d="M9.16699 10.8337H5.00033C4.76421 10.8337 4.5663 10.7538 4.40658 10.5941C4.24685 10.4344 4.16699 10.2364 4.16699 10.0003C4.16699 9.76421 4.24685 9.5663 4.40658 9.40658C4.5663 9.24685 4.76421 9.16699 5.00033 9.16699H9.16699V5.00033C9.16699 4.76421 9.24685 4.5663 9.40658 4.40658C9.5663 4.24685 9.76421 4.16699 10.0003 4.16699C10.2364 4.16699 10.4344 4.24685 10.5941 4.40658C10.7538 4.5663 10.8337 4.76421 10.8337 5.00033V9.16699H15.0003C15.2364 9.16699 15.4344 9.24685 15.5941 9.40658C15.7538 9.5663 15.8337 9.76421 15.8337 10.0003C15.8337 10.2364 15.7538 10.4344 15.5941 10.5941C15.4344 10.7538 15.2364 10.8337 15.0003 10.8337H10.8337V15.0003C10.8337 15.2364 10.7538 15.4344 10.5941 15.5941C10.4344 15.7538 10.2364 15.8337 10.0003 15.8337C9.76421 15.8337 9.5663 15.7538 9.40658 15.5941C9.24685 15.4344 9.16699 15.2364 9.16699 15.0003V10.8337Z" fill="#1D1D1D"/>
</g>
</svg>
