<svg width="37" height="37" viewBox="0 0 37 37" fill="none" xmlns="http://www.w3.org/2000/svg">
<path d="M18.5095 36.2633C16.0537 36.2633 13.7444 35.7973 11.5816 34.8652C9.41877 33.9332 7.53754 32.6682 5.9379 31.0703C4.33791 29.4724 3.0714 27.5935 2.13835 25.4338C1.20497 23.2737 0.738281 20.9656 0.738281 18.5095C0.738281 16.0537 1.20429 13.7444 2.13631 11.5816C3.06833 9.41877 4.33332 7.53754 5.93126 5.9379C7.52921 4.33791 9.40805 3.0714 11.5678 2.13835C13.7279 1.20497 16.036 0.738281 18.4921 0.738281C20.9479 0.738281 23.2572 1.20429 25.42 2.13631C27.5828 3.06833 29.464 4.33332 31.0637 5.93126C32.6637 7.5292 33.9302 9.40805 34.8632 11.5678C35.7966 13.7279 36.2633 16.036 36.2633 18.4921C36.2633 20.9479 35.7973 23.2572 34.8652 25.42C33.9332 27.5828 32.6682 29.464 31.0703 31.0637C29.4724 32.6637 27.5935 33.9302 25.4338 34.8632C23.2737 35.7966 20.9656 36.2633 18.5095 36.2633ZM22.1247 19.2154L17.9904 23.3497C17.8543 23.4859 17.7947 23.639 17.8117 23.8091C17.8287 23.9793 17.9053 24.1324 18.0414 24.2685C18.1775 24.4046 18.342 24.4727 18.535 24.4727C18.7276 24.4727 18.8863 24.4046 19.0112 24.2685L23.707 19.5727C24.0133 19.2664 24.1664 18.9091 24.1664 18.5008C24.1664 18.0924 24.0133 17.7352 23.707 17.4289L18.9602 12.682C18.824 12.5459 18.6709 12.4779 18.5008 12.4779C18.3306 12.4779 18.1775 12.5459 18.0414 12.682C17.9053 12.8181 17.8372 12.9827 17.8372 13.1756C17.8372 13.3682 17.9053 13.5269 18.0414 13.6518L22.1247 17.7862H12.3758C12.1733 17.7862 12.0035 17.8549 11.8664 17.9924C11.7296 18.1295 11.6612 18.2997 11.6612 18.5028C11.6612 18.7056 11.7296 18.8751 11.8664 19.0112C12.0035 19.1473 12.1733 19.2154 12.3758 19.2154H22.1247Z" fill="white" fill-opacity="0.5"/>
</svg>
