<svg width="202" height="32" viewBox="0 0 202 32" fill="none" xmlns="http://www.w3.org/2000/svg">
<path d="M201.812 16.2283L195.895 16.1527V20.1807C195.895 25.3623 194.991 29.1634 194.557 30.298C194.274 30.6195 193.615 30.8086 193.219 30.6951C192.974 29.7874 192.465 26.9697 192.465 22.2798V4.16314C192.465 3.40671 190.336 1.8371 189.544 1.59126C189.337 1.51562 190.015 0.721358 190.223 0.721358C191.843 0.721358 196.102 1.70472 196.008 2.46116C195.933 2.97176 195.895 3.5769 195.895 4.23879V14.602L200.38 12.8243C200.776 12.6731 202.547 16.2283 201.831 16.2283M189.525 18.195C190.147 19.0649 188.47 22.7526 187.867 21.8827C187 20.6535 184.626 17.0226 182.496 14.602C179.651 18.5922 176.108 21.807 172.923 23.509C172.527 23.4712 172.056 22.8849 172.056 22.5256C175.995 19.0082 180.442 12.8432 182.308 7.22671C182.421 6.90522 181.083 5.92186 180.499 5.56255C180.31 5.44908 181.121 4.84394 181.328 4.84394C182.402 4.84394 185.38 6.07314 186.096 6.58374C186.491 6.8674 186.529 7.05651 186.341 7.52928C185.549 9.59057 184.494 11.5573 183.307 13.3728C185.983 15.226 188.941 17.363 189.525 18.195ZM170.398 16.5687L164.443 16.4552V20.1807C164.443 25.3623 163.613 29.1634 163.142 30.298C162.86 30.6195 162.2 30.8086 161.842 30.6951C161.559 29.7874 161.088 26.9697 161.088 22.2798V4.16314C161.088 3.40671 158.959 1.91274 158.167 1.59126C157.979 1.51562 158.638 0.721358 158.846 0.721358C160.466 0.721358 164.631 1.70472 164.556 2.46116C164.518 2.97176 164.443 3.5769 164.443 4.23879V14.9234L168.947 13.1836C169.38 12.9945 171.151 16.5498 170.398 16.5498M151.044 18.3463C152.702 18.3463 153.927 17.1928 153.927 15.4151C153.927 13.6375 152.777 12.4461 151.044 12.4461C149.31 12.4461 148.16 13.6375 148.16 15.4151C148.16 17.1928 149.31 18.3463 151.044 18.3463ZM145.409 3.23651C145.371 3.08522 145.56 2.59354 145.767 2.61245C146.954 2.83938 148.16 3.0474 149.668 3.23651L153.343 3.63364C153.663 3.67146 155.077 5.61928 154.134 5.61928H148.575C147.633 5.61928 145.466 3.55799 145.39 3.23651M141.715 7.64275C141.678 7.52928 141.904 7.13215 141.998 7.16998C142.62 7.39691 144.825 7.45364 146.917 7.41582L154.436 7.34017C156.603 7.30235 157.244 6.22443 157.583 6.22443C157.941 6.22443 159.317 8.13443 159.317 9.02325C159.317 9.17453 159.166 9.26909 158.921 9.26909C158.563 9.26909 156.471 9.15562 154.813 9.15562L146.728 9.19344C145.428 9.19344 144.561 9.47711 144.165 9.83641C143.148 9.55275 141.885 8.02097 141.753 7.62384M159.675 22.4689C156.433 23.9629 150.215 24.8328 145.956 25.3623C144.806 25.5136 144.109 25.7216 143.43 26.1187C142.337 25.835 140.754 24.2276 140.604 23.6225C140.641 23.4334 140.792 23.2632 140.886 23.1497C142.073 23.1497 143.807 23.1875 145.899 23.074C147.199 22.9984 148.424 22.9228 149.536 22.8282L149.329 19.7079C146.577 19.2351 144.881 17.6088 144.881 15.3584C144.881 12.9 147.011 11.2358 150.365 11.0467C150.403 10.8954 150.441 10.8009 150.441 10.6496C150.441 10.3659 150.365 10.0255 149.97 9.74186C149.97 9.06107 152.137 9.74186 152.137 10.1012C152.137 10.2525 151.948 10.6874 151.854 11.0467C155.133 11.2736 157.206 12.9378 157.206 15.3584C157.206 17.6088 155.435 19.2351 152.721 19.7079L152.57 22.5256C156 22.1285 158.318 21.5801 159.863 21.0695C160.184 20.956 160.052 22.2609 159.656 22.45M118.611 4.82502L118.574 10.8765H126.979L127.186 4.82502H118.592H118.611ZM113.165 3.48235C113.127 3.29324 113.636 2.68809 113.881 2.68809C114.503 2.68809 116.651 2.76374 118.065 3.00958H126.074C127.092 3.00958 127.619 2.85829 128.015 2.49898C128.448 2.3477 131.256 2.78265 131.2 3.25542L130.013 10.5361C130.521 11.0089 131.2 11.9544 131.2 12.465C131.2 12.6163 131.049 12.7109 130.804 12.7109C130.446 12.7109 129.108 12.673 127.092 12.673H118.215C117.989 13.0702 117.707 13.4295 117.386 13.8077C117.066 14.1292 116.482 14.2805 116.048 14.167C115.69 13.2971 115.389 11.633 115.144 8.62612L114.823 4.86285C114.786 4.50354 113.768 3.70928 113.165 3.48235ZM133.16 29.2012C133.16 29.3525 133.047 29.447 132.764 29.447H129.051L118.008 29.4848C114.936 29.4848 114.333 28.4258 114.333 26.3645V23.2821C114.333 22.7337 113.184 21.7881 112.524 21.6936C112.317 21.6557 113.033 20.748 113.316 20.748C114.578 20.748 116.463 21.0317 117.405 21.391C117.594 21.4666 117.876 21.5801 117.801 21.9772C117.726 22.45 117.726 23.1308 117.726 23.717V26.4024C117.726 27.5181 118.121 27.6694 119.101 27.6694L128.373 27.6316C130.333 27.6316 130.974 26.5347 131.219 26.5347C131.727 26.5347 133.16 28.3502 133.16 29.1823M136.665 17.4764C136.665 17.6655 136.514 17.7601 136.269 17.7601H124.83V19.8592C124.83 21.9961 124.039 23.8494 123.492 24.6815C123.209 25.003 122.588 25.1542 122.192 25.0408C121.871 24.0574 121.4 22.7526 121.4 20.3698V17.7601H113.712C112.411 17.7601 111.544 18.1194 111.149 18.4787C110.131 18.195 108.077 16.5876 108.077 16.2283C108.077 16.077 108.265 15.6799 108.359 15.7177C108.981 15.9446 111.186 15.9635 113.278 15.9635L130.974 15.9257C133.216 15.9257 133.97 14.6587 134.253 14.6587C134.648 14.6587 136.665 16.5876 136.665 17.4575M86.2542 8.30463C86.2542 10.6307 87.7618 12.1814 90.042 12.1814C92.3223 12.1814 94.056 10.6307 94.056 8.30463C94.056 5.97859 92.4354 4.4279 90.0797 4.4279C87.7241 4.4279 86.2542 5.9975 86.2542 8.30463ZM82.8243 8.4181C82.8243 5.16542 85.425 2.99067 89.439 2.76374C89.4767 2.65027 89.5144 2.55572 89.5144 2.44225C89.5144 2.12076 89.439 1.76146 88.9679 1.42106C88.9679 0.702447 91.38 1.42106 91.38 1.81819C91.38 1.96948 91.1916 2.40443 91.0974 2.76374C94.9229 3.0474 97.4482 5.22215 97.4482 8.4181C97.4482 11.7842 94.5272 13.9968 90.1551 13.9968C85.783 13.9968 82.8243 11.7842 82.8243 8.4181ZM104.421 18.3085C104.421 18.4598 104.27 18.5543 104.025 18.5543H96.1855V20.2941C96.1855 25.1921 95.3187 28.9932 94.8475 30.1089C94.5649 30.4304 93.9053 30.5817 93.5472 30.506C93.2645 29.5983 92.7557 26.7806 92.7557 22.3933V18.5543L87.2341 18.5922V19.689C87.2341 24.5491 86.3672 28.3502 85.9338 29.4659C85.6511 29.7874 84.9915 29.9387 84.5958 29.8631C84.3508 28.9553 83.842 26.1376 83.842 21.7881V18.5922H81.4675C80.1672 18.5922 79.3003 18.9515 78.9046 19.3108C77.8869 19.0271 75.8328 17.4197 75.8328 17.0226C75.8328 16.9091 76.0212 16.512 76.1155 16.5498C76.7374 16.7578 78.9423 16.7956 81.0341 16.7956L98.7296 16.72C100.972 16.72 101.726 15.453 102.009 15.453C102.404 15.453 104.421 17.4008 104.421 18.2707M54.2928 6.84849C54.2928 8.83414 55.7816 10.2525 58.0053 10.2525C60.229 10.2525 61.7178 8.83414 61.7178 6.84849C61.7178 4.86285 60.229 3.52017 58.0053 3.52017C55.7816 3.52017 54.2928 4.90067 54.2928 6.84849ZM50.863 6.99978C50.863 4.14423 53.3506 2.06403 57.2138 1.81819C57.2515 1.62908 57.3269 1.4967 57.3269 1.3076C57.3269 0.98611 57.2138 0.645714 56.7804 0.324229C56.7804 -0.432208 59.1926 0.324229 59.1926 0.683536C59.1926 0.910467 58.9476 1.40215 58.7968 1.79928C62.6224 2.04512 65.1853 4.12532 65.1853 6.98087C65.1853 9.9877 62.2643 12.1246 58.0053 12.1246C53.7463 12.1246 50.863 9.9877 50.863 6.98087M67.9744 29.7874C67.9744 29.9765 67.8236 30.0333 67.5786 30.0333H53.539C51.1268 30.0333 50.2788 29.2012 50.2223 27.3101L50.1469 24.8895C50.1469 24.5302 49.2046 24.0574 48.6016 23.7927C48.5639 23.6036 49.1104 22.9984 49.3931 22.9984C50.0715 22.9984 52.6533 23.1497 53.5767 23.4712H62.7166L62.7543 20.54H53.6144C52.5025 20.54 51.7676 20.8237 51.3718 21.2019C50.0715 21.0128 49.0162 19.3108 48.9973 19.0649C48.9596 18.8758 49.1481 18.5165 49.3177 18.5543C50.4673 18.7624 51.9183 18.7624 54.0101 18.7624H61.4916C62.5093 18.7624 63.037 18.6489 63.4327 18.2518C63.8661 18.2139 66.7495 18.5354 66.6552 19.0082L65.7507 23.2821C66.4291 23.7927 66.8625 24.6626 66.8625 24.8706C66.8625 25.0597 66.7494 25.1921 66.5798 25.1921C66.2595 25.1921 64.2054 25.1542 62.5281 25.1542H53.5767V26.7428C53.5767 27.972 53.9348 28.2178 55.5554 28.2178H63.4704C65.713 28.2178 66.0333 27.2723 66.2783 27.2723C66.7871 27.2723 67.9744 28.9743 67.9744 29.7307M72.1015 15.7744C72.1015 15.9257 71.9507 16.0203 71.7057 16.0203H66.6175L49.1669 16.0581C47.9043 16.0581 47.0374 16.4174 46.6417 16.7389C45.5864 16.4552 43.7207 14.8856 43.5699 14.4885C43.5323 14.375 43.7584 13.9779 43.8526 14.0157C44.4745 14.2427 46.6605 14.2805 48.7712 14.2805L66.4291 14.2048C68.634 14.2048 69.3878 12.9378 69.7081 12.9378C70.1039 12.9378 72.0826 14.8856 72.0826 15.7555M32.2252 15.6988C32.2252 16.0203 31.9802 16.0203 31.1133 16.285C30.7553 16.3985 30.5668 16.9658 30.2841 17.8735C29.6622 19.7836 27.6835 22.866 23.5753 22.866C19.467 22.866 17.2998 19.3486 17.1491 19.1595C16.9418 18.8758 16.6026 18.6111 16.3199 18.6111C16.1314 18.6111 15.9995 18.6867 15.8864 18.7624C14.3977 19.7836 12.777 20.9371 12.777 23.5846C12.777 25.3244 14.2281 27.3101 16.6779 27.3101C18.7698 27.3101 20.1454 25.3244 20.5789 23.944C20.7296 23.4712 20.692 23.2821 20.9369 23.2821C21.2573 23.2821 21.3704 24.0007 21.8038 24.0007C22.1619 24.0007 22.0488 23.8116 22.5199 23.8116C22.9534 23.8116 23.0664 24.3978 23.4245 24.3978C23.9333 24.3978 24.6117 23.9629 24.951 23.9629C25.064 23.9629 25.2336 23.9629 25.2336 24.0763C25.2336 24.2654 24.9133 24.4356 24.6117 24.7004C23.9899 25.2488 23.5376 25.5703 23.0664 26.3645C21.4081 29.1823 19.4859 29.6929 18.5059 29.9954C18.1479 30.1089 17.7898 30.2791 17.639 30.6195C17.0925 31.8487 16.7722 32 16.6214 32C16.433 32 16.3764 31.792 16.3387 31.3192C16.301 30.8086 16.0184 30.2224 15.0384 30.0522C12.5509 29.5794 9.4791 27.0453 9.4791 23.0551C9.4791 19.4621 12.1928 18.0627 13.5685 16.6822C13.7569 16.4931 13.8889 16.285 13.8889 15.9635V15.8501C13.8889 15.6799 13.8512 15.453 13.625 15.1693C12.2493 13.4295 11.2129 12.2759 9.32834 12.2759C7.27422 12.2759 5.46509 13.9779 5.46509 16.4363C5.46509 19.0838 6.7654 19.9916 8.06572 20.3131C8.49915 20.4265 8.64991 20.4643 8.64991 20.5967C8.64991 20.8804 8.36724 20.8237 8.36724 21.2586C8.36724 21.5801 8.61222 21.5423 8.61222 22.0529C8.61222 22.4122 8.29186 22.5256 8.29186 23.074C8.29186 23.509 8.49915 23.6603 8.49915 23.9061C8.49915 24.2276 8.6876 24.1898 8.6876 24.8895C8.6876 25.0786 8.76299 25.211 8.61222 25.211C8.46146 25.211 8.29186 24.9651 8.06572 24.6247C7.5569 23.8683 7.01039 23.3955 6.61464 23.093C3.4675 20.8047 3.35443 19.8025 2.56294 18.2329C2.37449 17.8736 2.31795 17.2495 1.94105 17.0793C0.791495 16.4931 0 16.3229 0 15.3773C0 14.9424 0.508819 15.3773 1.30031 15.3773C1.73375 15.3773 2.24257 15.453 2.48756 14.5452C3.03407 12.6163 5.29548 9.53384 9.2718 9.53384C13.4931 9.53384 15.5849 13.0513 15.7357 13.2404C16.0184 13.6375 16.2822 13.7888 16.5649 13.7888C16.7533 13.7888 16.8852 13.7888 17.2056 13.5051C19.8816 11.1224 20.0889 10.0633 20.0889 8.68285C20.0889 6.94305 18.7132 4.91958 16.2633 4.91958C13.8135 4.91958 12.6451 6.8674 12.3247 8.32354C12.2116 8.79631 12.1363 9.04216 11.929 9.04216C11.6086 9.04216 11.6086 8.60721 11.2505 8.60721C10.6663 8.60721 10.6098 8.85305 10.3083 8.85305C9.91254 8.85305 9.91254 8.13443 9.32834 8.13443C9.17758 8.13443 8.85721 8.32354 8.64991 8.32354C8.10341 8.32354 8.06572 8.43701 7.82073 8.43701C7.53805 8.43701 7.23653 8.28572 7.23653 8.0777C7.23653 7.86968 7.42498 7.71839 7.99034 7.43473C8.74414 7.0376 9.44141 6.75394 9.79947 5.94077C10.9113 3.44453 13.38 2.65027 14.3223 2.29096C14.6804 2.13968 14.8688 2.0073 15.0384 1.6669C15.7922 0.286407 16.1314 0.13512 16.3387 0.13512C16.546 0.13512 16.5272 0.494427 16.6214 0.929378C16.7345 1.43997 16.7345 1.8371 17.5637 2.04512C19.9193 2.66918 23.368 4.84394 23.368 8.81523C23.368 12.7865 19.467 15.3017 19.2786 15.453C18.8451 15.7744 18.6944 16.0392 18.6944 16.285C18.6944 16.4741 18.8074 16.6822 18.9205 16.9091C19.8628 18.8002 21.4834 20.0294 23.368 20.0294C25.6105 20.0294 27.3443 17.9303 27.3443 15.7555C27.3443 13.5808 25.8932 12.2759 24.6306 11.8788C24.1595 11.7275 23.9522 11.7275 23.9522 11.4817C23.9522 11.198 24.2725 11.2926 24.2725 10.8576C24.2725 10.5361 24.1218 10.6118 24.1218 10.1012C24.1218 9.74186 24.5552 9.6284 24.5552 9.07998C24.5552 8.64503 24.3479 8.49374 24.3479 8.2479C24.3479 7.92641 24.2348 7.96423 24.2348 7.26453C24.2348 7.07542 24.1595 6.94305 24.3102 6.94305C24.4987 6.94305 24.6683 7.18889 24.8944 7.52928C25.4032 8.28572 25.799 8.87196 26.1947 9.1178C29.0403 10.9332 29.6622 12.0868 30.3218 13.7132C30.4726 14.0725 30.6045 14.6965 31.0379 14.9424C31.396 15.1693 32.1875 15.4151 32.1875 15.6988" fill="white"/>
</svg>
