<svg width="300" height="100" viewBox="0 0 300 100" fill="none" xmlns="http://www.w3.org/2000/svg">
<g clip-path="url(#clip0_46_163)">
<path d="M87.758 76.0373C85.7081 75.3013 85.3197 74.8106 85.3197 73.9664C85.3197 73.1222 85.9095 72.4511 87.312 72.4511C88.3406 72.4511 89.0239 72.7903 89.7719 73.4108L90.5056 72.5089C89.6425 71.8162 88.765 71.4121 87.384 71.4121C85.4707 71.4121 84.176 72.3934 84.176 74.0386C84.176 75.525 84.9241 76.2465 87.1394 77.0402C89.0167 77.7185 89.5849 78.2596 89.5849 79.2121C89.5849 80.3016 88.7362 80.9799 87.3768 80.9799C86.3194 80.9799 85.4276 80.4892 84.6507 79.746L83.8955 80.5975C84.7011 81.42 85.9454 82.0262 87.3408 82.0262C89.477 82.0262 90.7358 80.7706 90.7358 79.1616C90.7358 77.5525 90.0381 76.867 87.7652 76.0445L87.758 76.0373Z" fill="#004289"/>
<path d="M95.3822 73.9881C94.3824 73.9881 93.4761 74.2334 92.8 74.6014L93.2172 75.4961C93.8429 75.1281 94.5047 74.9044 95.3102 74.9044C96.4323 74.9044 96.979 75.46 96.979 76.6145V77.5237C96.5258 77.2711 95.8281 77.0763 95.0585 77.0763C93.5408 77.0763 92.1167 77.8123 92.1167 79.544C92.1167 81.4056 93.3754 82.0117 94.5694 82.0117C95.6771 82.0117 96.4323 81.4922 96.979 80.9078V81.853H98.0722V76.4702C98.0722 74.6808 97.0365 73.9736 95.3822 73.9736V73.9881ZM96.9718 79.9697C96.5042 80.6119 95.7562 81.1242 94.7636 81.1242C93.8214 81.1242 93.1884 80.6264 93.1884 79.4791C93.1884 78.5122 93.8645 77.9638 94.9938 77.9638C95.9288 77.9638 96.4683 78.137 96.9718 78.4112V79.977V79.9697Z" fill="#004289"/>
<path d="M109.106 77.3435V81.8604H110.199V77.1631C110.199 74.9119 109.221 73.9883 107.653 73.9883C106.401 73.9883 105.776 74.5727 105.323 75.3087C104.956 74.5727 104.301 73.9883 103.215 73.9883C102.309 73.9883 101.661 74.4284 101.266 75.0923V74.1542H100.158V81.8676H101.266V77.3507C101.266 75.6406 101.92 74.9407 102.978 74.9407C104.035 74.9407 104.632 75.5829 104.632 77.3507V81.8676H105.733V77.3507C105.733 75.6406 106.401 74.9407 107.444 74.9407C108.552 74.9407 109.099 75.5829 109.099 77.3507L109.106 77.3435Z" fill="#004289"/>
<path d="M114.608 77.3723C113.307 76.7806 112.918 76.528 112.918 75.8714C112.918 75.3086 113.378 74.919 114.191 74.919C115.004 74.919 115.508 75.1354 116.105 75.6117L116.716 74.7963C116.133 74.3129 115.313 73.981 114.263 73.981C112.861 73.981 111.861 74.7747 111.861 75.9436C111.861 77.1774 112.501 77.6464 114.047 78.3103C115.407 78.8947 115.86 79.2483 115.86 79.8833C115.86 80.6337 115.364 81.0738 114.306 81.0738C113.544 81.0738 112.825 80.7636 112.213 80.2224L111.566 81.0233C112.3 81.615 113.22 82.0118 114.278 82.0118C115.608 82.0118 116.91 81.3552 116.91 79.8328C116.91 78.4546 116.061 78.0289 114.601 77.365L114.608 77.3723Z" fill="#004289"/>
<path d="M123.326 78.6567C123.326 80.3451 122.485 81.0594 121.427 81.0594C120.19 81.0594 119.607 80.3162 119.607 78.6567V74.147H118.514V78.8443C118.514 81.0594 119.586 82.0191 121.204 82.0191C122.175 82.0191 122.887 81.5645 123.326 80.9151V81.8604H124.427V74.147H123.326V78.6567Z" fill="#004289"/>
<path d="M132.194 81.8604V77.1631C132.194 74.9407 131.123 73.9883 129.497 73.9883C128.533 73.9883 127.814 74.4429 127.383 75.0923V74.1542H126.275V81.8676H127.383V77.3507C127.383 75.6623 128.21 74.9407 129.274 74.9407C130.504 74.9407 131.094 75.6911 131.094 77.3507V81.8676H132.194V81.8604Z" fill="#004289"/>
<path d="M135.654 83.8518L136.007 84.6888C138.862 84.6022 139.898 83.4838 139.898 81.1604V74.1397H138.797V75.0056C138.258 74.385 137.596 73.981 136.632 73.981C135.021 73.981 133.727 75.388 133.727 78.1227C133.727 80.8574 134.949 82.0118 136.481 82.0118C137.524 82.0118 138.258 81.4923 138.797 80.9079V81.3047C138.797 83.1014 138.215 83.7796 135.647 83.8446L135.654 83.8518ZM136.769 81.0594C135.554 81.0594 134.82 80.0492 134.82 78.1082C134.82 76.0374 135.446 74.9334 136.726 74.9334C137.639 74.9334 138.38 75.4457 138.805 76.0879V79.9482C138.265 80.6265 137.589 81.0594 136.769 81.0594Z" fill="#004289"/>
<path d="M152.025 76.6433C152.025 73.1149 150.039 71.5708 147.349 71.5708H144.638V81.8601H147.148C149.888 81.8601 152.025 80.3737 152.025 76.6433ZM145.781 72.6098H147.263C149.622 72.6098 150.881 74.0529 150.881 76.6794C150.881 79.6378 149.5 80.8139 147.292 80.8139H145.781V72.6098Z" fill="#004289"/>
<path d="M154.952 75.0991V74.1466H153.852V81.86H154.952V77.3287C154.952 75.8567 155.556 74.9981 156.628 74.9981C157.139 74.9981 157.469 75.1135 157.779 75.2939L158.052 74.1827C157.793 74.0673 157.426 73.9951 156.851 73.9951C156.024 73.9951 155.297 74.493 154.952 75.1063V75.0991Z" fill="#004289"/>
<path d="M164.626 81.1241L164.108 80.3304C163.404 80.7994 162.878 81.0663 161.979 81.0663C160.728 81.0663 159.944 80.0201 159.843 78.3822H164.964C165 78.2018 165.015 78.043 165.015 77.7833C165.015 75.5825 163.921 73.9951 161.915 73.9951C160.088 73.9951 158.743 75.5176 158.743 77.9637C158.743 81.0014 160.455 82.026 161.864 82.026C163.022 82.026 163.698 81.7157 164.626 81.1313V81.1241ZM161.915 74.9403C163.26 74.9403 163.907 75.9866 163.993 77.4802H159.843C159.973 75.7557 160.771 74.9403 161.915 74.9403Z" fill="#004289"/>
<path d="M168.683 82.0191C169.783 82.0191 170.538 81.4995 171.078 80.9151V81.8603H172.178V76.4775C172.178 74.6881 171.143 73.981 169.488 73.981C168.489 73.981 167.582 74.2263 166.906 74.5943L167.316 75.489C167.949 75.121 168.604 74.8973 169.409 74.8973C170.538 74.8973 171.078 75.4529 171.078 76.6074V77.5166C170.625 77.264 169.934 77.0692 169.165 77.0692C167.64 77.0692 166.208 77.8052 166.208 79.5369C166.208 81.3985 167.474 82.0046 168.676 82.0046L168.683 82.0191ZM169.107 77.9567C170.042 77.9567 170.589 78.1299 171.085 78.4041V79.9698C170.618 80.612 169.87 81.1243 168.877 81.1243C167.942 81.1243 167.302 80.6265 167.302 79.4792C167.302 78.5123 167.985 77.9639 169.107 77.9639V77.9567Z" fill="#004289"/>
<path d="M183.212 77.3435V81.8604H184.313V77.1631C184.313 74.9119 183.335 73.9883 181.767 73.9883C180.522 73.9883 179.889 74.5727 179.443 75.3087C179.077 74.5727 178.422 73.9883 177.336 73.9883C176.422 73.9883 175.782 74.4284 175.387 75.0923V74.1542H174.293V81.8676H175.387V77.3507C175.387 75.6406 176.048 74.9407 177.106 74.9407C178.163 74.9407 178.767 75.5829 178.767 77.3507V81.8676H179.861V77.3507C179.861 75.6406 180.53 74.9407 181.58 74.9407C182.687 74.9407 183.234 75.5829 183.234 77.3507L183.212 77.3435Z" fill="#004289"/>
<path d="M87.758 91.3416C85.7009 90.6056 85.3269 90.1221 85.3269 89.2707C85.3269 88.4193 85.9167 87.7627 87.3192 87.7627C88.3478 87.7627 89.0383 88.0946 89.7791 88.7151L90.5128 87.8204C89.6497 87.1349 88.765 86.7236 87.3912 86.7236C85.4707 86.7236 84.1832 87.6905 84.1832 89.3501C84.1832 90.8365 84.9313 91.5508 87.1466 92.3445C89.0239 93.03 89.5921 93.564 89.5921 94.5236C89.5921 95.6059 88.7434 96.2842 87.3768 96.2842C86.3194 96.2842 85.4276 95.7935 84.6507 95.0503L83.8955 95.9018C84.7011 96.7244 85.9454 97.3232 87.3408 97.3232C89.477 97.3232 90.7286 96.075 90.7286 94.4587C90.7286 92.8424 90.0309 92.1641 87.7652 91.3416H87.758Z" fill="#004289"/>
<path d="M95.3967 90.2448C96.1736 90.2448 96.6842 90.519 97.2381 91.0241L97.8998 90.2015C97.2956 89.6676 96.4972 89.2852 95.4687 89.2852C93.8575 89.2852 92.1528 90.4902 92.1528 93.3403C92.1528 96.0317 93.6993 97.316 95.3895 97.316C96.4684 97.316 97.2165 96.9048 97.8638 96.2409L97.2021 95.541C96.677 96.0533 96.1807 96.3564 95.4327 96.3564C94.0733 96.3564 93.2605 95.137 93.2605 93.2393C93.2605 91.3416 94.1884 90.2304 95.3895 90.2304L95.3967 90.2448Z" fill="#004289"/>
<path d="M102.596 89.2926C101.633 89.2926 100.906 89.7472 100.467 90.3966V86.7744H99.374V97.1792H100.467V92.6623C100.467 90.9738 101.309 90.2523 102.373 90.2523C103.611 90.2523 104.193 90.9955 104.193 92.6623V97.1792H105.294V92.4675C105.294 90.2523 104.222 89.2926 102.596 89.2926Z" fill="#004289"/>
<path d="M110.199 89.2925C108.329 89.2925 106.84 90.6995 106.84 93.3187C106.84 95.938 108.272 97.3306 110.142 97.3306C112.012 97.3306 113.515 95.8803 113.515 93.261C113.515 90.6418 112.069 89.2925 110.199 89.2925ZM110.178 96.3709C108.84 96.3709 107.941 95.3174 107.941 93.2899C107.941 91.2623 108.84 90.2521 110.178 90.2521C111.516 90.2521 112.415 91.2623 112.415 93.2899C112.415 95.3174 111.508 96.3709 110.178 96.3709Z" fill="#004289"/>
<path d="M116.27 86.7671H115.169V97.1719H116.27V86.7671Z" fill="#004289"/>
<path d="M121.297 89.2925C120.298 89.2925 119.391 89.545 118.722 89.913L119.132 90.815C119.765 90.447 120.427 90.2233 121.233 90.2233C122.355 90.2233 122.901 90.7861 122.901 91.9261V92.8425C122.448 92.59 121.758 92.3952 120.988 92.3952C119.463 92.3952 118.039 93.1311 118.039 94.8701C118.039 96.7317 119.298 97.3306 120.499 97.3306C121.599 97.3306 122.355 96.8183 122.901 96.2338V97.179H124.002V91.8035C124.002 89.9996 122.959 89.2997 121.305 89.2997L121.297 89.2925ZM122.894 95.2741C122.434 95.9091 121.671 96.4286 120.686 96.4286C119.751 96.4286 119.118 95.9308 119.118 94.7835C119.118 93.8094 119.794 93.2755 120.923 93.2755C121.858 93.2755 122.398 93.4342 122.894 93.7156V95.2741Z" fill="#004289"/>
<path d="M127.188 90.4107V89.4438H126.088V97.1644H127.188V92.6331C127.188 91.1683 127.778 90.2952 128.857 90.2952C129.375 90.2952 129.706 90.4107 130.015 90.5911L130.296 89.4726C130.029 89.3572 129.67 89.2778 129.094 89.2778C128.274 89.2778 127.534 89.7757 127.196 90.4035L127.188 90.4107Z" fill="#004289"/>
<path d="M134.511 92.6838C133.209 92.0921 132.813 91.8251 132.813 91.183C132.813 90.6274 133.281 90.2305 134.086 90.2305C134.892 90.2305 135.41 90.4542 136.007 90.9232L136.618 90.1151C136.028 89.6316 135.216 89.2925 134.158 89.2925C132.763 89.2925 131.749 90.0862 131.749 91.2623C131.749 92.4385 132.396 92.9652 133.935 93.6218C135.295 94.2063 135.748 94.567 135.748 95.1948C135.748 95.9524 135.251 96.3853 134.201 96.3853C133.432 96.3853 132.72 96.0751 132.101 95.5339L131.461 96.3421C132.195 96.9337 133.115 97.3234 134.173 97.3234C135.503 97.3234 136.805 96.6595 136.805 95.1515C136.805 93.7661 135.956 93.3476 134.503 92.6838H134.511Z" fill="#004289"/>
<path d="M141.825 89.2926C140.847 89.2926 140.135 89.7472 139.696 90.3966V86.7744H138.596V97.1792H139.696V92.6623C139.696 90.9738 140.531 90.2523 141.602 90.2523C142.832 90.2523 143.415 90.9955 143.415 92.6623V97.1792H144.515V92.4675C144.515 90.2523 143.451 89.2926 141.825 89.2926Z" fill="#004289"/>
<path d="M147.781 89.4438H146.688V97.1645H147.781V89.4438Z" fill="#004289"/>
<path d="M147.256 86.5C146.81 86.5 146.458 86.8536 146.458 87.3009C146.458 87.7483 146.81 88.0802 147.256 88.0802C147.666 88.0802 148.018 87.7194 148.018 87.3009C148.018 86.8536 147.666 86.5 147.256 86.5Z" fill="#004289"/>
<path d="M153.413 89.2925C152.377 89.2925 151.644 89.812 151.097 90.3965V89.4512H149.997V100.008H151.097V96.306C151.637 96.9193 152.298 97.3306 153.269 97.3306C154.873 97.3306 156.168 95.9163 156.168 93.1889C156.168 90.4614 154.945 89.2925 153.413 89.2925ZM153.176 96.3709C152.269 96.3709 151.521 95.8586 151.097 95.2092V91.3561C151.637 90.6851 152.313 90.2449 153.133 90.2449C154.355 90.2449 155.089 91.2551 155.089 93.1961C155.089 95.2669 154.456 96.3637 153.183 96.3637L153.176 96.3709Z" fill="#004289"/>
<path d="M161.986 87.9214H166.863V86.8823H160.843V97.1717H161.986V92.3733H164.799V91.3343H161.986V87.9214Z" fill="#004289"/>
<path d="M170.201 89.2925C168.331 89.2925 166.834 90.6995 166.834 93.3187C166.834 95.938 168.273 97.3306 170.143 97.3306C172.013 97.3306 173.516 95.8803 173.516 93.261C173.516 90.6418 172.085 89.2925 170.201 89.2925ZM170.179 96.3709C168.841 96.3709 167.957 95.3174 167.957 93.2899C167.957 91.2623 168.848 90.2521 170.179 90.2521C171.51 90.2521 172.423 91.2623 172.423 93.2899C172.423 95.3174 171.517 96.3709 170.179 96.3709Z" fill="#004289"/>
<path d="M179.58 93.9608C179.58 95.6492 178.753 96.3708 177.681 96.3708C176.451 96.3708 175.861 95.6276 175.861 93.9608V89.4438H174.768V94.1484C174.768 96.3635 175.84 97.3232 177.465 97.3232C178.422 97.3232 179.141 96.8758 179.58 96.2264V97.1717H180.688V89.4511H179.58V93.968V93.9608Z" fill="#004289"/>
<path d="M185.751 89.2924C184.787 89.2924 184.068 89.747 183.629 90.3963V89.4511H182.529V97.1717H183.629V92.6548C183.629 90.9664 184.464 90.2448 185.535 90.2448C186.765 90.2448 187.348 90.988 187.348 92.6548V97.1717H188.448V92.46C188.448 90.2448 187.377 89.2852 185.751 89.2852V89.2924Z" fill="#004289"/>
<path d="M195.059 90.3243C194.512 89.7038 193.857 89.2853 192.886 89.2853C191.275 89.2853 189.988 90.6923 189.988 93.4342C189.988 96.1761 191.203 97.3234 192.743 97.3234C193.786 97.3234 194.512 96.8111 195.051 96.2266V97.1719H196.152V86.7671H195.051V90.3243H195.059ZM195.059 95.2598C194.512 95.9308 193.843 96.371 193.023 96.371C191.808 96.371 191.074 95.3608 191.074 93.4198C191.074 91.3417 191.7 90.245 192.98 90.245C193.886 90.245 194.627 90.7573 195.059 91.4067V95.2525V95.2598Z" fill="#004289"/>
<path d="M200.813 89.2925C199.82 89.2925 198.914 89.545 198.238 89.913L198.641 90.815C199.273 90.447 199.935 90.2233 200.741 90.2233C201.863 90.2233 202.402 90.7861 202.402 91.9261V92.8425C201.949 92.59 201.259 92.3952 200.482 92.3952C198.964 92.3952 197.54 93.1311 197.54 94.8701C197.54 96.7317 198.806 97.3306 200.007 97.3306C201.108 97.3306 201.863 96.8183 202.402 96.2338V97.179H203.503V91.8035C203.503 89.9996 202.467 89.2997 200.806 89.2997L200.813 89.2925ZM202.409 95.2741C201.942 95.9091 201.201 96.4286 200.194 96.4286C199.266 96.4286 198.641 95.9308 198.641 94.7835C198.641 93.8094 199.309 93.2755 200.439 93.2755C201.374 93.2755 201.92 93.4342 202.409 93.7156V95.2741Z" fill="#004289"/>
<path d="M207.013 86.7671H205.905V89.4441H204.956V90.3749H205.905V95.5773C205.905 96.8544 206.423 97.3162 207.38 97.3162C207.955 97.3162 208.365 97.2296 208.789 97.0564L208.868 96.104C208.516 96.2483 208.228 96.3205 207.782 96.3205C207.2 96.3205 207.013 96.0823 207.013 95.3969V90.3749H208.919V89.4441H207.013V86.7671Z" fill="#004289"/>
<path d="M211.415 86.5C210.962 86.5 210.602 86.8536 210.602 87.3009C210.602 87.7483 210.962 88.0802 211.415 88.0802C211.825 88.0802 212.17 87.7194 212.17 87.3009C212.17 86.8536 211.818 86.5 211.415 86.5Z" fill="#004289"/>
<path d="M211.94 89.4438H210.839V97.1645H211.94V89.4438Z" fill="#004289"/>
<path d="M216.96 89.2925C215.09 89.2925 213.594 90.6995 213.594 93.3187C213.594 95.938 215.026 97.3306 216.903 97.3306C218.78 97.3306 220.269 95.8803 220.269 93.261C220.269 90.6418 218.831 89.2925 216.96 89.2925ZM216.932 96.3709C215.601 96.3709 214.702 95.3174 214.702 93.2899C214.702 91.2623 215.601 90.2521 216.932 90.2521C218.262 90.2521 219.176 91.2623 219.176 93.2899C219.176 95.3174 218.269 96.3709 216.932 96.3709Z" fill="#004289"/>
<path d="M225.081 89.2924C224.117 89.2924 223.398 89.747 222.952 90.3963V89.4511H221.852V97.1717H222.952V92.6548C222.952 90.9664 223.786 90.2448 224.858 90.2448C226.088 90.2448 226.678 90.988 226.678 92.6548V97.1717H227.771V92.46C227.771 90.2448 226.699 89.2852 225.081 89.2852V89.2924Z" fill="#004289"/>
<path d="M126.21 51.3169C121.794 51.3241 118.154 54.7876 118.154 59.1313C118.154 63.4751 121.794 66.9024 126.21 66.9169C130.67 66.9024 134.273 63.4318 134.273 59.1313C134.273 54.8309 130.67 51.3241 126.21 51.3169ZM126.102 63.3524C123.793 63.3524 122.053 61.4619 122.053 59.1313C122.053 56.8007 123.916 54.8742 126.217 54.8742C128.519 54.8742 130.317 56.7646 130.317 59.1313C130.317 61.498 128.433 63.3524 126.109 63.3524H126.102Z" fill="#004289"/>
<path d="M89.2468 45.9412C90.4768 47.1606 91.8866 48.2285 93.2747 48.914L93.4186 48.9934L95.7994 46.1721L95.5692 46.0422C93.3107 44.8156 91.5413 43.2643 90.3833 41.3088C89.2325 39.3823 88.6427 37.1455 88.6427 34.4685V31.9575H84.3846V34.2015C84.3846 37.1022 83.73 39.3823 82.5001 41.381C81.1263 43.5962 79.0908 45.3784 76.487 47.0308L76.2568 47.1751L78.839 49.8592L78.9829 49.7799C80.5221 48.9429 82.1548 47.6513 83.5718 46.2082C84.8018 44.9455 85.8663 43.5962 86.5136 42.319C87.1394 43.5745 88.096 44.8517 89.2468 45.9484V45.9412Z" fill="#004289"/>
<path d="M84.6362 65.0694H102.46V52.8535H84.6362V65.0694ZM88.6426 56.3025H98.4534V61.6204H88.6426V56.3025Z" fill="#004289"/>
<path d="M144.062 65.0694H164.216V52.8535H144.062V65.0694ZM148.026 56.3025H160.26V61.6204H148.026V56.3025Z" fill="#004289"/>
<path d="M102.532 31.2358H98.5684V51.4537H102.532V42.5065H107.171V38.9132H102.532V31.2358Z" fill="#004289"/>
<path d="M184.701 46.9731C186.003 48.1059 187.492 49.0584 188.895 49.6717L189.038 49.7367L191.182 46.8288L190.952 46.7133C188.909 45.6671 187.089 44.3683 185.78 42.7809C184.45 41.1646 183.658 39.2164 183.658 36.8714V36.1859H189.556V32.708H173.545V36.1859H179.436V37.0229C179.436 39.1587 178.731 41.1502 177.559 42.8747C176.185 44.9455 174.178 46.6123 172.229 47.6947L171.97 47.8318L174.603 50.5664L174.747 50.4943C176.164 49.6861 177.732 48.4667 179.069 47.0958C180.141 45.9701 181.105 44.7796 181.695 43.589C182.407 44.7435 183.5 45.898 184.708 46.9731H184.701Z" fill="#004289"/>
<path d="M213.364 56.3821H227.771V65.0624H231.77V52.9331H213.364V56.3821Z" fill="#004289"/>
<path d="M223.304 42.4777C223.304 40.5655 222.449 38.805 221.183 37.4629H225.139V34.0211H217.586V30.2329H213.292V34.0211H205.56V37.4629H209.602C208.365 38.805 207.509 40.5511 207.509 42.4777C207.509 46.742 211.012 50.2055 215.392 50.2199C219.773 50.2055 223.297 46.742 223.304 42.4777ZM211.329 42.3189C211.329 39.9594 213.314 37.9607 215.392 37.9607C217.471 37.9607 219.449 39.9667 219.456 42.3189C219.456 44.6423 217.471 46.6482 215.392 46.6555C213.307 46.6482 211.336 44.6423 211.329 42.3189Z" fill="#004289"/>
<path d="M231.77 31.2358H227.814V51.5259H231.77V43.7836H236.424V40.1903H231.77V31.2358Z" fill="#004289"/>
<path d="M198.202 31.2358H194.246V51.5259H198.202V42.5065H202.848V38.9132H198.202V31.2358Z" fill="#004289"/>
<path d="M131.051 37.2536H124.822V40.8108H131.051V52.1681H135.014V31.2358H131.051V37.2536Z" fill="#004289"/>
<path d="M120.988 46.4679C122.225 47.6802 123.671 48.7481 125.052 49.4696L125.203 49.5562L127.584 46.7349L127.354 46.605C125.095 45.4145 123.362 43.8704 122.197 41.9438C121.017 40.0317 120.427 37.7083 120.427 35.0313V31.9575H116.162V34.7716C116.162 37.6722 115.515 39.9451 114.314 41.9077C112.947 44.159 110.868 45.9556 108.264 47.5936L108.042 47.7379L110.638 50.4293L110.768 50.3427C112.3 49.4985 113.896 48.279 115.313 46.8864C116.594 45.6093 117.658 44.2167 118.305 42.8818C118.917 44.1013 119.852 45.3423 120.988 46.4752V46.4679Z" fill="#004289"/>
<path d="M189.707 51.3169C185.291 51.3241 181.651 54.7876 181.644 59.1313C181.651 63.4318 185.284 66.9024 189.707 66.9169C194.159 66.9024 197.77 63.4318 197.77 59.1313C197.77 54.8309 194.159 51.3241 189.707 51.3169ZM189.592 63.3524C187.29 63.3524 185.535 61.4619 185.535 59.1313C185.535 56.8007 187.391 54.8742 189.707 54.8742C192.023 54.8742 193.8 56.7646 193.807 59.1313C193.807 61.4547 191.915 63.3524 189.592 63.3524Z" fill="#004289"/>
<path d="M148.889 42.8313H152.852V32.5059H142.156V35.9405H148.889V42.8313Z" fill="#004289"/>
<path d="M160.785 42.8313H164.756V32.5059H154.06V35.9405H160.785V42.8313Z" fill="#004289"/>
<path d="M261.807 40.3779H258.476V31.7987H254.729V64.1964H258.476V44.2743H261.807V65.0622H265.691V31.2358H261.807V40.3779Z" fill="#004289"/>
<path d="M249.234 44.8587C248.342 42.9033 247.975 40.717 247.975 38.0328V36.7557H252.47V33.1118H239.408V36.7557H244.048V38.105C244.048 40.6448 243.717 42.7229 242.919 44.6494C241.991 46.8646 240.43 48.8561 237.941 50.9919L237.769 51.1506L240.228 53.5967L240.38 53.4813C241.617 52.5649 242.911 51.2372 243.99 49.8663C244.904 48.7118 245.673 47.514 246.155 46.4605C246.652 47.4851 247.428 48.6613 248.335 49.758C249.385 51.0424 250.572 52.2618 251.708 52.9906L251.859 53.0916L253.931 50.6095L253.765 50.4579C251.535 48.5098 250.154 46.7708 249.248 44.8515L249.234 44.8587Z" fill="#004289"/>
<path d="M138.84 47.6369H151.996V51.49H156.29V47.6369H169.654V44.1807H138.84V47.6369Z" fill="#004289"/>
<path d="M288.254 46.533H274.862V36.3086H285.061V32.708H270.848V50.0253H288.254V46.533Z" fill="#004289"/>
<path d="M280.68 54.2822H276.674V65.0622H295.411V61.5122H280.68V54.2822Z" fill="#004289"/>
<path d="M295.317 40.6015V31.2285H291.361V56.187H295.317V44.1948H300V40.6015H295.317Z" fill="#004289"/>
<path d="M84.018 20.7952L73.754 16.5308L84.018 12.2664L82.191 7.85771L71.9342 12.1221L76.1851 1.82553L71.7832 0L67.5395 10.2966L63.2886 0L58.8867 1.82553L63.1376 12.1221L52.8808 7.85771L51.061 12.2664L61.3178 16.5308L51.061 20.7952L52.8808 25.2038L63.1376 20.9395L58.8867 31.236L63.2886 33.0616L67.5395 22.7722L71.7832 33.0616L76.1851 31.2288L71.9342 20.9395L82.191 25.2038L84.018 20.7952Z" fill="#009FE3"/>
<path d="M17.6077 49.52H24.4335V31.2358H1.09326V37.3979H17.6077V49.52Z" fill="#009FE3"/>
<path d="M44.2351 49.52H51.061V31.2358H27.7207V37.3979H44.2351V49.52Z" fill="#009FE3"/>
<path d="M0 58.9794H44.2351V68.3957H51.0609V52.8174H0V58.9794Z" fill="#009FE3"/>
<path d="M16.5146 97.1714H51.0612V71.5635H16.5146V97.1714ZM23.3333 77.7328H44.2353V91.0165H23.3333V77.7328Z" fill="#009FE3"/>
</g>
<defs>
<clipPath id="clip0_46_163">
<rect width="300" height="100" fill="white"/>
</clipPath>
</defs>
</svg>
