<svg width="163" height="63" viewBox="0 0 163 63" fill="none" xmlns="http://www.w3.org/2000/svg">
<path d="M33.3723 40.2139C30.4209 40.2178 27.9912 42.5267 27.9912 45.4158C27.9912 48.3049 30.4209 50.5905 33.3723 50.5983C36.3509 50.5866 38.7611 48.2777 38.7611 45.4158C38.7611 42.554 36.3509 40.2178 33.3723 40.2139ZM33.2983 48.2271C31.7564 48.2271 30.5883 46.9655 30.5883 45.4197C30.5883 43.8739 31.8343 42.5851 33.3684 42.5851C34.9025 42.5851 36.1056 43.8428 36.1056 45.4197C36.1056 46.9967 34.8441 48.2271 33.2944 48.2271H33.2983Z" fill="white"/>
<path d="M8.67122 36.6318C9.49668 37.4456 10.439 38.1542 11.3618 38.6137L11.4591 38.6643L13.0477 36.7836L12.8959 36.698C11.3851 35.8803 10.2014 34.8485 9.43049 33.5441C8.66343 32.2631 8.27017 30.7679 8.27017 28.9885V27.3142H5.42779V28.8094C5.42779 30.7406 4.9878 32.2592 4.17013 33.5908C3.25122 35.0626 1.89233 36.2502 0.151853 37.3482L0 37.4417L1.72879 39.2289L1.82224 39.1744C2.84628 38.6137 3.93651 37.7532 4.88657 36.7953C5.70813 35.9582 6.42068 35.0548 6.84898 34.2021C7.2656 35.0354 7.90806 35.8881 8.67512 36.6201L8.67122 36.6318Z" fill="white"/>
<path d="M5.59863 49.3718H17.5055V41.2379H5.59863V49.3718ZM8.2697 43.5352H14.8228V47.0784H8.2697V43.5352Z" fill="white"/>
<path d="M17.5491 26.8352H14.9053V40.3073H17.5491V34.3461H20.6523V31.9515H17.5491V26.8352Z" fill="white"/>
<path d="M85.0731 37.3209C85.9414 38.0763 86.9382 38.7109 87.8727 39.1198L87.97 39.1665L89.399 37.2313L89.2471 37.1574C87.8843 36.4565 86.6656 35.5921 85.7934 34.5408C84.9018 33.4623 84.3722 32.1657 84.3722 30.6004V30.1409H88.3088V27.8203H77.6128V30.1409H81.5493V30.6977C81.5493 32.1189 81.0743 33.4467 80.2956 34.5953C79.3767 35.9737 78.0333 37.0873 76.7328 37.8037L76.5615 37.8972L78.3176 39.7155L78.4149 39.6688C79.365 39.1314 80.4085 38.3177 81.304 37.4065C82.0205 36.6551 82.6629 35.8608 83.0562 35.0703C83.5312 35.8374 84.2593 36.6083 85.0731 37.3248V37.3209Z" fill="white"/>
<path d="M104.222 43.5897H113.847V49.3719H116.522V41.2886H104.222V43.5897Z" fill="white"/>
<path d="M110.865 34.3267C110.865 33.0534 110.297 31.8814 109.448 30.9859H112.092V28.6925H107.045V26.1655H104.18V28.6925H99.0127V30.9859H101.711C100.889 31.8814 100.313 33.0418 100.313 34.3267C100.313 37.1652 102.653 39.4741 105.581 39.4819C108.509 39.4741 110.865 37.1652 110.869 34.3267H110.865ZM102.864 34.2215C102.864 32.6485 104.191 31.3169 105.577 31.3169C106.964 31.3169 108.287 32.6563 108.291 34.2215C108.291 35.7673 106.964 37.1029 105.577 37.1068C104.187 37.1029 102.864 35.7673 102.864 34.2215Z" fill="white"/>
<path d="M116.522 26.8352H113.878V40.3541H116.522V35.1949H119.629V32.8042H116.522V26.8352Z" fill="white"/>
<path d="M94.095 26.8352H91.4473V40.3541H94.095V34.3461H97.1982V31.9515H94.095V26.8352Z" fill="white"/>
<path d="M154.263 37.0288H145.316V30.2149H152.133V27.8164H142.637V39.3573H154.263V37.0288Z" fill="white"/>
<path d="M36.6086 30.8457H32.4463V33.2169H36.6086V40.7785H39.2563V26.8352H36.6086V30.8457Z" fill="white"/>
<path d="M29.8803 36.9821C30.7057 37.7959 31.6675 38.5045 32.5942 38.9835L32.6954 39.0419L34.2879 37.1612L34.1322 37.0717C32.6214 36.2851 31.4611 35.2533 30.6863 33.9684C29.8958 32.6952 29.5026 31.1455 29.5026 29.3622V27.318H26.6524V29.1947C26.6524 31.126 26.2202 32.6407 25.4181 33.9489C24.4992 35.448 23.1208 36.6395 21.3765 37.7336L21.2285 37.827L22.9612 39.622L23.0469 39.5675C24.0748 39.0068 25.1378 38.193 26.0839 37.2624C26.9366 36.4097 27.6531 35.4869 28.0814 34.5914C28.4902 35.4013 29.1171 36.2345 29.8725 36.9821H29.8803Z" fill="white"/>
<path d="M88.4133 40.2139C85.4619 40.2178 83.0322 42.5267 83.0283 45.4158C83.0322 48.2777 85.4619 50.5905 88.4133 50.5983C91.388 50.5866 93.8021 48.2777 93.8021 45.4158C93.8021 42.554 91.388 40.2178 88.4133 40.2139ZM88.3354 48.2271C86.7974 48.2271 85.6254 46.9655 85.6254 45.4197C85.6254 43.8739 86.8675 42.5851 88.4133 42.5851C89.9591 42.5851 91.1466 43.8428 91.1505 45.4197C91.1466 46.9655 89.8851 48.2271 88.3354 48.2271Z" fill="white"/>
<path d="M149.206 42.1919H146.527V49.3718H159.049V47.0045H149.206V42.1919Z" fill="white"/>
<path d="M158.987 33.0807V26.8352H156.343V43.4573H158.987V35.4675H162.117V33.0807H158.987Z" fill="white"/>
<path d="M136.59 32.9249H134.363V27.2168H131.863V48.7917H134.363V35.522H136.59V49.3718H139.187V26.8352H136.59V32.9249Z" fill="white"/>
<path d="M128.188 35.9153C127.592 34.6109 127.347 33.1585 127.347 31.3675V30.5147H130.349V28.0851H121.619V30.5147H124.719V31.4103C124.719 33.104 124.497 34.4863 123.96 35.7712C123.34 37.243 122.297 38.5747 120.634 39.992L120.518 40.101L122.161 41.7285L122.262 41.6507C123.087 41.0394 123.952 40.1555 124.676 39.2444C125.283 38.4734 125.797 37.6791 126.124 36.9782C126.455 37.6596 126.973 38.4423 127.577 39.1743C128.282 40.0309 129.072 40.8447 129.831 41.3275L129.936 41.3976L131.319 39.7428L131.21 39.6415C129.722 38.3449 128.799 37.1885 128.192 35.9114L128.188 35.9153Z" fill="white"/>
<path d="M7.51864 57.1475C6.2493 56.6958 6.01178 56.3921 6.01178 55.8704C6.01178 55.3486 6.37779 54.9359 7.24608 54.9359C7.88075 54.9359 8.30905 55.1423 8.76851 55.5239L9.22017 54.9671C8.68674 54.5426 8.14162 54.2896 7.2928 54.2896C6.10523 54.2896 5.30313 54.8931 5.30313 55.9132C5.30313 56.8282 5.77037 57.2682 7.13706 57.7627C8.29737 58.1793 8.6517 58.5181 8.6517 59.1021C8.6517 59.7757 8.12605 60.1885 7.28112 60.1885C6.62698 60.1885 6.07408 59.8887 5.59516 59.4292L5.12402 59.9549C5.62241 60.4571 6.39726 60.8309 7.25776 60.8309C8.58161 60.8309 9.36034 60.06 9.36034 59.0671C9.36034 58.0742 8.92815 57.6498 7.52253 57.1397L7.51864 57.1475Z" fill="white"/>
<path d="M12.2376 55.8822C11.6185 55.8822 11.0539 56.0341 10.6373 56.2599L10.8943 56.8128C11.2837 56.587 11.6925 56.4468 12.1909 56.4468C12.884 56.4468 13.2266 56.7894 13.2266 57.502V58.0666C12.9463 57.9108 12.5179 57.7901 12.0351 57.7901C11.0929 57.7901 10.2129 58.2457 10.2129 59.3164C10.2129 60.4651 10.9955 60.835 11.7353 60.835C12.4167 60.835 12.884 60.5196 13.2227 60.1575V60.7376H13.9002V57.4202C13.9002 56.3144 13.2577 55.8822 12.2376 55.8822ZM13.2227 59.5695C12.9346 59.9667 12.4673 60.286 11.8521 60.286C11.272 60.286 10.8787 59.9745 10.8787 59.2658C10.8787 58.6701 11.2992 58.3274 11.9962 58.3274C12.5764 58.3274 12.9112 58.4326 13.2188 58.6039V59.5656L13.2227 59.5695Z" fill="white"/>
<path d="M20.7341 57.9536V60.7376H21.4155V57.8368C21.4155 56.4468 20.812 55.8822 19.8385 55.8822C19.0676 55.8822 18.6782 56.2404 18.3979 56.696C18.172 56.2404 17.7632 55.8822 17.0935 55.8822C16.5289 55.8822 16.1279 56.1509 15.8865 56.5636V55.9834H15.2012V60.7415H15.8865V57.9575C15.8865 56.9023 16.2953 56.4701 16.9494 56.4701C17.6036 56.4701 17.9735 56.8673 17.9735 57.9575V60.7415H18.6549V57.9575C18.6549 56.9023 19.0676 56.4701 19.7139 56.4701C20.4031 56.4701 20.738 56.8673 20.738 57.9575L20.7341 57.9536Z" fill="white"/>
<path d="M24.1404 57.977C23.3344 57.611 23.093 57.4514 23.093 57.0503C23.093 56.7077 23.3811 56.4585 23.8834 56.4585C24.3857 56.4585 24.6972 56.5947 25.0671 56.8868L25.4487 56.3845C25.0866 56.0847 24.5804 55.8822 23.9224 55.8822C23.0619 55.8822 22.4389 56.3689 22.4389 57.0931C22.4389 57.8563 22.836 58.1444 23.79 58.5533C24.631 58.9154 24.9152 59.1334 24.9152 59.5228C24.9152 59.9861 24.6076 60.2587 23.9535 60.2587C23.4824 60.2587 23.0385 60.064 22.6569 59.733L22.2559 60.2314C22.7114 60.5974 23.2799 60.8389 23.934 60.8389C24.7595 60.8389 25.5655 60.4339 25.5655 59.4994C25.5655 58.6467 25.0398 58.3858 24.1404 57.9809V57.977Z" fill="white"/>
<path d="M29.5411 58.7596C29.5411 59.8031 29.0194 60.2431 28.3653 60.2431C27.5982 60.2431 27.2361 59.7836 27.2361 58.7596V55.9795H26.5586V58.8764C26.5586 60.2431 27.2166 60.831 28.2212 60.831C28.8247 60.831 29.2647 60.5507 29.5373 60.1535V60.7337H30.2187V55.9756H29.5373V58.7557L29.5411 58.7596Z" fill="white"/>
<path d="M35.0272 60.7376V57.8368C35.0272 56.4662 34.3653 55.8822 33.3568 55.8822C32.7611 55.8822 32.3172 56.1587 32.0486 56.5636V55.9834H31.3633V60.7415H32.0486V57.9575C32.0486 56.9179 32.5586 56.4701 33.2245 56.4701C33.9837 56.4701 34.3497 56.9335 34.3497 57.9575V60.7415H35.0311L35.0272 60.7376Z" fill="white"/>
<path d="M37.169 61.9719L37.3871 62.4898C39.1548 62.4314 39.7973 61.7461 39.7973 60.3132V55.9795H39.1198V56.513C38.7849 56.1314 38.38 55.8822 37.7803 55.8822C36.7797 55.8822 35.9814 56.7466 35.9814 58.4365C35.9814 60.1263 36.7368 60.835 37.6908 60.835C38.3332 60.835 38.7888 60.5196 39.1236 60.1575V60.4028C39.1236 61.5086 38.7615 61.9252 37.1729 61.9719H37.169ZM37.8582 60.247C37.1067 60.247 36.6512 59.624 36.6512 58.4287C36.6512 57.1476 37.0405 56.4701 37.8309 56.4701C38.3955 56.4701 38.855 56.7894 39.1159 57.1827V59.5617C38.781 59.9822 38.3644 60.247 37.8543 60.247H37.8582Z" fill="white"/>
<path d="M47.3007 57.5214C47.3007 55.3448 46.0742 54.3909 44.4077 54.3909H42.7295V60.7376H44.2792C45.9768 60.7376 47.3007 59.8225 47.3007 57.5175V57.5214ZM43.4381 55.0333H44.3532C45.8133 55.0333 46.592 55.925 46.592 57.5447C46.592 59.3709 45.7393 60.0951 44.3687 60.0951H43.4342V55.0333H43.4381Z" fill="white"/>
<path d="M49.115 56.5714V55.9835H48.4336V60.7415H49.115V57.9498C49.115 57.0387 49.4849 56.513 50.1507 56.513C50.4661 56.513 50.6764 56.5831 50.8632 56.6921L51.0346 56.0068C50.8749 55.9328 50.6452 55.89 50.2948 55.89C49.7847 55.89 49.3291 56.1937 49.1189 56.5792L49.115 56.5714Z" fill="white"/>
<path d="M55.1035 60.286L54.7881 59.7954C54.352 60.0874 54.0249 60.247 53.4681 60.247C52.6933 60.247 52.2105 59.6046 52.1443 58.5922H55.3176C55.341 58.4793 55.3488 58.3819 55.3488 58.2184C55.3488 56.8595 54.6752 55.8822 53.4331 55.8822C52.3 55.8822 51.4668 56.8206 51.4668 58.3313C51.4668 60.2042 52.5259 60.835 53.3981 60.835C54.1145 60.835 54.535 60.6442 55.1074 60.286H55.1035ZM53.4253 56.4663C54.2586 56.4663 54.6596 57.1087 54.7141 58.0354H52.1443C52.2222 56.9724 52.7167 56.4663 53.4253 56.4663Z" fill="white"/>
<path d="M57.6113 60.835C58.2927 60.835 58.7638 60.5196 59.0987 60.1575V60.7376H59.7801V57.4202C59.7801 56.3144 59.1376 55.8822 58.1097 55.8822C57.4906 55.8822 56.9299 56.0341 56.5133 56.2599L56.7703 56.8128C57.1596 56.587 57.5685 56.4468 58.0669 56.4468C58.7638 56.4468 59.0987 56.7894 59.0987 57.502V58.0666C58.8222 57.9108 58.3939 57.7901 57.9189 57.7901C56.9727 57.7901 56.0889 58.2457 56.0889 59.3164C56.0889 60.4651 56.8715 60.835 57.6113 60.835ZM57.8761 58.3313C58.4523 58.3313 58.7911 58.4365 59.0987 58.6078V59.5695C58.8105 59.9667 58.3472 60.286 57.7359 60.286C57.1246 60.286 56.7625 59.9745 56.7625 59.2658C56.7625 58.6701 57.183 58.3274 57.88 58.3274L57.8761 58.3313Z" fill="white"/>
<path d="M66.6091 57.9536V60.7376H67.2866V57.8368C67.2866 56.4468 66.6831 55.8822 65.7097 55.8822C64.9387 55.8822 64.5493 56.2404 64.269 56.696C64.0432 56.2404 63.6382 55.8822 62.9646 55.8822C62.4 55.8822 62.0029 56.1509 61.7576 56.5636V55.9834H61.0801V60.7415H61.7576V57.9575C61.7576 56.9023 62.1664 56.4701 62.8206 56.4701C63.4747 56.4701 63.8446 56.8673 63.8446 57.9575V60.7415H64.5221V57.9575C64.5221 56.9023 64.9387 56.4701 65.5851 56.4701C66.2703 56.4701 66.6091 56.8673 66.6091 57.9575V57.9536Z" fill="white"/>
<path d="M72.3761 57.1476C71.1067 56.696 70.8731 56.3962 70.8731 55.8705C70.8731 55.3449 71.2352 54.936 72.1035 54.936C72.7421 54.936 73.1665 55.1424 73.6259 55.524L74.0776 54.9711C73.5442 54.5467 72.999 54.2936 72.1502 54.2936C70.9626 54.2936 70.1644 54.8932 70.1644 55.9134C70.1644 56.8284 70.6239 57.2722 71.9984 57.759C73.1587 58.1795 73.513 58.5143 73.513 59.1023C73.513 59.772 72.9874 60.1886 72.1424 60.1886C71.4883 60.1886 70.9354 59.8849 70.4526 59.4254L69.9814 59.9472C70.4798 60.4573 71.2547 60.8272 72.1113 60.8272C73.4312 60.8272 74.2139 60.0562 74.2139 59.0633C74.2139 58.0704 73.7817 57.646 72.3761 57.136V57.1476Z" fill="white"/>
<path d="M77.1029 56.4701C77.5818 56.4701 77.9011 56.6415 78.2437 56.953L78.6526 56.4429C78.2788 56.1158 77.7882 55.8822 77.1457 55.8822C76.1489 55.8822 75.0977 56.622 75.0977 58.3858C75.0977 60.0445 76.0516 60.8389 77.1029 60.8389C77.7687 60.8389 78.2321 60.5858 78.6331 60.1769L78.2243 59.7447C77.9011 60.0601 77.5896 60.2509 77.1302 60.2509C76.2852 60.2509 75.7868 59.4994 75.7868 58.3274C75.7868 57.1554 76.3631 56.4701 77.1068 56.4701H77.1029Z" fill="white"/>
<path d="M81.5649 55.8822C80.9691 55.8822 80.5213 56.1586 80.2488 56.5636V54.3247H79.5713V60.7415H80.2488V57.9575C80.2488 56.914 80.7705 56.4701 81.4286 56.4701C82.1917 56.4701 82.55 56.9296 82.55 57.9575V60.7415H83.2314V57.8368C83.2314 56.4701 82.5694 55.8822 81.561 55.8822H81.5649Z" fill="white"/>
<path d="M86.2687 55.8822C85.1122 55.8822 84.1855 56.7466 84.1855 58.3664C84.1855 59.9861 85.0733 60.8389 86.2336 60.8389C87.3939 60.8389 88.3206 59.9433 88.3206 58.3274C88.3206 56.7116 87.4251 55.8822 86.2687 55.8822ZM86.257 60.2509C85.4315 60.2509 84.8747 59.6007 84.8747 58.3469C84.8747 57.0931 85.4315 56.4701 86.257 56.4701C87.0824 56.4701 87.6392 57.097 87.6392 58.3469C87.6392 59.5968 87.0785 60.2509 86.257 60.2509Z" fill="white"/>
<path d="M90.03 54.3247H89.3486V60.7415H90.03V54.3247Z" fill="white"/>
<path d="M93.137 55.8822C92.5218 55.8822 91.9572 56.0379 91.5445 56.2638L91.7976 56.8206C92.187 56.5908 92.5958 56.4546 93.0942 56.4546C93.7912 56.4546 94.126 56.8011 94.126 57.502V58.0704C93.8457 57.9108 93.4174 57.794 92.9423 57.794C91.9962 57.794 91.1162 58.2496 91.1162 59.3203C91.1162 60.4728 91.8949 60.8389 92.6386 60.8389C93.32 60.8389 93.7912 60.5274 94.126 60.1614V60.7415H94.8074V57.4241C94.8074 56.3144 94.165 55.8822 93.137 55.8822ZM94.126 59.5695C93.8379 59.9667 93.3707 60.286 92.7593 60.286C92.1831 60.286 91.7898 59.9745 91.7898 59.2697C91.7898 58.6701 92.2103 58.3352 92.9073 58.3352C93.4875 58.3352 93.8223 58.4365 94.1299 58.6078V59.5695H94.126Z" fill="white"/>
<path d="M96.7849 56.5714V55.9795H96.1035V60.7415H96.7849V57.9497C96.7849 57.0425 97.1548 56.5091 97.8167 56.5091C98.136 56.5091 98.3424 56.5792 98.5332 56.6882L98.7045 55.999C98.5448 55.9289 98.3151 55.8822 97.9647 55.8822C97.4546 55.8822 96.9991 56.1859 96.7849 56.5714Z" fill="white"/>
<path d="M101.317 57.977C100.507 57.611 100.266 57.4474 100.266 57.0464C100.266 56.7038 100.558 56.4546 101.056 56.4546C101.555 56.4546 101.874 56.5947 102.244 56.8829L102.625 56.3845C102.259 56.0847 101.757 55.8783 101.103 55.8783C100.239 55.8783 99.6156 56.365 99.6156 57.0931C99.6156 57.8563 100.017 58.1444 100.971 58.5494C101.812 58.9115 102.096 59.1295 102.096 59.5189C102.096 59.9861 101.784 60.2548 101.138 60.2548C100.663 60.2548 100.219 60.0601 99.8376 59.7291L99.4404 60.2275C99.8921 60.5935 100.464 60.835 101.119 60.835C101.94 60.835 102.75 60.43 102.75 59.4955C102.75 58.6389 102.224 58.3819 101.325 57.9731L101.317 57.977Z" fill="white"/>
<path d="M105.846 55.8822C105.246 55.8822 104.803 56.1586 104.53 56.5636V54.3247H103.853V60.7415H104.53V57.9575C104.53 56.914 105.048 56.4701 105.71 56.4701C106.469 56.4701 106.831 56.9296 106.831 57.9575V60.7415H107.513V57.8368C107.513 56.4701 106.851 55.8822 105.846 55.8822Z" fill="white"/>
<path d="M109.533 55.9796H108.855V60.7416H109.533V55.9796Z" fill="white"/>
<path d="M109.21 54.1573C108.93 54.1573 108.712 54.3754 108.712 54.6518C108.712 54.9127 108.93 55.1308 109.21 55.1308C109.459 55.1308 109.681 54.9127 109.681 54.6518C109.681 54.3754 109.459 54.1573 109.21 54.1573Z" fill="white"/>
<path d="M113.018 55.8822C112.375 55.8822 111.92 56.1976 111.585 56.5636V55.9834H110.907V62.4937H111.585V60.2081C111.92 60.5858 112.328 60.8389 112.928 60.8389C113.925 60.8389 114.723 59.9667 114.723 58.2846C114.723 56.6025 113.968 55.8822 113.018 55.8822ZM112.874 60.2509C112.313 60.2509 111.849 59.9316 111.585 59.5345V57.1593C111.92 56.7466 112.34 56.4701 112.846 56.4701C113.602 56.4701 114.057 57.097 114.057 58.2924C114.057 59.5695 113.668 60.2509 112.874 60.2509Z" fill="white"/>
<path d="M118.325 55.0372H121.346V54.3948H117.616V60.7415H118.325V57.7823H120.065V57.1437H118.325V55.0372Z" fill="white"/>
<path d="M123.414 55.8822C122.258 55.8822 121.327 56.7466 121.327 58.3664C121.327 59.9861 122.219 60.8389 123.375 60.8389C124.532 60.8389 125.462 59.9433 125.462 58.3274C125.462 56.7116 124.574 55.8822 123.414 55.8822ZM123.395 60.2509C122.569 60.2509 122.016 59.6007 122.016 58.3469C122.016 57.0931 122.569 56.4701 123.395 56.4701C124.22 56.4701 124.785 57.097 124.785 58.3469C124.785 59.5968 124.224 60.2509 123.395 60.2509Z" fill="white"/>
<path d="M129.22 58.7597C129.22 59.8032 128.706 60.2471 128.044 60.2471C127.281 60.2471 126.919 59.7876 126.919 58.7597V55.9796H126.237V58.8804C126.237 60.251 126.899 60.8389 127.908 60.8389C128.5 60.8389 128.943 60.5625 129.216 60.1614V60.7416H129.897V55.9796H129.216V58.7597H129.22Z" fill="white"/>
<path d="M133.036 55.8822C132.44 55.8822 131.996 56.1587 131.719 56.5636V55.9834H131.038V60.7454H131.719V57.9614C131.719 56.9179 132.237 56.474 132.899 56.474C133.662 56.474 134.025 56.9335 134.025 57.9614V60.7454H134.702V57.8407C134.702 56.474 134.04 55.8861 133.032 55.8861L133.036 55.8822Z" fill="white"/>
<path d="M138.798 56.5168C138.464 56.1353 138.055 55.8822 137.455 55.8822C136.458 55.8822 135.66 56.7466 135.66 58.4403C135.66 60.1341 136.412 60.8388 137.366 60.8388C138.008 60.8388 138.46 60.5273 138.798 60.1613V60.7415H139.48V54.3247H138.798V56.5207V56.5168ZM138.798 59.5617C138.464 59.9783 138.043 60.2509 137.537 60.2509C136.785 60.2509 136.33 59.6279 136.33 58.4286C136.33 57.1476 136.719 56.4701 137.51 56.4701C138.074 56.4701 138.53 56.7855 138.798 57.1866V59.5617Z" fill="white"/>
<path d="M142.365 55.8822C141.745 55.8822 141.185 56.0379 140.768 56.2638L141.021 56.8206C141.414 56.5908 141.823 56.4546 142.318 56.4546C143.015 56.4546 143.35 56.8011 143.35 57.502V58.0704C143.069 57.9108 142.641 57.794 142.162 57.794C141.224 57.794 140.34 58.2496 140.34 59.3203C140.34 60.4728 141.122 60.8389 141.866 60.8389C142.548 60.8389 143.015 60.5274 143.35 60.1614V60.7415H144.031V57.4241C144.031 56.3144 143.389 55.8822 142.365 55.8822ZM143.35 59.5695C143.062 59.9667 142.598 60.286 141.979 60.286C141.403 60.286 141.013 59.9745 141.013 59.2697C141.013 58.6701 141.43 58.3352 142.127 58.3352C142.707 58.3352 143.042 58.4365 143.35 58.6078V59.5695Z" fill="white"/>
<path d="M146.2 54.3247H145.519V55.9834H144.931V56.5558H145.519V59.7681C145.519 60.5546 145.838 60.8427 146.43 60.8427C146.788 60.8427 147.041 60.7921 147.306 60.6792L147.353 60.0912C147.134 60.1808 146.955 60.2275 146.679 60.2275C146.317 60.2275 146.2 60.0835 146.2 59.6552V56.5558H147.38V55.9834H146.2V54.3247Z" fill="white"/>
<path d="M148.921 54.1573C148.641 54.1573 148.419 54.3754 148.419 54.6518C148.419 54.9127 148.641 55.1308 148.921 55.1308C149.178 55.1308 149.396 54.9127 149.396 54.6518C149.396 54.3754 149.178 54.1573 148.921 54.1573Z" fill="white"/>
<path d="M149.245 55.9796H148.567V60.7416H149.245V55.9796Z" fill="white"/>
<path d="M152.359 55.8822C151.203 55.8822 150.276 56.7466 150.276 58.3664C150.276 59.9861 151.164 60.8389 152.324 60.8389C153.485 60.8389 154.408 59.9433 154.408 58.3274C154.408 56.7116 153.52 55.8822 152.359 55.8822ZM152.336 60.2509C151.515 60.2509 150.962 59.6007 150.962 58.3469C150.962 57.0931 151.515 56.4701 152.336 56.4701C153.158 56.4701 153.726 57.097 153.726 58.3469C153.726 59.5968 153.165 60.2509 152.336 60.2509Z" fill="white"/>
<path d="M157.382 55.8822C156.783 55.8822 156.339 56.1587 156.066 56.5636V55.9834H155.385V60.7454H156.066V57.9614C156.066 56.9179 156.584 56.474 157.246 56.474C158.013 56.474 158.371 56.9335 158.371 57.9614V60.7454H159.049V57.8407C159.049 56.474 158.387 55.8861 157.382 55.8861V55.8822Z" fill="white"/>
<path d="M87.1245 10.5637L81.8953 8.39879L87.1245 6.2339L86.1939 3.99114L80.9647 6.15603L83.1335 0.926818L80.8907 0.00012207L78.7258 5.22933L76.557 0.00012207L74.3182 0.926818L76.4831 6.15603L71.2538 3.99114L70.3271 6.2339L75.5525 8.39879L70.3271 10.5637L71.2538 12.8064L76.4831 10.6377L74.3182 15.8669L76.5609 16.7975L78.7258 11.5682L80.8907 16.7975L83.1335 15.8669L80.9647 10.6377L86.1939 12.8064L87.1245 10.5637Z" fill="#009FE3"/>
<path d="M53.2765 25.161H56.7575V15.8668H44.8623V18.9973H53.2765V25.161Z" fill="#009FE3"/>
<path d="M66.8498 25.161H70.3268V15.8668H58.4316V18.9973H66.8498V25.161Z" fill="#009FE3"/>
<path d="M44.3018 29.9658H66.85V34.7512H70.3271V26.8353H44.3018V29.9658Z" fill="#009FE3"/>
<path d="M52.7158 49.3719H70.323V36.3632H52.7158V49.3719ZM56.1968 39.4937H66.8499V46.2414H56.1968V39.4937Z" fill="#009FE3"/>
</svg>
