<svg width="299" height="137" viewBox="0 0 299 137" fill="none" xmlns="http://www.w3.org/2000/svg">
<path d="M11.344 4.544H7.76C6.832 6.848 4.656 8.528 1.568 9.424L1.04 8.384C4.464 7.36 6.592 5.456 6.832 2.976H1.776V1.92H8.256C8.256 2.448 8.192 2.976 8.096 3.472H11.344V0.848H12.672V9.424H11.344V7.536H7.584V6.464H11.344V4.544ZM7.984 14.096C10.096 14.096 11.44 13.44 11.44 12.352C11.44 11.28 10.096 10.624 7.984 10.624C5.872 10.624 4.528 11.28 4.528 12.352C4.528 13.44 5.872 14.096 7.984 14.096ZM7.984 9.584C10.88 9.584 12.736 10.624 12.736 12.352C12.736 14.08 10.88 15.12 7.984 15.12C5.088 15.12 3.232 14.08 3.232 12.352C3.232 10.624 5.088 9.584 7.984 9.584ZM19.7748 3.584V4.88C19.7748 7.376 20.8468 9.872 22.8308 10.992L22.0308 11.952C20.6388 11.12 19.6468 9.584 19.1508 7.76C18.6548 9.728 17.6148 11.408 16.1908 12.304L15.3908 11.328C17.3908 10.128 18.5108 7.52 18.5108 4.88V3.584H15.7908V2.512H22.3348V3.584H19.7748ZM23.6148 5.984V1.152H24.8628V14.432H23.6148V7.056H21.2468V5.984H23.6148ZM26.4948 0.815999H27.7588V15.168H26.4948V0.815999ZM38.7495 7.84L38.0935 8.864C36.4935 8.288 35.2615 7.104 34.6215 5.616C34.0135 7.264 32.7015 8.576 31.0215 9.2L30.3335 8.16C32.4615 7.408 33.9495 5.488 33.9495 3.456V2.88H30.7495V1.808H38.4135V2.88H35.2615V3.456C35.2615 5.296 36.6695 7.104 38.7495 7.84ZM32.5095 11.264V10.208H42.1095V15.2H40.7815V11.264H32.5095ZM40.7815 0.832H42.1095V9.424H40.7815V5.648H37.9815V4.576H40.7815V0.832ZM53.0005 10.784C54.3605 10.784 55.3205 9.28 55.3205 6.944C55.3205 4.624 54.3605 3.12 53.0005 3.12C51.6245 3.12 50.6645 4.624 50.6645 6.944C50.6645 9.28 51.6245 10.784 53.0005 10.784ZM59.6725 0.832H60.9845V15.216H59.6725V7.376H56.5525C56.4245 10.192 55.0005 11.952 53.0005 11.952C50.9045 11.952 49.4165 10 49.4165 6.944C49.4165 3.888 50.9045 1.936 53.0005 1.936C54.9365 1.936 56.3445 3.616 56.5525 6.304H59.6725V0.832ZM65.7033 7.264V10.768C67.8153 10.768 69.5753 10.672 71.7193 10.336L71.8313 11.424C69.5753 11.776 67.7352 11.856 65.4953 11.856H64.4073V6.192H69.3513V3.184H64.3753V2.128H70.6473V7.264H65.7033ZM74.3753 0.815999H75.6873V15.2H74.3753V9.104H71.4473V8.032H74.3753V5.168H71.5433V4.096H74.3753V0.815999ZM85.094 2.128C82.806 2.128 81.382 2.752 81.382 3.808C81.382 4.848 82.806 5.472 85.094 5.472C87.35 5.472 88.774 4.848 88.774 3.808C88.774 2.752 87.35 2.128 85.094 2.128ZM85.094 6.48C81.974 6.48 80.038 5.504 80.038 3.808C80.038 2.096 81.974 1.104 85.094 1.104C88.182 1.104 90.118 2.096 90.118 3.808C90.118 5.504 88.182 6.48 85.094 6.48ZM88.71 13.936V11.312H81.478V13.936H88.71ZM91.574 8.64H85.75V10.272H89.99V14.992H80.198V10.272H84.438V8.64H78.598V7.584H91.574V8.64ZM99.7968 1.728C102.773 1.728 105.013 3.312 105.013 5.696C105.013 8.096 102.773 9.664 99.7968 9.664C96.8208 9.664 94.5807 8.096 94.5807 5.696C94.5807 3.312 96.8208 1.728 99.7968 1.728ZM99.7968 2.8C97.5408 2.8 95.8288 3.968 95.8288 5.696C95.8288 7.44 97.5408 8.592 99.7968 8.592C102.069 8.592 103.765 7.44 103.765 5.696C103.765 3.968 102.069 2.8 99.7968 2.8ZM93.3008 12.192H106.341V13.28H93.3008V12.192ZM115.188 12.336H121.06V13.408H108.02V12.336H113.86V9.632H109.652V5.2H118.164V2.96H109.62V1.888H119.444V6.256H110.948V8.576H119.78V9.632H115.188V12.336ZM132.191 4.368V5.472C132.191 7.872 133.823 10.208 135.951 11.136L135.231 12.16C133.583 11.408 132.223 9.856 131.567 7.968C130.927 9.968 129.567 11.6 127.919 12.4L127.183 11.408C129.311 10.4 130.895 7.984 130.895 5.472V4.368H127.567V3.312H130.879V1.088H132.207V3.312H135.47V4.368H132.191ZM137.343 0.815999H138.671V15.168H137.343V0.815999ZM145.453 10.784C146.829 10.784 147.805 9.28 147.805 6.944C147.805 4.624 146.829 3.12 145.453 3.12C144.061 3.12 143.085 4.624 143.085 6.944C143.085 9.28 144.061 10.784 145.453 10.784ZM145.453 1.936C147.565 1.936 149.053 3.888 149.053 6.944C149.053 10 147.565 11.952 145.453 11.952C143.341 11.952 141.837 10 141.837 6.944C141.837 3.888 143.341 1.936 145.453 1.936ZM155.037 6.56V7.664H152.669V15.184H151.357V0.848H152.669V6.56H155.037ZM166.492 3.856V3.344H157.692V2.272H167.804V3.856C167.804 5.68 167.804 7.552 167.292 10.24L165.996 10.08C166.492 7.52 166.492 5.632 166.492 3.856ZM164.38 12.096H169.324V13.168H156.348V12.096H159.532V7.344H160.828V12.096H163.084V7.344H164.38V12.096ZM178.731 4.56H181.563V0.848H182.891V9.392H181.563V5.632H178.731V4.56ZM179.531 7.824L178.875 8.848C177.275 8.272 176.043 7.088 175.419 5.616C174.811 7.28 173.483 8.624 171.803 9.264L171.115 8.224C173.259 7.44 174.731 5.504 174.731 3.44V2.944H171.531V1.888H179.195V2.944H176.043V3.44C176.043 5.28 177.451 7.088 179.531 7.824ZM178.155 14.16C180.315 14.16 181.627 13.552 181.627 12.512C181.627 11.472 180.315 10.848 178.155 10.848C175.995 10.848 174.683 11.472 174.683 12.512C174.683 13.552 175.995 14.16 178.155 14.16ZM178.155 9.84C181.099 9.84 182.939 10.816 182.939 12.512C182.939 14.208 181.099 15.184 178.155 15.184C175.211 15.184 173.371 14.208 173.371 12.512C173.371 10.816 175.211 9.84 178.155 9.84ZM196.218 0.832H197.53V15.216H196.218V0.832ZM189.962 1.936C192.09 1.936 193.61 3.888 193.61 6.944C193.61 10 192.09 11.952 189.962 11.952C187.834 11.952 186.314 10 186.314 6.944C186.314 3.888 187.834 1.936 189.962 1.936ZM189.962 3.12C188.554 3.12 187.562 4.624 187.562 6.944C187.562 9.28 188.554 10.784 189.962 10.784C191.354 10.784 192.346 9.28 192.346 6.944C192.346 4.624 191.354 3.12 189.962 3.12ZM216.453 0.832V8.288H215.141V0.832H216.453ZM207.989 2.832V6.656C208.757 6.64 209.541 6.608 210.325 6.56V2.832H207.989ZM213.701 6.288L213.765 7.248C210.917 7.68 207.573 7.776 205.045 7.792L204.917 6.704C205.477 6.704 206.085 6.704 206.709 6.688V2.832H205.301V1.792H212.997V2.832H211.589V6.48C212.309 6.432 213.013 6.352 213.701 6.288ZM208.421 13.984H216.997V15.024H207.125V11.44H215.157V10H207.077V8.976H216.453V12.416H208.421V13.984ZM223.875 8.88V12.256H227.875V8.88C227.267 9.024 226.579 9.104 225.859 9.104C225.155 9.104 224.467 9.024 223.875 8.88ZM225.859 2.768C223.555 2.768 221.907 3.824 221.907 5.424C221.907 7.024 223.555 8.08 225.859 8.08C228.163 8.08 229.827 7.024 229.827 5.424C229.827 3.824 228.163 2.768 225.859 2.768ZM229.187 12.256H232.403V13.344H219.363V12.256H222.563V8.384C221.363 7.76 220.643 6.72 220.643 5.424C220.643 3.184 222.819 1.744 225.859 1.744C228.915 1.744 231.075 3.184 231.075 5.424C231.075 6.72 230.371 7.744 229.187 8.368V12.256ZM242.61 2.592V3.648H234.146V2.592H237.714V0.832H239.026V2.592H242.61ZM236.194 7.104C236.194 8.112 237.074 8.752 238.37 8.752C239.666 8.752 240.562 8.112 240.562 7.104C240.562 6.112 239.666 5.472 238.37 5.472C237.074 5.472 236.194 6.112 236.194 7.104ZM241.81 7.104C241.81 8.72 240.402 9.776 238.37 9.776C236.338 9.776 234.946 8.72 234.946 7.104C234.946 5.504 236.338 4.448 238.37 4.448C240.402 4.448 241.81 5.504 241.81 7.104ZM237.618 10.752V13.792H245.874V14.864H236.306V10.752H237.618ZM245.234 5.568H247.346V6.672H245.234V11.6H243.922V0.832H245.234V5.568ZM257.213 3.6V4.72C257.213 7.344 258.253 9.664 260.285 10.72L259.517 11.728C258.109 10.944 257.117 9.552 256.605 7.856C256.125 9.808 255.117 11.36 253.629 12.224L252.829 11.232C254.877 10.08 255.949 7.632 255.949 4.72V3.6H253.165V2.528H259.821V3.6H257.213ZM263.949 0.815999H265.213V15.184H263.949V7.712H262.061V14.48H260.829V1.152H262.061V6.624H263.949V0.815999ZM275.996 7.12L276.14 8.176C274.172 8.576 272.476 8.672 269.468 8.672H268.348V2.08H274.7V3.136H269.66V7.6C272.492 7.6 274.124 7.488 275.996 7.12ZM271.212 10.176V13.792H279.468V14.864H269.9V10.176H271.212ZM278.828 5.088H280.956V6.176H278.828V11.216H277.516V0.832H278.828V5.088ZM10.912 37.92V34.992H3.76V37.92H10.912ZM13.872 31.52H7.984V33.936H12.192V38.976H2.464V33.936H6.672V31.52H0.832V30.464H4.848C5.312 28.736 5.408 27.456 5.44 26.576H2.096V25.52H6.704V25.936C6.704 26.72 6.704 28.304 6.176 30.464H10.56C10.944 28.72 11.008 27.456 11.024 26.576H7.776V25.52H12.304V26.08C12.304 26.944 12.304 28.416 11.856 30.464H13.872V31.52ZM23.8868 31.776L23.2628 32.8C21.6308 32.272 20.3988 31.136 19.7908 29.712C19.1828 31.344 17.8868 32.624 16.1748 33.232L15.5028 32.192C17.6628 31.44 19.1028 29.584 19.1028 27.52V26.96H15.8868V25.904H23.5828V26.96H20.4148V27.52C20.4148 29.392 21.7748 31.072 23.8868 31.776ZM22.1428 38.128C24.2548 38.128 25.5508 37.536 25.5508 36.512C25.5508 35.504 24.2548 34.912 22.1428 34.912C19.9988 34.912 18.7188 35.504 18.7188 36.512C18.7188 37.536 19.9988 38.128 22.1428 38.128ZM22.1428 33.872C25.0548 33.872 26.8628 34.848 26.8628 36.512C26.8628 38.192 25.0548 39.168 22.1428 39.168C19.1988 39.168 17.4068 38.192 17.4068 36.512C17.4068 34.848 19.1988 33.872 22.1428 33.872ZM26.7028 28.464H28.8308V29.568H26.7028V33.504H25.3908V24.848H26.7028V28.464ZM38.7975 26.352V27.408H30.3335V26.352H33.9015V24.752H35.2135V26.352H38.7975ZM32.3815 30.736C32.3815 31.696 33.2455 32.32 34.5575 32.32C35.8695 32.32 36.7495 31.696 36.7495 30.736C36.7495 29.792 35.8695 29.168 34.5575 29.168C33.2455 29.168 32.3815 29.792 32.3815 30.736ZM37.9975 30.736C37.9975 32.32 36.6055 33.328 34.5575 33.328C32.5255 33.328 31.1335 32.32 31.1335 30.736C31.1335 29.168 32.5255 28.144 34.5575 28.144C36.6055 28.144 37.9975 29.168 37.9975 30.736ZM32.1095 35.664V34.592H41.4215V39.2H40.1095V35.664H32.1095ZM43.5495 28.8V29.888H41.4215V33.808H40.1095V24.848H41.4215V28.8H43.5495ZM54.0283 29.76V33.232H52.7803V25.12H54.0283V28.688H55.8523V24.848H57.1163V33.696H55.8523V29.76H54.0283ZM52.1883 31.568L51.4843 32.576C50.1403 32.032 49.1643 31.008 48.6523 29.792C48.1403 31.136 47.1163 32.352 45.7243 32.976L45.0203 31.952C46.8923 31.12 48.0123 29.264 48.0123 27.664V25.728H49.2763V27.664C49.2763 29.248 50.3483 30.864 52.1883 31.568ZM52.3802 38.16C54.5563 38.16 55.8843 37.584 55.8843 36.592C55.8843 35.6 54.5563 35.04 52.3802 35.04C50.2363 35.04 48.8923 35.6 48.8923 36.592C48.8923 37.584 50.2363 38.16 52.3802 38.16ZM52.3802 34.016C55.3403 34.016 57.1803 34.96 57.1803 36.592C57.1803 38.224 55.3403 39.168 52.3802 39.168C49.4363 39.168 47.5963 38.224 47.5963 36.592C47.5963 34.96 49.4363 34.016 52.3802 34.016ZM62.971 34.816C64.091 34.816 64.827 33.36 64.827 31.008C64.827 28.704 64.091 27.248 62.971 27.248C61.819 27.248 61.099 28.704 61.099 31.008C61.099 33.36 61.819 34.816 62.971 34.816ZM67.819 30.416V25.152H69.067V38.48H67.819V31.488H66.011C65.899 34.304 64.731 36.032 62.971 36.032C61.099 36.032 59.899 34.112 59.899 31.008C59.899 27.952 61.099 26.032 62.971 26.032C64.699 26.032 65.851 27.712 66.011 30.416H67.819ZM70.667 24.832H71.915V39.184H70.667V24.832ZM82.3938 30.704V25.216H83.6418V38.464H82.3938V31.76H79.4498C78.5858 33.424 77.2098 34.912 75.2258 36.096L74.4578 35.152C77.5298 33.312 79.0658 30.736 79.3058 27.728H75.0658V26.656H80.6018C80.6018 28.064 80.3938 29.424 79.9138 30.704H82.3938ZM85.3858 24.832H86.6338V39.184H85.3858V24.832ZM95.1248 27.648V34.56C97.0448 34.544 98.4048 34.464 99.9728 34.128L100.085 35.216C98.3728 35.584 96.9168 35.648 94.7728 35.648H93.8288V26.576H99.1728V27.648H95.1248ZM104.245 24.832H105.509V39.184H104.245V31.664H102.213V38.464H100.981V25.152H102.213V30.592H104.245V24.832ZM116.548 26.592V27.648H108.084V26.592H111.652V24.832H112.964V26.592H116.548ZM110.132 31.104C110.132 32.112 111.012 32.752 112.308 32.752C113.604 32.752 114.5 32.112 114.5 31.104C114.5 30.112 113.604 29.472 112.308 29.472C111.012 29.472 110.132 30.112 110.132 31.104ZM115.748 31.104C115.748 32.72 114.34 33.776 112.308 33.776C110.276 33.776 108.884 32.72 108.884 31.104C108.884 29.504 110.276 28.448 112.308 28.448C114.34 28.448 115.748 29.504 115.748 31.104ZM111.556 34.752V37.792H119.812V38.864H110.244V34.752H111.556ZM119.172 29.568H121.284V30.672H119.172V35.6H117.86V24.832H119.172V29.568ZM128.034 28.368V29.472C128.034 31.872 129.666 34.208 131.794 35.136L131.074 36.16C129.426 35.408 128.066 33.856 127.41 31.968C126.77 33.968 125.41 35.6 123.762 36.4L123.026 35.408C125.154 34.4 126.738 31.984 126.738 29.472V28.368H123.41V27.312H126.722V25.088H128.05V27.312H131.314V28.368H128.034ZM133.186 24.816H134.514V39.168H133.186V24.816ZM144.961 32.88L143.649 32.752C144.049 30.368 144.081 28.624 144.081 27.472H138.113V26.4H145.361V27.184C145.361 28.336 145.361 30.208 144.961 32.88ZM141.665 30.496V34.88C143.233 34.816 144.833 34.72 146.289 34.544L146.369 35.504C143.393 35.984 140.017 36.048 137.473 36.048L137.329 34.96C138.241 34.96 139.297 34.944 140.369 34.912V30.496H141.665ZM150.769 30.832V31.936H148.481V39.184H147.169V24.832H148.481V30.832H150.769ZM162.336 27.856V27.344H153.536V26.272H163.648V27.856C163.648 29.68 163.648 31.552 163.136 34.24L161.84 34.08C162.336 31.52 162.336 29.632 162.336 27.856ZM160.224 36.096H165.168V37.168H152.192V36.096H155.376V31.344H156.672V36.096H158.928V31.344H160.224V36.096ZM174.575 28.56H177.407V24.848H178.735V33.392H177.407V29.632H174.575V28.56ZM175.375 31.824L174.719 32.848C173.119 32.272 171.887 31.088 171.263 29.616C170.655 31.28 169.327 32.624 167.647 33.264L166.959 32.224C169.103 31.44 170.575 29.504 170.575 27.44V26.944H167.375V25.888H175.039V26.944H171.887V27.44C171.887 29.28 173.295 31.088 175.375 31.824ZM173.999 38.16C176.159 38.16 177.471 37.552 177.471 36.512C177.471 35.472 176.159 34.848 173.999 34.848C171.839 34.848 170.527 35.472 170.527 36.512C170.527 37.552 171.839 38.16 173.999 38.16ZM173.999 33.84C176.943 33.84 178.783 34.816 178.783 36.512C178.783 38.208 176.943 39.184 173.999 39.184C171.055 39.184 169.215 38.208 169.215 36.512C169.215 34.816 171.055 33.84 173.999 33.84ZM190.141 26.352V27.408H181.677V26.352H185.245V24.752H186.557V26.352H190.141ZM183.725 30.736C183.725 31.696 184.589 32.32 185.901 32.32C187.213 32.32 188.093 31.696 188.093 30.736C188.093 29.792 187.213 29.168 185.901 29.168C184.589 29.168 183.725 29.792 183.725 30.736ZM189.341 30.736C189.341 32.32 187.949 33.328 185.901 33.328C183.869 33.328 182.477 32.32 182.477 30.736C182.477 29.168 183.869 28.144 185.901 28.144C187.949 28.144 189.341 29.168 189.341 30.736ZM183.453 35.664V34.592H192.765V39.2H191.453V35.664H183.453ZM194.893 28.8V29.888H192.765V33.808H191.453V24.848H192.765V28.8H194.893ZM205.452 26.592V27.648H196.732V26.592H200.444V24.832H201.756V26.592H205.452ZM198.892 31.12C198.892 32.112 199.788 32.752 201.1 32.752C202.396 32.752 203.292 32.112 203.292 31.12C203.292 30.112 202.396 29.472 201.1 29.472C199.788 29.472 198.892 30.112 198.892 31.12ZM201.756 33.744V35.248C203.116 35.184 204.508 35.088 205.82 34.912L205.916 35.888C202.716 36.416 199.26 36.464 196.62 36.464L196.428 35.36C197.644 35.36 199.02 35.344 200.444 35.296V33.76C198.748 33.552 197.644 32.56 197.644 31.12C197.644 29.504 199.052 28.464 201.1 28.464C203.148 28.464 204.54 29.504 204.54 31.12C204.54 32.544 203.452 33.536 201.756 33.744ZM206.732 24.832H208.044V39.184H206.732V24.832ZM212.827 29.136C212.827 30.496 213.883 31.392 215.355 31.392C216.811 31.392 217.867 30.496 217.867 29.136C217.867 27.792 216.811 26.864 215.355 26.864C213.883 26.864 212.827 27.792 212.827 29.136ZM216.011 32.464V34.896C217.323 34.832 218.651 34.752 219.883 34.576L219.995 35.536C216.955 36.048 213.611 36.096 211.083 36.096L210.907 34.992C212.043 34.992 213.355 34.976 214.699 34.944V32.464C212.827 32.24 211.547 30.928 211.547 29.136C211.547 27.12 213.131 25.76 215.355 25.76C217.547 25.76 219.147 27.12 219.147 29.136C219.147 30.928 217.851 32.224 216.011 32.464ZM224.379 30.752V31.856H222.107V39.184H220.795V24.816H222.107V30.752H224.379ZM235.91 34.656V30.88H231.814V34.656H235.91ZM235.91 29.84V26.048H237.19V35.728H230.518V26.048H231.814V29.84H235.91ZM243.35 30.48V31.584H240.982V39.168H239.67V24.848H240.982V30.48H243.35ZM254.709 27.904V26.336H246.293V25.312H256.005V28.88H247.621V30.448H256.309V31.472H246.325V27.904H254.709ZM247.669 34.96V37.792H256.309V38.864H246.357V34.96H247.669ZM244.645 32.784H257.669V33.856H244.645V32.784ZM269.811 24.832H271.123V39.216H269.811V24.832ZM263.555 25.936C265.683 25.936 267.203 27.888 267.203 30.944C267.203 34 265.683 35.952 263.555 35.952C261.427 35.952 259.907 34 259.907 30.944C259.907 27.888 261.427 25.936 263.555 25.936ZM263.555 27.12C262.147 27.12 261.155 28.624 261.155 30.944C261.155 33.28 262.147 34.784 263.555 34.784C264.947 34.784 265.939 33.28 265.939 30.944C265.939 28.624 264.947 27.12 263.555 27.12ZM280.594 38.16C282.85 38.16 284.162 37.616 284.162 36.672C284.162 35.712 282.85 35.168 280.594 35.168C278.322 35.168 276.994 35.712 276.994 36.672C276.994 37.616 278.322 38.16 280.594 38.16ZM280.594 34.16C283.634 34.16 285.49 35.056 285.49 36.672C285.49 38.272 283.634 39.168 280.594 39.168C277.522 39.168 275.666 38.272 275.666 36.672C275.666 35.056 277.522 34.16 280.594 34.16ZM277.106 27.824V29.456H284.082V27.824H277.106ZM281.25 32.016H287.074V33.088H274.082V32.016H279.938V30.496H275.81V25.216H277.106V26.816H284.082V25.216H285.378V30.496H281.25V32.016ZM5.664 50.08V52.656C5.664 55.184 7.296 57.792 9.312 58.8L8.496 59.84C6.976 59.024 5.68 57.344 5.024 55.376C4.4 57.472 3.072 59.264 1.456 60.128L0.672 59.072C2.736 58.016 4.368 55.264 4.368 52.656V50.08H5.664ZM14.256 54.656V55.744H11.888V63.184H10.576V48.848H11.888V54.656H14.256ZM24.6708 50.592V51.648H15.9508V50.592H19.6628V48.832H20.9748V50.592H24.6708ZM18.1108 55.12C18.1108 56.112 19.0068 56.752 20.3188 56.752C21.6148 56.752 22.5108 56.112 22.5108 55.12C22.5108 54.112 21.6148 53.472 20.3188 53.472C19.0068 53.472 18.1108 54.112 18.1108 55.12ZM20.9748 57.744V59.248C22.3348 59.184 23.7268 59.088 25.0388 58.912L25.1348 59.888C21.9348 60.416 18.4788 60.464 15.8388 60.464L15.6468 59.36C16.8628 59.36 18.2388 59.344 19.6628 59.296V57.76C17.9668 57.552 16.8628 56.56 16.8628 55.12C16.8628 53.504 18.2708 52.464 20.3188 52.464C22.3668 52.464 23.7587 53.504 23.7587 55.12C23.7587 56.544 22.6708 57.536 20.9748 57.744ZM25.9508 48.832H27.2628V63.184H25.9508V48.832ZM46.6498 50.48V51.536H35.1138V50.48H40.2658V48.752H41.5938V50.48H46.6498ZM44.2178 54.752C44.2178 53.872 43.0338 53.36 40.9378 53.36C38.8418 53.36 37.6258 53.872 37.6258 54.752C37.6258 55.632 38.8418 56.144 40.9378 56.144C43.0338 56.144 44.2178 55.632 44.2178 54.752ZM36.2658 54.752C36.2658 53.216 38.0098 52.352 40.9378 52.352C43.8338 52.352 45.5778 53.216 45.5778 54.752C45.5778 56.288 43.8338 57.136 40.9378 57.136C38.0098 57.136 36.2658 56.288 36.2658 54.752ZM47.4498 58.144V59.216H41.5938V63.2H40.2658V59.216H34.4418V58.144H47.4498ZM56.6805 57.312H59.5925V48.832H60.9045V59.76H59.5925V58.288H56.6805V57.312ZM53.7525 50.384C52.3925 50.384 51.4645 50.992 51.4645 51.904C51.4645 52.832 52.3925 53.44 53.7525 53.44C55.1125 53.44 56.0405 52.832 56.0405 51.904C56.0405 50.992 55.1125 50.384 53.7525 50.384ZM53.7525 54.416C51.6565 54.416 50.2165 53.44 50.2165 51.904C50.2165 50.4 51.6565 49.408 53.7525 49.408C55.8485 49.408 57.2885 50.4 57.2885 51.904C57.2885 53.44 55.8485 54.416 53.7525 54.416ZM53.2405 59.248V56.48C51.8165 56.544 50.4405 56.56 49.2565 56.56L49.0805 55.472C51.7365 55.472 55.2885 55.44 58.3285 55.056L58.4405 56C57.1765 56.192 55.8485 56.336 54.5525 56.416V59.248H53.2405ZM52.4405 61.792H61.2725V62.864H51.1285V58.688H52.4405V61.792ZM70.3593 49.728C73.3353 49.728 75.5753 51.312 75.5753 53.696C75.5753 56.096 73.3353 57.664 70.3593 57.664C67.3833 57.664 65.1432 56.096 65.1432 53.696C65.1432 51.312 67.3833 49.728 70.3593 49.728ZM70.3593 50.8C68.1033 50.8 66.3913 51.968 66.3913 53.696C66.3913 55.44 68.1033 56.592 70.3593 56.592C72.6313 56.592 74.3273 55.44 74.3273 53.696C74.3273 51.968 72.6313 50.8 70.3593 50.8ZM63.8633 60.192H76.9033V61.28H63.8633V60.192ZM85.75 60.336H91.622V61.408H78.582V60.336H84.422V57.632H80.214V53.2H88.726V50.96H80.182V49.888H90.006V54.256H81.51V56.576H90.342V57.632H85.75V60.336ZM107.521 54.176V50.688H100.401V54.176H107.521ZM108.817 49.632V55.216H99.121V49.632H108.817ZM110.481 57.168V58.224H104.593V63.168H103.281V58.224H97.457V57.168H110.481ZM117.12 57.616V60.336H120.4V57.616H117.12ZM121.696 60.336H125.216V61.408H112.176V60.336H115.824V57.616H113.808V53.184H122.32V50.96H113.776V49.888H123.6V54.24H115.104V56.544H123.936V57.616H121.696V60.336ZM141.211 51.856V51.344H132.411V50.272H142.523V51.856C142.523 53.68 142.523 55.552 142.011 58.24L140.715 58.08C141.211 55.52 141.211 53.632 141.211 51.856ZM139.099 60.096H144.043V61.168H131.067V60.096H134.251V55.344H135.547V60.096H137.803V55.344H139.099V60.096ZM153.45 52.56H156.282V48.848H157.61V57.392H156.282V53.632H153.45V52.56ZM154.25 55.824L153.594 56.848C151.994 56.272 150.762 55.088 150.138 53.616C149.53 55.28 148.202 56.624 146.522 57.264L145.834 56.224C147.978 55.44 149.45 53.504 149.45 51.44V50.944H146.25V49.888H153.914V50.944H150.762V51.44C150.762 53.28 152.17 55.088 154.25 55.824ZM152.874 62.16C155.034 62.16 156.346 61.552 156.346 60.512C156.346 59.472 155.034 58.848 152.874 58.848C150.714 58.848 149.402 59.472 149.402 60.512C149.402 61.552 150.714 62.16 152.874 62.16ZM152.874 57.84C155.818 57.84 157.658 58.816 157.658 60.512C157.658 62.208 155.818 63.184 152.874 63.184C149.93 63.184 148.09 62.208 148.09 60.512C148.09 58.816 149.93 57.84 152.874 57.84ZM165.509 50.384H172.229C172.229 54.528 170.325 58.176 165.557 60.512L164.853 59.44C168.709 57.6 170.629 54.848 170.901 51.44H165.509V50.384ZM175.125 48.832H176.437V63.184H175.125V48.832ZM188.483 50.592V51.648H179.763V50.592H183.475V48.832H184.787V50.592H188.483ZM181.923 55.12C181.923 56.112 182.819 56.752 184.131 56.752C185.427 56.752 186.323 56.112 186.323 55.12C186.323 54.112 185.427 53.472 184.131 53.472C182.819 53.472 181.923 54.112 181.923 55.12ZM184.787 57.744V59.248C186.147 59.184 187.539 59.088 188.851 58.912L188.947 59.888C185.747 60.416 182.291 60.464 179.651 60.464L179.459 59.36C180.675 59.36 182.051 59.344 183.475 59.296V57.76C181.779 57.552 180.675 56.56 180.675 55.12C180.675 53.504 182.083 52.464 184.131 52.464C186.179 52.464 187.571 53.504 187.571 55.12C187.571 56.544 186.483 57.536 184.787 57.744ZM189.763 48.832H191.075V63.184H189.763V48.832ZM204.146 51.344V50.176H195.73V49.248H205.442V52.24H197.058V53.472H205.698V54.416H195.762V51.344H204.146ZM196.978 60.72V62.048H205.938V62.992H195.682V59.808H204.194V58.608H195.65V57.664H205.49V60.72H196.978ZM194.098 55.504H207.106V56.496H194.098V55.504ZM217.181 51.584V52.88C217.181 55.376 218.253 57.872 220.237 58.992L219.437 59.952C218.045 59.12 217.053 57.584 216.557 55.76C216.061 57.728 215.021 59.408 213.597 60.304L212.797 59.328C214.797 58.128 215.917 55.52 215.917 52.88V51.584H213.197V50.512H219.741V51.584H217.181ZM221.021 53.984V49.152H222.269V62.432H221.021V55.056H218.653V53.984H221.021ZM223.901 48.816H225.165V63.168H223.901V48.816ZM237.724 50.784V50.624H229.244V49.568H239.02V50.784C239.02 51.936 239.02 53.104 238.62 54.576L237.34 54.432C237.724 52.96 237.724 51.904 237.724 50.784ZM234.124 62.144C236.38 62.144 237.82 61.536 237.82 60.544C237.82 59.52 236.38 58.912 234.124 58.912C231.884 58.912 230.444 59.52 230.444 60.544C230.444 61.536 231.884 62.144 234.124 62.144ZM234.124 57.904C237.18 57.904 239.132 58.88 239.132 60.544C239.132 62.176 237.18 63.168 234.124 63.168C231.068 63.168 229.132 62.176 229.132 60.544C229.132 58.88 231.068 57.904 234.124 57.904ZM234.332 55.52H240.636V56.576H227.724V55.52H233.02V52.768H234.332V55.52ZM250.923 50.304V51.36H242.459V50.304H246.027V48.688H247.339V50.304H250.923ZM244.507 54.544C244.507 55.488 245.371 56.064 246.683 56.064C247.995 56.064 248.875 55.488 248.875 54.544C248.875 53.616 247.995 53.024 246.683 53.024C245.371 53.024 244.507 53.616 244.507 54.544ZM250.123 54.544C250.123 56.08 248.731 57.056 246.683 57.056C244.635 57.056 243.259 56.08 243.259 54.544C243.259 53.024 244.635 52.048 246.683 52.048C248.731 52.048 250.123 53.024 250.123 54.544ZM252.251 61.936V60.352H245.819V61.936H252.251ZM252.251 59.328V57.808H253.547V62.992H244.523V57.808H245.819V59.328H252.251ZM255.675 52.48V53.584H253.547V57.168H252.235V48.832H253.547V52.48H255.675ZM259.337 50.224V58.352C261.497 58.352 263.721 58.16 266.105 57.68L266.249 58.8C263.753 59.312 261.497 59.472 259.209 59.472H258.025V50.224H259.337ZM267.577 48.832H268.889V63.168H267.577V48.832ZM273.768 51.296V58.512C276.312 58.512 278.152 58.4 280.232 58.032L280.376 59.12C278.184 59.536 276.296 59.632 273.592 59.632H272.456V50.208H279.128V51.296H273.768ZM285.256 54.496V55.584H282.888V63.216H281.576V48.832H282.888V54.496H285.256ZM286.871 61.136C286.871 60.7413 286.967 60.464 287.159 60.304C287.351 60.144 287.58 60.064 287.847 60.064C288.124 60.064 288.359 60.144 288.551 60.304C288.753 60.464 288.855 60.7413 288.855 61.136C288.855 61.52 288.753 61.7973 288.551 61.968C288.359 62.1387 288.124 62.224 287.847 62.224C287.58 62.224 287.351 62.1387 287.159 61.968C286.967 61.7973 286.871 61.52 286.871 61.136ZM2.592 75.536V82.288H5.6V75.536H2.592ZM1.36 83.328V74.496H6.816V83.328H1.36ZM11.792 72.832H13.04V87.168H11.792V79.584H9.856V86.464H8.624V73.152H9.856V78.512H11.792V72.832ZM26.0628 83.472V78.496H22.0148V77.456H26.0628V75.76H22.0148V74.704H26.0628V72.848H27.3908V83.472H26.0628ZM23.6948 79.728L23.8388 80.816C21.5348 81.232 19.5988 81.344 17.4868 81.344H16.3988V73.872H17.7108V80.24C19.6788 80.224 21.5508 80.112 23.6948 79.728ZM19.5028 85.792H27.7588V86.864H18.1908V82.56H19.5028V85.792ZM39.2738 86H37.8978V78.016C37.8978 77.7067 37.8978 77.4453 37.8978 77.232C37.9084 77.0187 37.9191 76.8213 37.9298 76.64C37.9404 76.448 37.9511 76.2507 37.9618 76.048C37.7911 76.2187 37.6364 76.3627 37.4978 76.48C37.3591 76.5973 37.1831 76.7467 36.9698 76.928L35.7538 77.92L35.0178 76.976L38.1058 74.576H39.2738V86ZM51.182 79.664H54.03V72.848H55.342V81.28H54.03V80.528H51.182V79.664ZM48.19 74.032C46.798 74.032 45.886 74.512 45.886 75.28C45.886 76.016 46.798 76.512 48.19 76.512C49.598 76.512 50.494 76.016 50.494 75.28C50.494 74.512 49.598 74.032 48.19 74.032ZM48.19 77.408C46.062 77.408 44.654 76.592 44.654 75.28C44.654 73.936 46.062 73.12 48.19 73.12C50.318 73.12 51.726 73.936 51.726 75.28C51.726 76.592 50.318 77.408 48.19 77.408ZM47.454 81.328V79.184C46.126 79.216 44.862 79.232 43.71 79.232L43.55 78.24C46.318 78.24 49.822 78.224 52.894 77.872L52.974 78.736C51.582 78.928 50.158 79.04 48.766 79.12V81.328H47.454ZM47.054 86.048H55.838V87.024H45.758V83.904H54.062V82.752H45.726V81.808H55.342V84.8H47.054V86.048ZM60.5408 84.32C60.4448 84.6933 60.3221 85.0987 60.1728 85.536C60.0234 85.9733 59.8581 86.4053 59.6768 86.832C59.5061 87.2693 59.3354 87.68 59.1648 88.064H58.1248C58.2314 87.6587 58.3328 87.2213 58.4288 86.752C58.5354 86.2933 58.6314 85.84 58.7168 85.392C58.8021 84.9333 58.8714 84.5173 58.9248 84.144H60.4288L60.5408 84.32ZM76.8983 75.856V75.344H68.0983V74.272H78.2103V75.856C78.2103 77.68 78.2103 79.552 77.6983 82.24L76.4023 82.08C76.8983 79.52 76.8983 77.632 76.8983 75.856ZM74.7863 84.096H79.7303V85.168H66.7543V84.096H69.9383V79.344H71.2343V84.096H73.4903V79.344H74.7863V84.096ZM87.953 74.208C85.681 74.208 84.257 74.848 84.257 75.92C84.257 76.992 85.681 77.632 87.953 77.632C90.225 77.632 91.649 76.992 91.649 75.92C91.649 74.848 90.225 74.208 87.953 74.208ZM87.953 78.656C84.865 78.656 82.913 77.648 82.913 75.92C82.913 74.192 84.865 73.168 87.953 73.168C91.057 73.168 92.993 74.192 92.993 75.92C92.993 77.648 91.057 78.656 87.953 78.656ZM89.713 82.624V80.8H86.209V82.624H89.713ZM94.449 80.8H91.025V82.624H92.849V87.2H91.537V83.68H82.913V82.624H84.897V80.8H81.473V79.744H94.449V80.8ZM106.24 78.544V76.432H99.1198V78.544H106.24ZM107.552 73.408V79.616H97.8238V73.408H99.1198V75.376H106.24V73.408H107.552ZM109.2 81.344V82.4H103.312V87.2H102V82.4H96.1758V81.344H109.2ZM112.671 77.136C112.671 78.496 113.727 79.392 115.199 79.392C116.655 79.392 117.711 78.496 117.711 77.136C117.711 75.792 116.655 74.864 115.199 74.864C113.727 74.864 112.671 75.792 112.671 77.136ZM115.855 80.464V82.896C117.167 82.832 118.495 82.752 119.727 82.576L119.839 83.536C116.799 84.048 113.455 84.096 110.927 84.096L110.751 82.992C111.887 82.992 113.199 82.976 114.543 82.944V80.464C112.671 80.24 111.391 78.928 111.391 77.136C111.391 75.12 112.975 73.76 115.199 73.76C117.391 73.76 118.991 75.12 118.991 77.136C118.991 78.928 117.695 80.224 115.855 80.464ZM124.223 78.752V79.856H121.951V87.184H120.639V72.816H121.951V78.752H124.223ZM138.122 79.504L137.418 80.528C135.85 79.936 134.634 78.768 133.994 77.28C133.402 78.96 132.122 80.272 130.426 80.928L129.738 79.888C131.898 79.104 133.306 77.184 133.306 75.008V73.552H134.618V74.976C134.618 76.944 136.042 78.768 138.122 79.504ZM133.194 82.928V85.936H139.626V82.928H133.194ZM131.914 86.992V81.888H140.922V86.992H131.914ZM143.05 76.416V77.504H140.922V81.232H139.61V72.848H140.922V76.416H143.05ZM155 81.328V76.96H151.88V75.888H155V72.848H156.328V81.328H155ZM152.92 79.632L152.216 80.656C150.648 80.064 149.432 78.928 148.808 77.44C148.2 79.136 146.904 80.432 145.176 81.088L144.488 80.016C146.696 79.232 148.12 77.312 148.12 75.12V73.648H149.432V75.072C149.432 77.12 150.824 78.896 152.92 79.632ZM151.592 86.128C153.752 86.128 155.064 85.504 155.064 84.464C155.064 83.408 153.752 82.784 151.592 82.784C149.432 82.784 148.12 83.408 148.12 84.464C148.12 85.504 149.432 86.128 151.592 86.128ZM151.592 81.76C154.536 81.76 156.376 82.736 156.376 84.464C156.376 86.176 154.536 87.168 151.592 87.168C148.648 87.168 146.808 86.176 146.808 84.464C146.808 82.736 148.648 81.76 151.592 81.76ZM169.287 85.92V82.992H162.135V85.92H169.287ZM172.247 79.52H166.359V81.936H170.567V86.976H160.839V81.936H165.047V79.52H159.207V78.464H163.223C163.687 76.736 163.783 75.456 163.815 74.576H160.471V73.52H165.079V73.936C165.079 74.72 165.079 76.304 164.551 78.464H168.935C169.319 76.72 169.383 75.456 169.399 74.576H166.151V73.52H170.679V74.08C170.679 74.944 170.679 76.416 170.231 78.464H172.247V79.52ZM182.262 79.776L181.638 80.8C180.006 80.272 178.774 79.136 178.166 77.712C177.558 79.344 176.262 80.624 174.55 81.232L173.878 80.192C176.038 79.44 177.478 77.584 177.478 75.52V74.96H174.262V73.904H181.958V74.96H178.79V75.52C178.79 77.392 180.15 79.072 182.262 79.776ZM180.518 86.128C182.63 86.128 183.926 85.536 183.926 84.512C183.926 83.504 182.63 82.912 180.518 82.912C178.374 82.912 177.094 83.504 177.094 84.512C177.094 85.536 178.374 86.128 180.518 86.128ZM180.518 81.872C183.43 81.872 185.238 82.848 185.238 84.512C185.238 86.192 183.43 87.168 180.518 87.168C177.574 87.168 175.782 86.192 175.782 84.512C175.782 82.848 177.574 81.872 180.518 81.872ZM185.078 76.464H187.206V77.568H185.078V81.504H183.766V72.848H185.078V76.464ZM197.173 74.352V75.408H188.709V74.352H192.277V72.752H193.589V74.352H197.173ZM190.757 78.736C190.757 79.696 191.621 80.32 192.933 80.32C194.245 80.32 195.125 79.696 195.125 78.736C195.125 77.792 194.245 77.168 192.933 77.168C191.621 77.168 190.757 77.792 190.757 78.736ZM196.373 78.736C196.373 80.32 194.981 81.328 192.933 81.328C190.901 81.328 189.509 80.32 189.509 78.736C189.509 77.168 190.901 76.144 192.933 76.144C194.981 76.144 196.373 77.168 196.373 78.736ZM190.485 83.664V82.592H199.797V87.2H198.485V83.664H190.485ZM201.925 76.8V77.888H199.797V81.808H198.485V72.848H199.797V76.8H201.925ZM207.619 75.6V76.72C207.619 79.344 208.659 81.664 210.691 82.72L209.923 83.728C208.515 82.944 207.523 81.552 207.011 79.856C206.531 81.808 205.523 83.36 204.035 84.224L203.235 83.232C205.283 82.08 206.355 79.632 206.355 76.72V75.6H203.571V74.528H210.227V75.6H207.619ZM214.355 72.816H215.619V87.184H214.355V79.712H212.467V86.48H211.235V73.152H212.467V78.624H214.355V72.816ZM226.402 79.12L226.546 80.176C224.578 80.576 222.882 80.672 219.874 80.672H218.754V74.08H225.106V75.136H220.066V79.6C222.898 79.6 224.53 79.488 226.402 79.12ZM221.618 82.176V85.792H229.874V86.864H220.306V82.176H221.618ZM229.234 77.088H231.362V78.176H229.234V83.216H227.922V72.832H229.234V77.088ZM248.445 77.232V78.288H238.605V73.408H248.349V74.464H239.917V77.232H248.445ZM243.453 86.144C245.693 86.144 247.037 85.584 247.037 84.576C247.037 83.568 245.709 83.008 243.453 83.008C241.197 83.008 239.869 83.568 239.869 84.576C239.869 85.584 241.197 86.144 243.453 86.144ZM243.453 81.984C246.509 81.984 248.365 82.912 248.365 84.576C248.365 86.24 246.509 87.168 243.453 87.168C240.397 87.168 238.541 86.24 238.541 84.576C238.541 82.912 240.397 81.984 243.453 81.984ZM236.973 79.664H249.965V80.752H236.973V79.664ZM265.88 74.784V74.624H257.4V73.568H267.176V74.784C267.176 75.936 267.176 77.104 266.776 78.576L265.496 78.432C265.88 76.96 265.88 75.904 265.88 74.784ZM262.28 86.144C264.536 86.144 265.976 85.536 265.976 84.544C265.976 83.52 264.536 82.912 262.28 82.912C260.04 82.912 258.6 83.52 258.6 84.544C258.6 85.536 260.04 86.144 262.28 86.144ZM262.28 81.904C265.336 81.904 267.288 82.88 267.288 84.544C267.288 86.176 265.336 87.168 262.28 87.168C259.224 87.168 257.288 86.176 257.288 84.544C257.288 82.88 259.224 81.904 262.28 81.904ZM262.488 79.52H268.792V80.576H255.88V79.52H261.176V76.768H262.488V79.52ZM277.063 86.16C279.303 86.16 280.631 85.6 280.631 84.592C280.631 83.584 279.303 83.024 277.063 83.024C274.791 83.024 273.463 83.584 273.463 84.592C273.463 85.6 274.791 86.16 277.063 86.16ZM277.063 82C280.103 82 281.959 82.928 281.959 84.592C281.959 86.256 280.103 87.184 277.063 87.184C273.991 87.184 272.135 86.256 272.135 84.592C272.135 82.928 273.991 82 277.063 82ZM277.719 79.92H283.559V80.976H270.567V79.92H276.407V78.256H272.199V73.488H281.943V74.544H273.511V77.2H282.039V78.256H277.719V79.92ZM286.566 79.808L286.07 78.768C288.566 78.4 291.046 76.752 291.046 74.864V74.784H286.518V73.728H296.998V74.784H292.502V74.864C292.502 76.752 294.982 78.4 297.51 78.768L296.998 79.808C294.774 79.424 292.646 78.224 291.782 76.528C290.902 78.224 288.79 79.424 286.566 79.808ZM298.262 81.008L298.278 82.08H292.406V87.184H291.094V82.08H285.302V81.008H298.262ZM8.384 102.96L7.088 102.816C7.424 101.168 7.472 99.936 7.472 99.024H1.616V97.952H8.752V98.704C8.752 99.648 8.752 101.072 8.384 102.96ZM9.744 103.824L9.84 104.784C6.864 105.28 3.424 105.36 0.88 105.36L0.752 104.288C1.664 104.288 2.704 104.272 3.792 104.256V101.152H5.088V104.208C6.656 104.144 8.288 104.016 9.744 103.824ZM4.256 106.656V109.792H12.48V110.864H2.944V106.656H4.256ZM12.016 101.504H14.064V102.592H12.016V107.648H10.704V96.832H12.016V101.504ZM22.0468 97.728C25.0228 97.728 27.2628 99.312 27.2628 101.696C27.2628 104.096 25.0228 105.664 22.0468 105.664C19.0708 105.664 16.8307 104.096 16.8307 101.696C16.8307 99.312 19.0708 97.728 22.0468 97.728ZM22.0468 98.8C19.7908 98.8 18.0788 99.968 18.0788 101.696C18.0788 103.44 19.7908 104.592 22.0468 104.592C24.3188 104.592 26.0148 103.44 26.0148 101.696C26.0148 99.968 24.3188 98.8 22.0468 98.8ZM15.5508 108.192H28.5908V109.28H15.5508V108.192ZM37.4375 108.336H43.3095V109.408H30.2695V108.336H36.1095V105.632H31.9015V101.2H40.4135V98.96H31.8695V97.888H41.6935V102.256H33.1975V104.576H42.0295V105.632H37.4375V108.336ZM55.6245 98.464C53.4485 98.464 51.9605 99.28 51.9605 100.544C51.9605 101.824 53.4485 102.64 55.6245 102.64C57.8165 102.64 59.3045 101.824 59.3045 100.544C59.3045 99.28 57.8165 98.464 55.6245 98.464ZM55.6245 103.696C52.6485 103.696 50.6165 102.48 50.6165 100.544C50.6165 98.624 52.6485 97.408 55.6245 97.408C58.6165 97.408 60.6485 98.624 60.6485 100.544C60.6485 102.48 58.6165 103.696 55.6245 103.696ZM62.1525 105.056V106.144H56.2805V111.2H54.9685V106.144H49.1605V105.056H62.1525ZM76.2313 102.304L75.6873 103.36C73.4633 102.976 71.3033 101.728 70.3753 100C69.4793 101.744 67.3193 102.976 65.0793 103.36L64.5513 102.304C67.1593 101.92 69.6873 100.192 69.6873 98.144V97.344H71.0633V98.144C71.0633 100.144 73.6233 101.92 76.2313 102.304ZM76.8553 104.912L76.8713 106H70.9993V111.2H69.6873V106H63.8953V104.912H76.8553ZM88.7063 103.296V100.928H84.6423V103.296H88.7063ZM89.9862 97.744V104.352H83.3463V97.744H84.6423V99.904H88.7063V97.744H89.9862ZM89.3303 110.144C91.4423 110.144 92.7383 109.536 92.7383 108.512C92.7383 107.488 91.4423 106.896 89.3303 106.896C87.1863 106.896 85.9062 107.488 85.9062 108.512C85.9062 109.536 87.1863 110.144 89.3303 110.144ZM89.3303 105.84C92.2423 105.84 94.0503 106.816 94.0503 108.512C94.0503 110.208 92.2423 111.184 89.3303 111.184C86.4023 111.184 84.5943 110.208 84.5943 108.512C84.5943 106.816 86.4023 105.84 89.3303 105.84ZM93.8903 100.448H96.0183V101.536H93.8903V105.472H92.5783V96.832H93.8903V100.448ZM104.961 104.88L103.649 104.752C104.049 102.368 104.081 100.624 104.081 99.472H98.113V98.4H105.361V99.184C105.361 100.336 105.361 102.208 104.961 104.88ZM101.665 102.496V106.88C103.233 106.816 104.833 106.72 106.289 106.544L106.369 107.504C103.393 107.984 100.017 108.048 97.473 108.048L97.329 106.96C98.241 106.96 99.297 106.944 100.369 106.912V102.496H101.665ZM110.769 102.832V103.936H108.481V111.184H107.169V96.832H108.481V102.832H110.769ZM124.4 98.48V99.536H112.864V98.48H118.016V96.752H119.344V98.48H124.4ZM121.968 102.752C121.968 101.872 120.784 101.36 118.688 101.36C116.592 101.36 115.376 101.872 115.376 102.752C115.376 103.632 116.592 104.144 118.688 104.144C120.784 104.144 121.968 103.632 121.968 102.752ZM114.016 102.752C114.016 101.216 115.76 100.352 118.688 100.352C121.584 100.352 123.328 101.216 123.328 102.752C123.328 104.288 121.584 105.136 118.688 105.136C115.76 105.136 114.016 104.288 114.016 102.752ZM125.2 106.144V107.216H119.344V111.2H118.016V107.216H112.192V106.144H125.2ZM135.423 98.352V99.408H126.959V98.352H130.527V96.752H131.839V98.352H135.423ZM129.007 102.736C129.007 103.696 129.871 104.32 131.183 104.32C132.495 104.32 133.375 103.696 133.375 102.736C133.375 101.792 132.495 101.168 131.183 101.168C129.871 101.168 129.007 101.792 129.007 102.736ZM134.623 102.736C134.623 104.32 133.231 105.328 131.183 105.328C129.151 105.328 127.759 104.32 127.759 102.736C127.759 101.168 129.151 100.144 131.183 100.144C133.231 100.144 134.623 101.168 134.623 102.736ZM128.735 107.664V106.592H138.047V111.2H136.735V107.664H128.735ZM140.175 100.8V101.888H138.047V105.808H136.735V96.848H138.047V100.8H140.175ZM151.773 99.856V99.344H142.973V98.272H153.085V99.856C153.085 101.68 153.085 103.552 152.573 106.24L151.277 106.08C151.773 103.52 151.773 101.632 151.773 99.856ZM149.661 108.096H154.605V109.168H141.629V108.096H144.813V103.344H146.109V108.096H148.365V103.344H149.661V108.096ZM168.76 104.32V99.328H165.192V104.32H168.76ZM163.88 104.32V99.328H161.656V98.272H172.296V99.328H170.072V104.32H172.264V105.392H161.688V104.32H163.88ZM160.504 108.256H173.512V109.344H160.504V108.256ZM182.375 108.336H188.247V109.408H175.207V108.336H181.047V105.632H176.839V101.2H185.351V98.96H176.807V97.888H186.631V102.256H178.135V104.576H186.967V105.632H182.375V108.336ZM199.894 99.792V99.424H191.35V98.352H201.19V99.792C201.19 101.616 201.19 103.68 200.63 106.784L199.318 106.64C199.894 103.712 199.894 101.568 199.894 99.792ZM189.958 108H202.934V109.088H189.958V108ZM211.525 103.296L211.653 104.352C209.829 104.688 208.325 104.768 206.261 104.768H205.317V100.688H209.413V98.832H205.285V97.776H210.677V101.68H206.581V103.712C208.437 103.712 209.845 103.632 211.525 103.296ZM208.629 107.136V109.936H215.493V107.136H208.629ZM207.349 110.992V106.096H216.773V110.992H207.349ZM215.509 96.832H216.773V105.408H215.509V101.552H213.589V105.216H212.341V97.104H213.589V100.48H215.509V96.832ZM225.859 98.064C223.507 98.064 222.163 98.608 222.163 99.568C222.163 100.528 223.507 101.072 225.859 101.072C228.211 101.072 229.555 100.528 229.555 99.568C229.555 98.608 228.211 98.064 225.859 98.064ZM225.859 102.048C222.707 102.048 220.819 101.184 220.819 99.568C220.819 97.952 222.707 97.072 225.859 97.072C229.011 97.072 230.899 97.952 230.899 99.568C230.899 101.184 229.011 102.048 225.859 102.048ZM222.259 108.544V110H231.123V111.024H220.979V107.584H229.395V106.304H220.931V105.312H230.691V108.544H222.259ZM219.363 103.024H232.355V104.08H219.363V103.024ZM244.734 98.256C242.542 98.256 241.086 98.944 241.086 100.08C241.086 101.2 242.542 101.888 244.734 101.888C246.942 101.888 248.382 101.2 248.382 100.08C248.382 98.944 246.942 98.256 244.734 98.256ZM244.734 102.96C241.694 102.96 239.71 101.856 239.71 100.08C239.71 98.304 241.694 97.2 244.734 97.2C247.774 97.2 249.758 98.304 249.758 100.08C249.758 101.856 247.774 102.96 244.734 102.96ZM241.214 106.672V109.776H249.822V110.864H239.902V106.672H241.214ZM238.238 104.112H251.246V105.184H245.518V108.08H244.19V105.184H238.238V104.112ZM254.445 101.088C254.445 102.432 255.501 103.392 256.893 103.392C258.301 103.392 259.325 102.432 259.325 101.088C259.325 99.76 258.301 98.8 256.893 98.8C255.501 98.8 254.445 99.76 254.445 101.088ZM263.469 99.968H260.397C260.509 100.304 260.573 100.672 260.573 101.088C260.573 101.488 260.509 101.856 260.381 102.208H263.469V99.968ZM263.469 103.28H259.789C259.133 104.048 258.109 104.512 256.893 104.512C254.765 104.512 253.197 103.104 253.197 101.088C253.197 99.088 254.765 97.696 256.893 97.696C258.109 97.696 259.133 98.16 259.789 98.896H263.469V96.832H264.797V105.328H263.469V103.28ZM260.045 110.128C262.237 110.128 263.549 109.488 263.549 108.416C263.549 107.328 262.237 106.688 260.045 106.688C257.885 106.688 256.573 107.328 256.573 108.416C256.573 109.488 257.885 110.128 260.045 110.128ZM260.045 105.664C263.005 105.664 264.845 106.672 264.845 108.416C264.845 110.16 263.005 111.168 260.045 111.168C257.101 111.168 255.277 110.16 255.277 108.416C255.277 106.672 257.101 105.664 260.045 105.664ZM276.204 98.592V99.648H267.74V98.592H271.308V96.832H272.62V98.592H276.204ZM269.788 103.104C269.788 104.112 270.668 104.752 271.964 104.752C273.26 104.752 274.156 104.112 274.156 103.104C274.156 102.112 273.26 101.472 271.964 101.472C270.668 101.472 269.788 102.112 269.788 103.104ZM275.404 103.104C275.404 104.72 273.996 105.776 271.964 105.776C269.932 105.776 268.54 104.72 268.54 103.104C268.54 101.504 269.932 100.448 271.964 100.448C273.996 100.448 275.404 101.504 275.404 103.104ZM271.212 106.752V109.792H279.468V110.864H269.9V106.752H271.212ZM278.828 101.568H280.94V102.672H278.828V107.6H277.516V96.832H278.828V101.568ZM9.36 122.352V123.408H0.896V122.352H4.464V120.752H5.776V122.352H9.36ZM2.944 126.736C2.944 127.696 3.808 128.32 5.12 128.32C6.432 128.32 7.312 127.696 7.312 126.736C7.312 125.792 6.432 125.168 5.12 125.168C3.808 125.168 2.944 125.792 2.944 126.736ZM8.56 126.736C8.56 128.32 7.168 129.328 5.12 129.328C3.088 129.328 1.696 128.32 1.696 126.736C1.696 125.168 3.088 124.144 5.12 124.144C7.168 124.144 8.56 125.168 8.56 126.736ZM2.672 131.664V130.592H11.984V135.2H10.672V131.664H2.672ZM14.112 124.8V125.888H11.984V129.808H10.672V120.848H11.984V124.8H14.112ZM25.7108 123.856V123.344H16.9108V122.272H27.0228V123.856C27.0228 125.68 27.0228 127.552 26.5108 130.24L25.2148 130.08C25.7108 127.52 25.7108 125.632 25.7108 123.856ZM23.5988 132.096H28.5428V133.168H15.5668V132.096H18.7508V127.344H20.0468V132.096H22.3028V127.344H23.5988V132.096ZM32.5095 132.32C32.4135 132.693 32.2908 133.099 32.1415 133.536C31.9922 133.973 31.8268 134.405 31.6455 134.832C31.4748 135.269 31.3042 135.68 31.1335 136.064H30.0935C30.2002 135.659 30.3015 135.221 30.3975 134.752C30.5042 134.293 30.6002 133.84 30.6855 133.392C30.7708 132.933 30.8402 132.517 30.8935 132.144H32.3975L32.5095 132.32ZM48.867 123.856V123.344H40.067V122.272H50.179V123.856C50.179 125.68 50.179 127.552 49.667 130.24L48.371 130.08C48.867 127.52 48.867 125.632 48.867 123.856ZM46.755 132.096H51.699V133.168H38.723V132.096H41.907V127.344H43.203V132.096H45.459V127.344H46.755V132.096ZM58.2578 122.08V124.656C58.2578 127.184 59.8898 129.792 61.9058 130.8L61.0898 131.84C59.5698 131.024 58.2738 129.344 57.6178 127.376C56.9938 129.472 55.6658 131.264 54.0498 132.128L53.2658 131.072C55.3298 130.016 56.9618 127.264 56.9618 124.656V122.08H58.2578ZM66.8498 126.656V127.744H64.4818V135.184H63.1698V120.848H64.4818V126.656H66.8498ZM70.3845 132.32C70.2885 132.693 70.1658 133.099 70.0165 133.536C69.8672 133.973 69.7018 134.405 69.5205 134.832C69.3498 135.269 69.1792 135.68 69.0085 136.064H67.9685C68.0752 135.659 68.1765 135.221 68.2725 134.752C68.3792 134.293 68.4752 133.84 68.5605 133.392C68.6458 132.933 68.7152 132.517 68.7685 132.144H70.2725L70.3845 132.32ZM84.902 127.12L85.046 128.176C83.078 128.576 81.382 128.672 78.374 128.672H77.254V122.08H83.606V123.136H78.566V127.6C81.398 127.6 83.03 127.488 84.902 127.12ZM80.118 130.176V133.792H88.374V134.864H78.806V130.176H80.118ZM87.734 125.088H89.862V126.176H87.734V131.216H86.422V120.832H87.734V125.088ZM95.4928 124.56V125.248C95.4928 127.536 96.6448 129.904 98.5808 130.944L97.8288 131.936C96.4368 131.152 95.4128 129.696 94.8848 127.968C94.3888 129.792 93.3808 131.392 91.9728 132.24L91.2048 131.264C93.1408 130.112 94.2448 127.6 94.2448 125.248V124.56H91.5888V123.472H94.2448V121.344H95.5088V123.472H98.1488V124.56H95.4928ZM99.3648 126.496V121.168H100.613V134.432H99.3648V127.584H97.1728V126.496H99.3648ZM102.245 120.832H103.509V135.168H102.245V120.832ZM116.084 123.344V122.176H107.668V121.248H117.38V124.24H108.996V125.472H117.636V126.416H107.7V123.344H116.084ZM108.916 132.72V134.048H117.876V134.992H107.62V131.808H116.132V130.608H107.588V129.664H117.428V132.72H108.916ZM106.036 127.504H119.044V128.496H106.036V127.504ZM129.999 122.08V124.656C129.999 127.28 131.711 129.92 133.839 130.88L133.055 131.936C131.423 131.136 130.047 129.44 129.359 127.392C128.703 129.552 127.327 131.344 125.647 132.208L124.847 131.136C126.959 130.128 128.703 127.376 128.703 124.656V122.08H129.999ZM135.343 120.832H136.655V135.216H135.343V120.832ZM147.917 127.584L147.229 128.608C145.677 128.032 144.445 126.848 143.805 125.376C143.213 127.056 141.933 128.368 140.253 129.008L139.565 127.968C141.741 127.184 143.133 125.232 143.133 123.04V121.568H144.445V123.152C144.445 125.088 145.853 126.88 147.917 127.584ZM146.205 134.144C148.317 134.144 149.613 133.552 149.613 132.56C149.613 131.552 148.317 130.96 146.205 130.96C144.077 130.96 142.781 131.552 142.781 132.56C142.781 133.552 144.077 134.144 146.205 134.144ZM146.205 129.936C149.117 129.936 150.925 130.88 150.925 132.56C150.925 134.224 149.117 135.168 146.205 135.168C143.277 135.168 141.469 134.224 141.469 132.56C141.469 130.88 143.277 129.936 146.205 129.936ZM150.765 124.544H152.893V125.632H150.765V129.536H149.453V120.848H150.765V124.544ZM162.86 122.304V123.36H154.396V122.304H157.964V120.688H159.276V122.304H162.86ZM156.444 126.544C156.444 127.488 157.308 128.064 158.62 128.064C159.932 128.064 160.812 127.488 160.812 126.544C160.812 125.616 159.932 125.024 158.62 125.024C157.308 125.024 156.444 125.616 156.444 126.544ZM162.06 126.544C162.06 128.08 160.668 129.056 158.62 129.056C156.572 129.056 155.196 128.08 155.196 126.544C155.196 125.024 156.572 124.048 158.62 124.048C160.668 124.048 162.06 125.024 162.06 126.544ZM164.188 133.936V132.352H157.756V133.936H164.188ZM164.188 131.328V129.808H165.484V134.992H156.46V129.808H157.756V131.328H164.188ZM167.612 124.48V125.584H165.484V129.168H164.172V120.832H165.484V124.48H167.612ZM171.275 122.224V130.352C173.435 130.352 175.659 130.16 178.043 129.68L178.187 130.8C175.691 131.312 173.435 131.472 171.147 131.472H169.963V122.224H171.275ZM179.515 120.832H180.827V135.168H179.515V120.832ZM185.706 123.296V130.512C188.25 130.512 190.09 130.4 192.17 130.032L192.314 131.12C190.122 131.536 188.234 131.632 185.53 131.632H184.394V122.208H191.066V123.296H185.706ZM197.194 126.496V127.584H194.826V135.216H193.514V120.832H194.826V126.496H197.194ZM198.808 133.136C198.808 132.741 198.904 132.464 199.096 132.304C199.288 132.144 199.518 132.064 199.784 132.064C200.062 132.064 200.296 132.144 200.488 132.304C200.691 132.464 200.792 132.741 200.792 133.136C200.792 133.52 200.691 133.797 200.488 133.968C200.296 134.139 200.062 134.224 199.784 134.224C199.518 134.224 199.288 134.139 199.096 133.968C198.904 133.797 198.808 133.52 198.808 133.136Z" fill="#1D1D1D"/>
</svg>
