<svg width="16" height="16" viewBox="0 0 16 16" fill="none" xmlns="http://www.w3.org/2000/svg">
<mask id="mask0_27_1988" style="mask-type:alpha" maskUnits="userSpaceOnUse" x="0" y="0" width="16" height="16">
<rect x="0.191406" y="0.258301" width="15.4" height="15.4" fill="#D9D9D9"/>
</mask>
<g mask="url(#mask0_27_1988)">
<path d="M10.4577 12.45C10.1048 12.45 9.80265 12.3243 9.55133 12.073C9.30001 11.8217 9.17435 11.5196 9.17435 11.1667V4.75001C9.17435 4.39709 9.30001 4.09497 9.55133 3.84365C9.80265 3.59233 10.1048 3.46667 10.4577 3.46667C10.8106 3.46667 11.1127 3.59233 11.364 3.84365C11.6154 4.09497 11.741 4.39709 11.741 4.75001V11.1667C11.741 11.5196 11.6154 11.8217 11.364 12.073C11.1127 12.3243 10.8106 12.45 10.4577 12.45ZM5.32435 12.45C4.97143 12.45 4.66931 12.3243 4.41799 12.073C4.16668 11.8217 4.04102 11.5196 4.04102 11.1667V4.75001C4.04102 4.39709 4.16668 4.09497 4.41799 3.84365C4.66931 3.59233 4.97143 3.46667 5.32435 3.46667C5.67727 3.46667 5.97938 3.59233 6.2307 3.84365C6.48202 4.09497 6.60768 4.39709 6.60768 4.75001V11.1667C6.60768 11.5196 6.48202 11.8217 6.2307 12.073C5.97938 12.3243 5.67727 12.45 5.32435 12.45Z" fill="white"/>
</g>
</svg>
