<svg width="16" height="16" viewBox="0 0 16 16" fill="none" xmlns="http://www.w3.org/2000/svg">
<mask id="mask0_29_19" style="mask-type:alpha" maskUnits="userSpaceOnUse" x="0" y="0" width="16" height="16">
<rect width="15.4" height="15.4" transform="matrix(-1 0 0 1 15.5996 0)" fill="#D9D9D9"/>
</mask>
<g mask="url(#mask0_29_19)">
<path d="M9.47216 7.70001L4.75591 12.4163C4.5955 12.5767 4.51796 12.7638 4.52331 12.9777C4.52865 13.1916 4.61154 13.3788 4.77195 13.5392C4.93237 13.6996 5.11952 13.7798 5.33341 13.7798C5.5473 13.7798 5.73445 13.6996 5.89487 13.5392L10.8357 8.61439C10.964 8.48605 11.0603 8.34168 11.1245 8.18126C11.1886 8.02084 11.2207 7.86043 11.2207 7.70001C11.2207 7.53959 11.1886 7.37918 11.1245 7.21876C11.0603 7.05834 10.964 6.91397 10.8357 6.78564L5.89487 1.8448C5.73445 1.68438 5.54463 1.60685 5.32539 1.6122C5.10615 1.61754 4.91633 1.70043 4.75591 1.86084C4.5955 2.02126 4.51529 2.20841 4.51529 2.4223C4.51529 2.63619 4.5955 2.82334 4.75591 2.98376L9.47216 7.70001Z" fill="white"/>
</g>
</svg>
