<svg width="17" height="16" viewBox="0 0 17 16" fill="none" xmlns="http://www.w3.org/2000/svg">
<mask id="mask0_27_1991" style="mask-type:alpha" maskUnits="userSpaceOnUse" x="0" y="0" width="17" height="16">
<rect width="15.4" height="15.4" transform="matrix(-1 0 0 1 16.167 0.258301)" fill="#D9D9D9"/>
</mask>
<g mask="url(#mask0_27_1991)">
<path d="M12.1087 8.50368C12.205 8.43951 12.2771 8.3593 12.3253 8.26305C12.3734 8.1668 12.3975 8.06521 12.3975 7.95826C12.3975 7.85132 12.3734 7.74972 12.3253 7.65347C12.2771 7.55722 12.205 7.47701 12.1087 7.41285L6.87913 4.09222C6.82566 4.06014 6.76951 4.03608 6.71069 4.02003C6.65187 4.00399 6.59573 3.99597 6.54225 3.99597C6.37114 3.99597 6.22142 4.05746 6.09309 4.18045C5.96475 4.30344 5.90059 4.45583 5.90059 4.63764V11.2789C5.90059 11.4607 5.96475 11.6131 6.09309 11.7361C6.22142 11.8591 6.37114 11.9206 6.54225 11.9206C6.59573 11.9206 6.65187 11.9125 6.71069 11.8965C6.76951 11.8805 6.82566 11.8564 6.87913 11.8243L12.1087 8.50368Z" fill="white"/>
</g>
</svg>
