<svg xmlns="http://www.w3.org/2000/svg" xmlns:xlink="http://www.w3.org/1999/xlink" width="118.183" height="30.156" viewBox="0 0 118.183 30.156">
  <defs>
    <clipPath id="clip-path">
      <rect id="사각형_40" data-name="사각형 40" width="118.183" height="30.156" fill="#174193"/>
    </clipPath>
  </defs>
  <g id="로고_-_진흥기업" data-name="로고 - 진흥기업" transform="translate(7.011 0.129)">
    <g id="그룹_1" data-name="그룹 1" transform="translate(-7.011 -0.129)" clip-path="url(#clip-path)">
      <path id="패스_2" data-name="패스 2" d="M61.992,17.759v3.233H57.666l.922.673c2.351,1.985,2.938,4.621.738,7.006-4.284,4.64-17.269,4.614-21.4-.226-2.335-2.732-.883-5.689,1.8-7.453H35.162l-.139-.134v-3.1ZM47.339,21.826c-2.093.149-6.637,1.332-5.391,4.218,1.05,2.432,6.119,2.727,8.4,2.488,2.06-.216,6.319-1.388,5.155-4.218-.986-2.4-5.964-2.644-8.164-2.488" transform="translate(-3.085 -1.957)" fill="#174193"/>
      <path id="패스_3" data-name="패스 3" d="M117.975,7.911h4.234V2.7H127V16.62h-4.786V11.143h-4.234c-.776,2.846-3.7,4.692-6.55,5.238-5.5,1.053-13.436-2.652-10.89-9.007C103.182.765,115.8.9,117.975,7.911m-9.038-2.218c-5.61.294-5.047,8.2.707,7.694a3.867,3.867,0,1,0-.707-7.694" transform="translate(-8.812 -0.279)" fill="#174193"/>
      <path id="패스_4" data-name="패스 4" d="M51.21,0V2.694H61.7V5.836H58.3l.938,1.375c1.132,2.4-.265,4.464-2.326,5.756-3.009,1.886-7.6,2.244-11.068,1.743-4.555-.657-10.6-3.848-6.5-8.874H35.932V2.694h10.4V0ZM47.97,5.863c-1.909.121-6.341,1.1-5,3.838,1.393,2.844,9.773,2.818,11.539.206.818-1.209.117-2.359-1-3.031A10.3,10.3,0,0,0,47.97,5.863" transform="translate(-3.165 0)" fill="#174193"/>
      <path id="패스_5" data-name="패스 5" d="M109.151,19.98v2.334H122.59V19.98h4.786v10.5H105.24c-.308,0-.875-.668-.875-.942V19.98Zm13.439,5.566H109.152v1.706H122.59Z" transform="translate(-9.192 -2.202)" fill="#174193"/>
      <path id="패스_6" data-name="패스 6" d="M19.605,3.027V6.26H12.7c.245,4.337,2.266,8.181,6.626,9.7l-2.119,2.472c-.417.182-2.385-.993-2.824-1.286a14.066,14.066,0,0,1-3.286-3.08l-1.065-1.788A7.686,7.686,0,0,1,7.408,15.5a16.393,16.393,0,0,1-5.246,2.975L0,15.957a12.005,12.005,0,0,0,6.091-4.79A12.872,12.872,0,0,0,7.548,6.26h-7V3.027Z" transform="translate(0 -0.333)" fill="#174193"/>
      <path id="패스_7" data-name="패스 7" d="M69.288,6.271V3.128H83.049a6.374,6.374,0,0,1,.647.267c1.432.8.651,3.717.349,5.014-1.587,6.813-5.7,13.641-11.656,17.6l-3.651-2.185A27.891,27.891,0,0,0,77.772,12.8,21.836,21.836,0,0,0,79.493,7.2c.034-.258.136-.771-.035-.932Z" transform="translate(-6.054 -0.345)" fill="#174193"/>
      <rect id="사각형_39" data-name="사각형 39" width="4.787" height="26.127" transform="translate(82.102 2.245)" fill="#174193"/>
      <path id="패스_8" data-name="패스 8" d="M8.714,22.1v5.746H27.031v3.233H4.986c-.419,0-1.15-.625-1.15-1.033V22.1Z" transform="translate(-0.338 -2.436)" fill="#174193"/>
      <path id="패스_9" data-name="패스 9" d="M28.8,2.523V20.839h-4.74l-.138-.134V2.523Z" transform="translate(-2.107 -0.278)" fill="#174193"/>
    </g>
  </g>
</svg>
