<svg xmlns="http://www.w3.org/2000/svg" width="62" height="62" viewBox="0 0 62 62">
  <g id="그룹_8" data-name="그룹 8" transform="translate(-169 -8041)">
    <rect id="사각형_60" data-name="사각형 60" width="62" height="62" transform="translate(169 8041)" fill="#fff" opacity="0"/>
    <path id="패스_14" data-name="패스 14" d="M61.992,17.759v3.233H57.666l.922.673c2.351,1.985,2.938,4.621.738,7.006-4.284,4.64-17.269,4.614-21.4-.226-2.335-2.732-.883-5.689,1.8-7.453H35.162l-.139-.134v-3.1ZM47.339,21.826c-2.093.149-6.637,1.332-5.391,4.218,1.05,2.432,6.119,2.727,8.4,2.488,2.06-.216,6.319-1.388,5.155-4.218-.986-2.4-5.964-2.644-8.164-2.488" transform="translate(166.915 8054.887)" fill="#174193"/>
    <path id="패스_15" data-name="패스 15" d="M51.21,0V2.694H61.7V5.836H58.3l.938,1.375c1.132,2.4-.265,4.464-2.326,5.756-3.009,1.886-7.6,2.244-11.068,1.743-4.555-.657-10.6-3.848-6.5-8.874H35.932V2.694h10.4V0ZM47.97,5.863c-1.909.121-6.341,1.1-5,3.838,1.393,2.844,9.773,2.818,11.539.206.818-1.209.117-2.359-1-3.031A10.3,10.3,0,0,0,47.97,5.863" transform="translate(166.835 8056.845)" fill="#174193"/>
    <path id="패스_16" data-name="패스 16" d="M19.605,3.027V6.26H12.7c.245,4.337,2.266,8.181,6.626,9.7l-2.119,2.472c-.417.182-2.385-.993-2.824-1.286a14.066,14.066,0,0,1-3.286-3.08l-1.065-1.788A7.686,7.686,0,0,1,7.408,15.5a16.393,16.393,0,0,1-5.246,2.975L0,15.957a12.005,12.005,0,0,0,6.091-4.79A12.872,12.872,0,0,0,7.548,6.26h-7V3.027Z" transform="translate(170 8056.511)" fill="#174193"/>
    <path id="패스_17" data-name="패스 17" d="M8.714,22.1v5.746H27.031v3.233H4.986c-.419,0-1.15-.625-1.15-1.033V22.1Z" transform="translate(169.662 8054.409)" fill="#174193"/>
    <path id="패스_18" data-name="패스 18" d="M28.8,2.523V20.839h-4.74l-.138-.134V2.523Z" transform="translate(167.893 8056.566)" fill="#174193"/>
  </g>
</svg>
