<svg width="14" height="20" viewBox="0 0 14 20" fill="none" xmlns="http://www.w3.org/2000/svg">
<path d="M6.9998 19.9002C6.86647 19.9002 6.74147 19.8752 6.6248 19.8252C6.50814 19.7752 6.3998 19.7002 6.2998 19.6002L0.699805 14.0252C0.516471 13.8419 0.424805 13.6085 0.424805 13.3252C0.424805 13.0419 0.516471 12.8002 0.699805 12.6002C0.899805 12.4002 1.1373 12.3002 1.4123 12.3002C1.6873 12.3002 1.9248 12.4002 2.1248 12.6002L5.9998 16.5002V10.3252C5.9998 10.0419 6.09564 9.80436 6.2873 9.6127C6.47897 9.42103 6.71647 9.3252 6.9998 9.3252C7.28314 9.3252 7.52064 9.42103 7.7123 9.6127C7.90397 9.80436 7.9998 10.0419 7.9998 10.3252V16.5002L11.8998 12.6002C12.0831 12.4169 12.3123 12.3252 12.5873 12.3252C12.8623 12.3252 13.0998 12.4252 13.2998 12.6252C13.4831 12.8085 13.5748 13.0419 13.5748 13.3252C13.5748 13.6085 13.4831 13.8419 13.2998 14.0252L7.6998 19.6002C7.5998 19.7002 7.49147 19.7752 7.3748 19.8252C7.25814 19.8752 7.13314 19.9002 6.9998 19.9002ZM6.9998 7.3252C6.71647 7.3252 6.47897 7.22936 6.2873 7.0377C6.09564 6.84603 5.9998 6.60853 5.9998 6.3252V5.3252C5.9998 5.04186 6.09564 4.80436 6.2873 4.6127C6.47897 4.42103 6.71647 4.3252 6.9998 4.3252C7.28314 4.3252 7.52064 4.42103 7.7123 4.6127C7.90397 4.80436 7.9998 5.04186 7.9998 5.3252V6.3252C7.9998 6.60853 7.90397 6.84603 7.7123 7.0377C7.52064 7.22936 7.28314 7.3252 6.9998 7.3252ZM6.9998 2.3252C6.71647 2.3252 6.47897 2.22936 6.2873 2.0377C6.09564 1.84603 5.9998 1.60853 5.9998 1.3252C5.9998 1.04186 6.09564 0.804362 6.2873 0.612695C6.47897 0.421029 6.71647 0.325195 6.9998 0.325195C7.28314 0.325195 7.52064 0.421029 7.7123 0.612695C7.90397 0.804362 7.9998 1.04186 7.9998 1.3252C7.9998 1.60853 7.90397 1.84603 7.7123 2.0377C7.52064 2.22936 7.28314 2.3252 6.9998 2.3252Z" fill="white"/>
</svg>
