<svg width="180" height="39" viewBox="0 0 180 39" fill="none" xmlns="http://www.w3.org/2000/svg">
<path d="M45.7205 11.4041C42.8001 15.1204 38.0827 16.9682 33.4752 15.7459C32.7487 13.3754 35.6711 14.4701 37.1588 14.3343C39.6376 14.11 42.3382 12.5893 43.895 10.6489C44.5971 9.77226 45.631 6.74531 46.7971 8.48205L50.2405 22.8431C51.9378 31.2819 39.0637 32.2491 33.6055 31.1461C30.4816 30.5144 29.2971 29.2159 29.0651 25.9647L29.5556 3.57843C27.5347 5.31517 25.8802 7.48404 23.6049 8.91623C22.7644 9.44508 21.6756 10.3217 20.8656 9.57677C20.0577 8.83392 18.7837 5.98188 18.0348 4.87687C17.8883 4.6608 18.0735 4.42211 17.4975 4.55792C17.0071 9.64056 15.9346 17.4106 10.3909 19.242C7.34231 20.2503 1.70707 19.3161 1.79458 24.2424C1.86377 28.1089 5.63077 31.2017 9.08844 32.0289C15.9854 33.6792 25.6197 27.7796 31.3709 34.1422C31.9224 34.7533 33.8456 37.8317 32.5411 38.2762C31.0982 38.768 31.0697 36.8481 30.3859 35.8769C26.336 30.1214 15.8145 34.7863 9.9208 34.1237C4.76178 33.5434 -1.29066 28.0368 0.241787 22.4068C1.76202 16.8159 7.92028 19.1721 11.4492 16.6493C14.3736 14.5586 15.497 7.64454 15.8165 4.20398C15.902 3.2924 15.6517 2.11743 15.8125 1.26552C15.9732 0.413608 16.8178 -0.1461 17.5057 0.584401C18.2729 1.39927 21.523 7.68981 21.9544 7.7248C23.2874 6.8235 24.7751 5.79051 25.9433 4.6855C27.492 3.21832 28.6886 1.17086 30.4002 0L31.1287 0.399204C31.2997 4.42828 31.3017 8.4841 31.2569 12.5194C31.2061 17.1616 30.4633 22.3081 30.9985 26.9421C31.3791 30.2448 38.6078 29.8333 40.9828 29.4711C43.95 29.0205 49.3084 27.792 48.588 23.7835L45.7164 11.4082L45.7205 11.4041Z" fill="#0645DB"/>
<path d="M10.6682 28.6915C8.12629 30.9714 2.6905 27.0473 4.70526 23.7487C7.00088 19.9851 14.1034 25.611 10.6682 28.6915Z" fill="#0645DB"/>
<path d="M39.8804 23.9463C40.4746 23.8804 41.8198 23.5676 41.8809 24.4916C41.3924 26.216 40.2569 27.0658 38.6023 26.0802C36.5448 24.8558 38.409 24.1068 39.8804 23.9463Z" fill="#0645DB"/>
<path d="M21.275 18.3079C22.2335 18.2256 22.9397 19.5405 22.091 20.3409C20.5057 21.8369 19.5329 18.456 21.275 18.3079Z" fill="#0645DB"/>
<path d="M18.1612 18.0693C18.841 18.7504 18.3648 20.0221 17.16 19.9542C15.0414 19.8369 16.7367 16.6412 18.1612 18.0693Z" fill="#0645DB"/>
<path d="M40.4763 20.8824C39.6928 20.0614 40.4641 18.5098 41.6221 19.1024C42.9734 19.7938 41.4898 21.9442 40.4763 20.8824Z" fill="#0645DB"/>
<path d="M35.4105 19.7836C36.1391 19.0469 37.1973 19.7095 37.0447 20.8063C36.7801 22.6974 34.2627 20.9462 35.4105 19.7836Z" fill="#0645DB"/>
<path d="M179.821 10.4141V13.315H169.78V18.8418H178.758V21.2426C178.758 21.5677 178.609 21.7178 178.362 21.7178H169.78V27.5697C169.78 27.7197 169.829 27.7697 170.002 27.7697H179.821V30.2955C179.821 30.5706 179.623 30.7707 179.426 30.7707H167.207C166.738 30.7707 166.342 30.3206 166.342 29.8204V10.4141H179.821Z" fill="#0645DB"/>
<path d="M163.104 14.465V17.9161C163.104 19.9668 161.447 21.8174 160.086 22.0175L164.118 30.5452C164.167 30.6453 164.142 30.7703 163.994 30.7703H160.606L156.624 22.4426H152.172V30.2452C152.172 30.5452 152.073 30.7703 151.751 30.7703H148.783V10.3887H157.959C160.779 10.3887 163.104 11.389 163.104 14.465ZM157.39 13.3146H152.172V19.4916H156.995C158.528 19.4916 159.814 18.6414 159.814 17.3659V15.3153C159.814 13.6647 158.825 13.3146 157.39 13.3146Z" fill="#0645DB"/>
<path d="M133.406 22.568H140.158L136.819 13.5401C136.77 13.4401 136.646 13.4401 136.596 13.5401L133.406 22.568ZM127.074 30.7707L134.519 10.4141H138.773L146.613 30.5206C146.663 30.6457 146.613 30.7707 146.465 30.7707H143.101L141.147 25.444H132.392L130.735 30.5706C130.685 30.6707 130.562 30.7707 130.463 30.7707H127.074Z" fill="#0645DB"/>
<path d="M112.129 23.7185V16.9163C112.129 12.5149 115.295 10.5142 118.485 10.3142C121.181 10.1391 123.679 10.2141 126.177 10.4642V13.3652C123.828 13.1151 121.379 12.94 119.029 13.1651C116.902 13.3652 115.74 14.9157 115.74 16.6412V23.3934C115.74 25.8692 116.927 27.6948 119.747 27.8199C121.874 27.9199 124.026 27.7949 126.153 27.4698V30.1206C126.153 30.3457 126.054 30.4207 125.88 30.4457C123.753 30.6958 121.676 30.8709 119.376 30.7708C114.38 30.5458 112.129 27.5198 112.129 23.7185Z" fill="#0645DB"/>
<path d="M103.839 30.7707H100.723V13.34H94.7129V10.4141H110.319V13.34H104.285V30.2955C104.285 30.6207 104.087 30.7707 103.839 30.7707Z" fill="#0645DB"/>
<path d="M93.376 10.4141V13.315H83.3344V18.8418H92.3125V21.2426C92.3125 21.5677 92.1641 21.7178 91.9168 21.7178H83.3344V27.5697C83.3344 27.7197 83.3838 27.7697 83.557 27.7697H93.376V30.2955C93.376 30.5706 93.1781 30.7707 92.9803 30.7707H80.7621C80.2922 30.7707 79.8965 30.3206 79.8965 29.8204V10.4141H93.376Z" fill="#0645DB"/>
<path d="M76.9086 14.4151V18.0663C76.9086 21.0172 74.1879 22.3677 71.6404 22.3677H65.655V30.2703C65.655 30.5454 65.4819 30.7204 65.1851 30.7204H62.1924V10.3638H71.6404C74.3858 10.3638 76.9086 11.2891 76.9086 14.4151ZM71.3684 13.2897H65.655V19.4167H71.1458C72.5061 19.4167 73.5449 18.8165 73.5449 17.6411V15.0903C73.5449 13.6148 72.7039 13.2897 71.3684 13.2897Z" fill="#0645DB"/>
</svg>
