<svg width="469" height="102" viewBox="0 0 469 102" fill="none" xmlns="http://www.w3.org/2000/svg">
<path d="M122.005 30.0969C114.212 39.9047 101.623 44.7815 89.3284 41.5556C87.3896 35.2995 95.1881 38.1886 99.1579 37.8302C105.772 37.2382 112.979 33.225 117.133 28.1038C119.007 25.7903 121.766 17.8018 124.878 22.3853L134.066 60.2861C138.596 82.5573 104.241 85.1098 89.6759 82.1989C81.3398 80.5317 78.1791 77.1049 77.5601 68.5244L78.8689 9.44397C73.4762 14.0275 69.061 19.7514 62.9895 23.5312C60.7466 24.9269 57.8412 27.2403 55.6798 25.2744C53.5238 23.3139 50.1242 15.787 48.1257 12.8707C47.7347 12.3005 48.2289 11.6706 46.692 12.029C45.3832 25.4428 42.5212 45.9491 27.7281 50.7824C19.5929 53.4434 4.5553 50.9779 4.78882 63.9789C4.97347 74.1832 15.0257 82.3455 24.2524 84.5287C42.657 88.8841 68.3659 73.3143 83.713 90.106C85.1847 91.7189 90.3167 99.8432 86.8357 101.016C82.9853 102.314 82.9093 97.2473 81.0846 94.6841C70.2775 79.4944 42.2008 91.8058 26.4736 90.0571C12.7068 88.5257 -3.4441 73.9931 0.645206 59.1348C4.70193 44.3796 21.1352 50.5977 30.552 43.9397C38.3559 38.4221 41.3536 20.175 42.2063 11.0949C42.4344 8.6891 41.7664 5.58818 42.1954 3.33987C42.6244 1.09157 44.8782 -0.385579 46.7137 1.54232C48.7611 3.69287 57.4339 20.2945 58.5852 20.3868C62.1423 18.0082 66.1122 15.282 69.2294 12.3657C73.3621 8.4936 76.5554 3.09006 81.1226 0L83.0668 1.05355C83.5229 11.6868 83.5284 22.3907 83.4089 33.0403C83.2731 45.2919 81.2909 58.8741 82.7192 71.104C83.7347 79.8203 103.025 78.7341 109.362 77.7783C117.28 76.589 131.579 73.3469 129.657 62.7679L121.994 30.1077L122.005 30.0969Z" fill="#EEEEEE"/>
<path d="M28.4673 75.7201C21.6843 81.7373 7.17895 71.3809 12.5553 62.6755C18.6812 52.7428 37.6343 67.5903 28.4673 75.7201Z" fill="#EEEEEE"/>
<path d="M106.419 63.1968C108.005 63.023 111.594 62.1975 111.757 64.6359C110.454 69.1868 107.424 71.4297 103.009 68.8284C97.5181 65.5972 102.493 63.6204 106.419 63.1968Z" fill="#EEEEEE"/>
<path d="M56.7715 48.3169C59.3294 48.0996 61.2139 51.5698 58.9493 53.6824C54.7187 57.6305 52.1229 48.7079 56.7715 48.3169Z" fill="#EEEEEE"/>
<path d="M48.4623 47.687C50.2761 49.4845 49.0054 52.8407 45.7904 52.6615C40.137 52.352 44.6608 43.9181 48.4623 47.687Z" fill="#EEEEEE"/>
<path d="M108.011 55.1107C105.92 52.9438 107.978 48.8491 111.068 50.4131C114.674 52.2378 110.715 57.9129 108.011 55.1107Z" fill="#EEEEEE"/>
<path d="M94.493 52.2111C96.4372 50.2669 99.2611 52.0156 98.8538 54.9101C98.1478 59.9009 91.4301 55.2794 94.493 52.2111Z" fill="#EEEEEE"/>
<path d="M468.172 25.6875V33.3435H441.376V47.9295H465.334V54.2655C465.334 55.1235 464.938 55.5195 464.278 55.5195H441.376V70.9635C441.376 71.3595 441.508 71.4915 441.97 71.4915H468.172V78.1575C468.172 78.8835 467.644 79.4115 467.116 79.4115H434.512C433.258 79.4115 432.202 78.2235 432.202 76.9035V25.6875H468.172Z" fill="#EEEEEE"/>
<path d="M423.562 36.3796V45.4876C423.562 50.8996 419.14 55.7836 415.51 56.3116L426.268 78.8176C426.4 79.0816 426.334 79.4116 425.938 79.4116H416.896L406.27 57.4336H394.39V78.0256C394.39 78.8176 394.126 79.4116 393.268 79.4116H385.348V25.6216H409.834C417.358 25.6216 423.562 28.2616 423.562 36.3796ZM408.316 33.3436H394.39V49.6456H407.26C411.352 49.6456 414.784 47.4016 414.784 44.0356V38.6236C414.784 34.2676 412.144 33.3436 408.316 33.3436Z" fill="#EEEEEE"/>
<path d="M344.313 57.7635H362.331L353.421 33.9375C353.289 33.6735 352.959 33.6735 352.827 33.9375L344.313 57.7635ZM327.417 79.4115L347.283 25.6875H358.635L379.557 78.7515C379.689 79.0815 379.557 79.4115 379.161 79.4115H370.185L364.971 65.3535H341.607L337.185 78.8835C337.053 79.1475 336.723 79.4115 336.459 79.4115H327.417Z" fill="#EEEEEE"/>
<path d="M287.535 60.7997V42.8477C287.535 31.2317 295.983 25.9517 304.497 25.4237C311.691 24.9617 318.357 25.1597 325.023 25.8197V33.4757C318.753 32.8157 312.219 32.3537 305.949 32.9477C300.273 33.4757 297.171 37.5677 297.171 42.1217V59.9417C297.171 66.4757 300.339 71.2937 307.863 71.6237C313.539 71.8877 319.281 71.5577 324.957 70.6997V77.6957C324.957 78.2897 324.693 78.4877 324.231 78.5537C318.555 79.2137 313.011 79.6757 306.873 79.4117C293.541 78.8177 287.535 70.8317 287.535 60.7997Z" fill="#EEEEEE"/>
<path d="M265.413 79.4115H257.097V33.4095H241.059V25.6875H282.705V33.4095H266.601V78.1575C266.601 79.0155 266.073 79.4115 265.413 79.4115Z" fill="#EEEEEE"/>
<path d="M237.494 25.6875V33.3435H210.698V47.9295H234.656V54.2655C234.656 55.1235 234.26 55.5195 233.6 55.5195H210.698V70.9635C210.698 71.3595 210.83 71.4915 211.292 71.4915H237.494V78.1575C237.494 78.8835 236.966 79.4115 236.438 79.4115H203.834C202.58 79.4115 201.524 78.2235 201.524 76.9035V25.6875H237.494Z" fill="#EEEEEE"/>
<path d="M193.55 36.2477V45.8837C193.55 53.6717 186.29 57.2357 179.492 57.2357H163.52V78.0917C163.52 78.8177 163.058 79.2797 162.266 79.2797H154.28V25.5557H179.492C186.818 25.5557 193.55 27.9977 193.55 36.2477ZM178.766 33.2777H163.52V49.4477H178.172C181.802 49.4477 184.574 47.8637 184.574 44.7617V38.0297C184.574 34.1357 182.33 33.2777 178.766 33.2777Z" fill="#EEEEEE"/>
</svg>
